<svg width="160" height="160" viewBox="0 0 160 160" fill="none" xmlns="http://www.w3.org/2000/svg">
<path d="M79.1498 133.35C79.5998 133.35 80.0498 133.25 80.4998 133C80.9498 132.8 81.2998 132.55 81.4998 132.35L136.15 77.7C137.5 76.35 138.45 74.85 139.05 73.2C139.65 71.55 139.95 69.85 139.95 68.2C139.95 66.4 139.65 64.75 139.05 63.1C138.45 61.5 137.45 60.1 136.15 58.85L107.8 30.5C106.6 29.15 105.15 28.2 103.55 27.6C101.95 27 100.25 26.7 98.4498 26.7C96.7998 26.7 95.0998 27 93.4498 27.6C91.7998 28.2 90.2998 29.2 88.9498 30.5L87.0998 32.35L99.4498 44.85C101.1 46.4 102.35 48.2 103.1 50.2C103.85 52.2 104.25 54.3 104.25 56.55C104.25 61.2 102.65 65.15 99.4998 68.3C96.3498 71.45 92.3998 73.05 87.7498 73.05C85.5498 73.05 83.3998 72.65 81.3498 71.9C79.2998 71.1 77.4998 69.95 75.9498 68.4L63.4498 56.05L34.2998 85.2C33.9498 85.55 33.6998 85.9 33.5498 86.3C33.3998 86.7 33.2998 87.1 33.2998 87.55C33.2998 88.45 33.6498 89.25 34.2998 89.95C34.9498 90.65 35.7498 91.05 36.6498 91.05C37.0998 91.05 37.5498 90.95 37.9998 90.7C38.4498 90.5 38.7998 90.25 38.9998 90.05L61.6498 67.4L70.9998 76.75L48.4998 99.4C48.1498 99.75 47.8998 100.1 47.7498 100.5C47.5998 100.9 47.4998 101.3 47.4998 101.75C47.4998 102.65 47.8498 103.4 48.4998 104.1C49.1498 104.75 49.9498 105.1 50.8498 105.1C51.2998 105.1 51.7498 105 52.1998 104.75C52.6498 104.5 52.9998 104.3 53.1998 104.1L75.8498 81.6L85.1998 90.95L62.6998 113.6C62.3498 113.8 62.0998 114.15 61.9498 114.6C61.7998 115.05 61.6998 115.5 61.6998 115.95C61.6998 116.85 62.0498 117.6 62.6998 118.3C63.3498 118.95 64.1498 119.3 65.0498 119.3C65.4998 119.3 65.8998 119.2 66.2998 119.05C66.6998 118.9 67.0498 118.65 67.3998 118.3L90.0498 95.8L99.3998 105.15L76.7498 127.8C76.3998 128.15 76.1498 128.5 75.9998 128.9C75.8498 129.3 75.7498 129.7 75.7498 130.15C75.7498 131.05 76.0998 131.8 76.8498 132.5C77.5498 133.15 78.3498 133.5 79.2498 133.5L79.1498 133.35ZM78.9998 146.7C74.8998 146.7 71.2498 145.35 68.0998 142.6C64.9498 139.9 63.0498 136.45 62.4998 132.35C58.6998 131.8 55.5498 130.25 52.9998 127.7C50.4498 125.15 48.8998 122 48.3498 118.2C44.5498 117.65 41.4498 116.05 38.9498 113.45C36.4498 110.85 34.8998 107.7 34.3498 104.05C30.1498 103.5 26.6998 101.65 23.9998 98.55C21.3498 95.45 19.9998 91.75 19.9998 87.55C19.9998 85.35 20.3998 83.2 21.2498 81.15C22.0998 79.1 23.2498 77.3 24.8498 75.75L63.4998 37.25L85.3498 59.1C85.5498 59.45 85.8998 59.7 86.3498 59.85C86.7998 60 87.2498 60.1 87.6998 60.1C88.6998 60.1 89.5498 59.8 90.1998 59.2C90.8498 58.6 91.1998 57.8 91.1998 56.8C91.1998 56.35 91.0998 55.9 90.9498 55.45C90.7998 55 90.5498 54.65 90.1998 54.45L66.3498 30.6C65.1498 29.25 63.6998 28.3 62.0998 27.7C60.4998 27.1 58.7998 26.8 56.9998 26.8C55.3498 26.8 53.6498 27.1 51.9998 27.7C50.3498 28.3 48.8498 29.3 47.4998 30.6L23.9998 54.25C22.9998 55.25 22.1498 56.4 21.4998 57.75C20.8498 59.1 20.3998 60.4 20.1498 61.75C19.8998 63.1 19.9498 64.45 20.1498 65.85C20.3498 67.25 20.7998 68.55 21.4998 69.75L11.8498 79.4C9.94985 76.85 8.54985 74.05 7.69985 71C6.79985 67.95 6.49985 64.85 6.69985 61.75C6.89985 58.65 7.69985 55.6 9.04985 52.65C10.3998 49.7 12.1998 47.05 14.5498 44.75L37.9998 21.15C40.6498 18.6 43.6498 16.65 46.8998 15.3C50.1998 13.95 53.5498 13.3 56.9998 13.3C60.4498 13.3 63.7998 13.95 67.0998 15.3C70.3998 16.65 73.2998 18.6 75.8498 21.15L77.6998 23L79.5498 21.15C82.1998 18.6 85.1998 16.65 88.4498 15.3C91.7498 13.95 95.0998 13.3 98.5498 13.3C102 13.3 105.35 13.95 108.65 15.3C111.95 16.65 114.85 18.6 117.4 21.15L145.55 49.3C148.1 51.85 150.05 54.8 151.4 58.15C152.75 61.5 153.4 64.85 153.4 68.3C153.4 71.75 152.75 75.1 151.4 78.4C150.05 81.7 148.1 84.6 145.55 87.15L90.8998 141.65C89.3498 143.2 87.5498 144.45 85.4998 145.3C83.4498 146.2 81.2998 146.65 79.0998 146.65L78.9998 146.7Z" fill="#DD8F23"/>
</svg>
