<svg id="eOu9EUNL1GV1" xmlns="http://www.w3.org/2000/svg" xmlns:xlink="http://www.w3.org/1999/xlink" viewBox="0 0 196 181" shape-rendering="geometricPrecision" text-rendering="geometricPrecision"><path d="M97.4256,112.035c14.2914,0,25.8764-11.282,25.8764-25.1984s-11.585-25.1979-25.8764-25.1979c-14.291,0-25.8762,11.2815-25.8762,25.1979s11.5852,25.1984,25.8762,25.1984Z" fill="#ab4c51"/><path d="M63.7547,58.1238C62.52,54.1368,61.3804,49.198,60.89,43.479c-.8309-9.6689.5135-17.7773,1.9502-23.4049-8.8134-8.1427-22.4128-8.6657-31.7454-1.3033-9.5086,7.4996-11.9291,21.0927-5.5102,31.4676c4.9967-.9603,14.4418-2.0436,25.2227,1.4519c5.5159,1.7863,9.8404,4.2728,12.9474,6.4335Z" fill="#dd9023" fill-opacity="0"/><path d="M65.6952,119.068c-1.8549,3.751-3.7673,8.456-5.1707,14.041-2.3697,9.436-2.3467,17.677-1.8348,23.473-9.9819,6.665-23.4464,5.026-31.4498-3.736-8.1529-8.929-8.3571-22.766-.3738-32.018c4.7623,1.742,13.8844,4.309,25.054,2.559c5.7142-.897,10.3701-2.671,13.7751-4.316v-.003Z" fill="#dd9023" fill-opacity="0"/><path d="M96.3822,49.9193c1.7125-3.7274,4.1278-8.0946,7.5528-12.6266c5.789-7.6643,12.191-12.7915,17.013-16.0327C119.681,9.6504,109.736,0.628173,97.7852,0.130819C85.6092,-0.374917,74.7524,8.11921,72.7245,19.8517c4.4203,2.4645,12.2888,7.6671,18.1295,17.0917c2.9883,4.8227,4.6111,9.405,5.5311,12.9731l-.0029.0028Z" fill="#efedb7"/><path d="M95.4753,129.615c-1.481,3.867-3.6216,8.421-6.7572,13.201-5.3052,8.081-11.3798,13.639-15.9936,17.192c1.9815,11.656,12.4674,20.195,24.4257,20c12.1868-.201,22.4968-9.413,23.7978-21.389-4.564-2.232-12.739-7.032-19.149-16.216-3.2806-4.701-5.1839-9.235-6.3208-12.788h-.0029Z" fill="#efedb7" fill-opacity="0"/><path d="M51.551,86.8163c-4.0333,1.1586-8.8157,2.9134-13.9005,5.6205-8.5938,4.5778-14.6811,10.0882-18.628,14.3242C7.32599,103.98,-0.585024,93.1405,0.486678,81.5038C1.57855,69.6468,11.6877,60.2736,23.9489,59.8809c1.936,4.6088,6.2141,12.9252,15.0758,19.8427c4.5346,3.5407,9.0029,5.725,12.5291,7.0927h-.0028Z" fill="#efedb7" fill-opacity="0"/><path d="M130.947,58.1238c1.217-3.987,2.34-8.9258,2.824-14.6448.819-9.6689-.506-17.7773-1.923-23.4049c8.689-8.1427,22.097-8.6657,31.298-1.3033c9.375,7.4996,11.761,21.0927,5.433,31.4676-4.926-.9603-14.238-2.0436-24.867,1.4519-5.439,1.7863-9.702,4.2728-12.765,6.4335Z" fill="#dd9023" fill-opacity="0"/><path d="M126.241,119.068c1.831,3.751,3.718,8.456,5.103,14.041c2.338,9.436,2.316,17.677,1.811,23.473c9.85,6.665,23.137,5.026,31.036-3.736c8.045-8.929,8.247-22.766.368-32.018-4.699,1.742-13.701,4.309-24.724,2.559-5.639-.897-10.234-2.671-13.594-4.316v-.003Z" fill="#dd9023" fill-opacity="0"/><path d="M145.063,86.8163c3.987,1.1586,8.714,2.9134,13.741,5.6205c8.495,4.5778,14.512,10.0882,18.414,14.3242C188.78,103.98,196.6,93.1405,195.54,81.5038c-1.079-11.857-11.072-21.2302-23.192-21.6229-1.914,4.6088-6.143,12.9251-14.903,19.8427-4.482,3.5407-8.899,5.725-12.385,7.0927h.003Z" fill="#efedb7" fill-opacity="0"/></svg>