<svg width="197" height="180" viewBox="0 0 197 180" fill="none" xmlns="http://www.w3.org/2000/svg">
<path d="M97.8114 111.925C112.102 111.925 123.688 100.644 123.688 86.7273C123.688 72.8108 112.102 61.5293 97.8114 61.5293C83.5204 61.5293 71.9353 72.8108 71.9353 86.7273C71.9353 100.644 83.5204 111.925 97.8114 111.925Z" fill="#50A948"/>
<path d="M61.9361 58.0145C60.7013 54.0274 59.5618 49.0887 59.0714 43.3696C58.2405 33.7007 59.5849 25.5923 61.0216 19.9647C52.2082 11.8221 38.6088 11.299 29.2761 18.6615C19.7675 26.1611 17.3471 39.7541 23.766 50.129C28.7626 49.1687 38.2078 48.0855 48.9886 51.5809C54.5046 53.3672 58.829 55.8537 61.9361 58.0145Z" fill="#2B5CA4"/>
<path d="M67.2296 118.959C65.3747 122.71 63.4623 127.415 62.059 133C59.6893 142.435 59.7123 150.676 60.2242 156.473C50.2423 163.138 36.7778 161.499 28.7744 152.737C20.6215 143.808 20.4173 129.971 28.4005 120.718C33.1629 122.461 42.2849 125.028 53.4545 123.277C59.1688 122.38 63.8247 120.607 67.2296 118.962V118.959Z" fill="#2B5CA4"/>
<path d="M96.768 49.8099C98.4806 46.0826 100.896 41.7154 104.321 37.1833C110.11 29.519 116.512 24.3918 121.334 21.1506C120.067 9.54102 110.121 0.518798 98.171 0.021444C85.9951 -0.484292 75.1382 8.00984 73.1103 19.7424C77.5306 22.2068 85.3991 27.4094 91.2398 36.834C94.2281 41.6567 95.851 46.239 96.7709 49.8071L96.768 49.8099Z" fill="#D5D2D5"/>
<path d="M95.8612 129.506C94.3801 133.372 92.2396 137.926 89.1039 142.706C83.7988 150.788 77.7241 156.346 73.1103 159.898C75.0918 171.554 85.5777 180.094 97.536 179.899C109.723 179.698 120.032 170.485 121.334 158.509C116.769 156.278 108.595 151.478 102.185 142.294C98.9043 137.593 97.0009 133.058 95.8641 129.506H95.8612Z" fill="#D5D2D5"/>
<path d="M51.9366 86.707C47.9034 87.8655 43.121 89.6204 38.0362 92.3275C29.4424 96.9053 23.3551 102.416 19.4082 106.651C7.71167 103.871 -0.199343 93.0311 0.872359 81.3945C1.96423 69.5374 12.0734 60.1643 24.3346 59.7715C26.2705 64.3804 30.5487 72.6967 39.4104 79.6142C43.945 83.1549 48.4133 85.3393 51.9395 86.707H51.9366Z" fill="#D5D2D5"/>
<path d="M131.332 58.0145C132.55 54.0274 133.673 49.0887 134.157 43.3696C134.976 33.7007 133.65 25.5923 132.234 19.9647C140.923 11.8221 154.331 11.299 163.532 18.6615C172.907 26.1611 175.293 39.7541 168.965 50.129C164.039 49.1687 154.726 48.0855 144.097 51.5809C138.659 53.3672 134.396 55.8537 131.332 58.0145Z" fill="#2B5CA4"/>
<path d="M126.627 118.959C128.458 122.71 130.345 127.415 131.73 133C134.068 142.435 134.046 150.676 133.54 156.473C143.391 163.138 156.678 161.499 164.576 152.737C172.622 143.808 172.824 129.971 164.945 120.718C160.246 122.461 151.244 125.028 140.221 123.277C134.582 122.38 129.987 120.607 126.627 118.962V118.959Z" fill="#2B5CA4"/>
<path d="M145.449 86.707C149.436 87.8655 154.163 89.6204 159.19 92.3275C167.685 96.9052 173.702 102.416 177.604 106.651C189.166 103.871 196.986 93.0311 195.926 81.3945C194.847 69.5374 184.854 60.1643 172.734 59.7715C170.82 64.3804 166.591 72.6967 157.831 79.6142C153.349 83.1549 148.932 85.3393 145.446 86.707H145.449Z" fill="#D5D2D5"/>
</svg>
