<svg width="196" height="180" viewBox="0 0 196 180" fill="none" xmlns="http://www.w3.org/2000/svg">
<path d="M97.0359 111.925C111.327 111.925 122.912 100.644 122.912 86.7273C122.912 72.8108 111.327 61.5293 97.0359 61.5293C82.7449 61.5293 71.1597 72.8108 71.1597 86.7273C71.1597 100.644 82.7449 111.925 97.0359 111.925Z" fill="#DD9023"/>
<path d="M61.1608 58.0145C59.926 54.0274 58.7865 49.0887 58.2961 43.3696C57.4652 33.7007 58.8096 25.5923 60.2462 19.9647C51.4329 11.8221 37.8335 11.299 28.5008 18.6615C18.9922 26.1611 16.5718 39.7541 22.9907 50.129C27.9873 49.1687 37.4325 48.0855 48.2133 51.5809C53.7293 53.3672 58.0537 55.8537 61.1608 58.0145Z" fill="#96BA76"/>
<path d="M66.4544 118.959C64.5995 122.71 62.6871 127.415 61.2837 133C58.914 142.435 58.937 150.676 59.4489 156.473C49.467 163.138 36.0025 161.499 27.9991 152.737C19.8462 143.808 19.642 129.971 27.6253 120.718C32.3876 122.461 41.5097 125.028 52.6793 123.277C58.3935 122.38 63.0494 120.607 66.4544 118.962V118.959Z" fill="#96BA76"/>
<path d="M95.9925 49.8099C97.7051 46.0826 100.121 41.7154 103.546 37.1833C109.334 29.519 115.736 24.3918 120.559 21.1506C119.291 9.54102 109.346 0.518798 97.3955 0.021444C85.2196 -0.484292 74.3627 8.00984 72.3348 19.7424C76.7551 22.2068 84.6237 27.4094 90.4643 36.834C93.4526 41.6567 95.0755 46.239 95.9954 49.8071L95.9925 49.8099Z" fill="#CD9DC3"/>
<path d="M95.0857 129.506C93.6046 133.372 91.4641 137.926 88.3284 142.706C83.0233 150.788 76.9486 156.346 72.3348 159.898C74.3163 171.554 84.8022 180.094 96.7605 179.899C108.947 179.698 119.257 170.485 120.559 158.509C115.994 156.278 107.819 151.478 101.409 142.294C98.1288 137.593 96.2254 133.058 95.0886 129.506H95.0857Z" fill="#CD9DC3"/>
<path d="M51.1613 86.707C47.128 87.8655 42.3457 89.6204 37.2609 92.3275C28.6671 96.9053 22.5797 102.416 18.6329 106.651C6.93634 103.871 -0.974673 93.0311 0.0970291 81.3945C1.1889 69.5374 11.298 60.1643 23.5592 59.7715C25.4952 64.3804 29.7734 72.6967 38.6351 79.6142C43.1696 83.1549 47.6379 85.3393 51.1642 86.707H51.1613Z" fill="#CD9DC3"/>
<path d="M130.557 58.0145C131.774 54.0274 132.898 49.0887 133.381 43.3696C134.2 33.7007 132.875 25.5923 131.459 19.9647C140.148 11.8221 153.556 11.299 162.757 18.6615C172.131 26.1611 174.518 39.7541 168.189 50.129C163.263 49.1687 153.951 48.0855 143.322 51.5809C137.884 53.3672 133.62 55.8537 130.557 58.0145Z" fill="#96BA76"/>
<path d="M125.852 118.959C127.682 122.71 129.569 127.415 130.954 133C133.293 142.435 133.27 150.676 132.765 156.473C142.616 163.138 155.903 161.499 163.801 152.737C171.847 143.808 172.048 129.971 164.17 120.718C159.47 122.461 150.468 125.028 139.446 123.277C133.807 122.38 129.212 120.607 125.852 118.962V118.959Z" fill="#96BA76"/>
<path d="M144.673 86.707C148.66 87.8655 153.388 89.6204 158.414 92.3275C166.909 96.9052 172.926 102.416 176.828 106.651C188.39 103.871 196.21 93.0311 195.151 81.3945C194.071 69.5374 184.079 60.1643 171.958 59.7715C170.045 64.3804 165.816 72.6967 157.056 79.6142C152.573 83.1549 148.156 85.3393 144.671 86.707H144.673Z" fill="#CD9DC3"/>
</svg>
