<svg width="154" height="143" viewBox="0 0 154 143" fill="none" xmlns="http://www.w3.org/2000/svg">
<path d="M76.5371 88.5937C87.8091 88.5937 96.9468 79.6639 96.9468 68.6484C96.9468 57.6329 87.8091 48.7031 76.5371 48.7031C65.2652 48.7031 56.1274 57.6329 56.1274 68.6484C56.1274 79.6639 65.2652 88.5937 76.5371 88.5937Z" fill="#50A948"/>
<path d="M48.2404 45.921C47.2665 42.7651 46.3677 38.8559 45.9809 34.329C45.3256 26.6757 46.3859 20.2575 47.5191 15.8031C40.5676 9.35778 29.8412 8.94378 22.4801 14.7715C14.9802 20.7077 13.0711 31.4672 18.134 39.6794C22.0751 38.9192 29.5249 38.0618 38.0282 40.8286C42.3789 42.2426 45.7898 44.2107 48.2404 45.921Z" fill="#2B5CA4"/>
<path d="M52.4157 94.1611C50.9526 97.1301 49.4442 100.854 48.3373 105.275C46.4683 112.744 46.4864 119.267 46.8902 123.855C39.017 129.131 28.3969 127.833 22.0843 120.898C15.6537 113.83 15.4927 102.877 21.7894 95.5538C25.5457 96.9328 32.7407 98.965 41.5506 97.5792C46.0577 96.8692 49.73 95.4653 52.4157 94.1634V94.1611Z" fill="#2B5CA4"/>
<path d="M75.7136 39.4267C77.0644 36.4763 78.9696 33.0195 81.6711 29.4322C86.2368 23.3656 91.2863 19.3071 95.0899 16.7416C94.0905 7.55212 86.246 0.410651 76.8202 0.0169738C67.2165 -0.383338 58.6532 6.34013 57.0537 15.6269C60.5402 17.5776 66.7464 21.6957 71.3532 29.1557C73.7102 32.973 74.9903 36.6002 75.7159 39.4245L75.7136 39.4267Z" fill="#D5D2D5"/>
<path d="M74.9983 102.51C73.8302 105.57 72.1418 109.175 69.6686 112.959C65.4841 119.355 60.6928 123.755 57.0537 126.567C58.6166 135.793 66.8873 142.552 76.3194 142.398C85.9316 142.239 94.0632 134.947 95.0899 125.467C91.4896 123.701 85.0418 119.901 79.9859 112.632C77.3985 108.911 75.8973 105.322 75.0006 102.51H74.9983Z" fill="#D5D2D5"/>
<path d="M40.3532 68.6321C37.172 69.5492 33.3999 70.9382 29.3893 73.081C22.611 76.7045 17.8096 81.0661 14.6966 84.419C5.471 82.218 -0.768768 73.6379 0.0765312 64.427C0.937736 55.0417 8.91127 47.6224 18.5822 47.3115C20.1092 50.9596 23.4836 57.5424 30.4732 63.0179C34.0498 65.8205 37.5742 67.5495 40.3555 68.6321H40.3532Z" fill="#D5D2D5"/>
<path d="M102.977 45.921C103.937 42.7651 104.823 38.8559 105.204 34.329C105.85 26.6757 104.805 20.2575 103.688 15.8031C110.541 9.35779 121.117 8.94378 128.374 14.7715C135.768 20.7077 137.651 31.4672 132.659 39.6794C128.773 38.9192 121.429 38.0618 113.045 40.8286C108.756 42.2425 105.393 44.2107 102.977 45.921Z" fill="#2B5CA4"/>
<path d="M99.2651 94.1611C100.709 97.1301 102.197 100.854 103.29 105.275C105.134 112.744 105.116 119.267 104.718 123.855C112.488 129.131 122.968 127.833 129.197 120.898C135.543 113.83 135.702 102.877 129.488 95.5538C125.782 96.9328 118.681 98.965 109.987 97.5792C105.539 96.8692 101.915 95.4653 99.2651 94.1634V94.1611Z" fill="#2B5CA4"/>
<path d="M114.111 68.6321C117.255 69.5492 120.984 70.9382 124.949 73.081C131.649 76.7045 136.395 81.0661 139.472 84.419C148.592 82.218 154.76 73.6379 153.924 64.427C153.073 55.0417 145.191 47.6224 135.631 47.3115C134.122 50.9596 130.786 57.5424 123.877 63.0179C120.342 65.8205 116.858 67.5495 114.108 68.6321H114.111Z" fill="#D5D2D5"/>
</svg>
