<svg width="154" height="143" viewBox="0 0 154 143" fill="none" xmlns="http://www.w3.org/2000/svg">
<path d="M76.5367 88.5947C87.8086 88.5947 96.9464 79.6648 96.9464 68.6494C96.9464 57.6339 87.8086 48.7041 76.5367 48.7041C65.2647 48.7041 56.127 57.6339 56.127 68.6494C56.127 79.6648 65.2647 88.5947 76.5367 88.5947Z" fill="#191B16"/>
<path d="M48.241 45.9201C47.2671 42.7642 46.3683 38.8549 45.9814 34.3281C45.3261 26.6747 46.3865 20.2566 47.5197 15.8021C40.5682 9.35681 29.8417 8.94281 22.4806 14.7705C14.9807 20.7068 13.0716 31.4663 18.1345 39.6784C22.0756 38.9183 29.5254 38.0609 38.0287 40.8277C42.3794 42.2416 45.7903 44.2098 48.241 45.9201Z" fill="#DD9023"/>
<path d="M52.4157 94.1602C50.9527 97.1291 49.4443 100.853 48.3374 105.274C46.4683 112.743 46.4865 119.266 46.8902 123.854C39.017 129.13 28.3969 127.832 22.0843 120.897C15.6537 113.829 15.4927 102.876 21.7894 95.5528C25.5457 96.9318 32.7407 98.964 41.5507 97.5782C46.0577 96.8683 49.7301 95.4643 52.4157 94.1624V94.1602Z" fill="#DD9023"/>
<path d="M75.7146 39.4267C77.0654 36.4763 78.9706 33.0195 81.6722 29.4322C86.2379 23.3656 91.2873 19.3071 95.091 16.7416C94.0916 7.55213 86.247 0.410651 76.8212 0.0169738C67.2175 -0.383338 58.6542 6.34013 57.0547 15.6269C60.5412 17.5776 66.7474 21.6958 71.3542 29.1557C73.7112 32.9731 74.9913 36.6002 75.7169 39.4245L75.7146 39.4267Z" fill="#BA0930"/>
<path d="M74.9993 102.51C73.8312 105.57 72.1428 109.175 69.6696 112.959C65.4851 119.355 60.6938 123.755 57.0547 126.567C58.6176 135.793 66.8883 142.552 76.3204 142.398C85.9327 142.239 94.0642 134.947 95.091 125.467C91.4906 123.701 85.0428 119.901 79.9869 112.632C77.3996 108.911 75.8983 105.322 75.0016 102.51H74.9993Z" fill="#BA0930"/>
<path d="M40.3533 68.6331C37.172 69.5501 33.4 70.9392 29.3894 73.082C22.6111 76.7055 17.8097 81.0671 14.6966 84.42C5.47101 82.219 -0.768769 73.6389 0.0765313 64.428C0.937738 55.0427 8.91128 47.6234 18.5822 47.3125C20.1092 50.9606 23.4836 57.5433 30.4733 63.0189C34.0499 65.8215 37.5742 67.5505 40.3555 68.6331H40.3533Z" fill="#BA0930"/>
<path d="M102.976 45.9201C103.936 42.7642 104.822 38.8549 105.204 34.3281C105.85 26.6747 104.804 20.2566 103.687 15.8021C110.541 9.35681 121.116 8.9428 128.374 14.7705C135.768 20.7068 137.65 31.4663 132.659 39.6784C128.773 38.9183 121.428 38.0609 113.044 40.8277C108.755 42.2416 105.392 44.2098 102.976 45.9201Z" fill="#DD9023"/>
<path d="M99.2651 94.1602C100.709 97.1291 102.198 100.853 103.29 105.274C105.134 112.743 105.116 119.266 104.718 123.854C112.488 129.13 122.968 127.832 129.197 120.897C135.543 113.829 135.702 102.876 129.488 95.5528C125.782 96.9318 118.681 98.964 109.987 97.5782C105.539 96.8683 101.915 95.4643 99.2651 94.1624V94.1602Z" fill="#DD9023"/>
<path d="M114.111 68.6331C117.255 69.5501 120.984 70.9392 124.949 73.082C131.649 76.7055 136.395 81.0671 139.472 84.42C148.592 82.219 154.76 73.6389 153.924 64.428C153.073 55.0427 145.191 47.6234 135.631 47.3125C134.122 50.9606 130.786 57.5433 123.877 63.0189C120.342 65.8215 116.858 67.5505 114.108 68.6331H114.111Z" fill="#BA0930"/>
</svg>
