<?xml version="1.0" encoding="UTF-8"?><svg id="Layer_1" xmlns="http://www.w3.org/2000/svg" width="2500" height="1406.25" viewBox="0 0 2500 1406.25"><defs><style>.cls-1,.cls-2,.cls-3,.cls-4,.cls-5{stroke-miterlimit:10;stroke-width:2px;}.cls-1,.cls-2,.cls-3,.cls-4,.cls-6{opacity:.1;}.cls-1,.cls-2,.cls-3,.cls-5{fill:none;}.cls-1,.cls-4{stroke:#1d1d1b;}.cls-2{stroke:#020202;}.cls-3,.cls-5{stroke:#0c0d0d;}.cls-4{fill:#fff;}.cls-7{fill:#1d1d1b;}</style></defs><path class="cls-3" d="M843.68,673.15c-2.49-.93-5.92-2.59-9.06-5.65-5.74-5.58-6.89-12.79-9.1-25.66-1.18-6.88-2.15-14.56-2.91-27.84-1.42-24.64-.62-41.96-.36-46.95,.49-9.42,.72-14.13,1.46-19.11,.02-.13,.05-.32,.08-.56,2.52-16.74,6.44-42.63,21.2-48.08,7.25-2.67,14.89,.4,18.59,1.9,8.04,3.24,12.81,8.92,15.59,12.24,2.45,2.92,4.13,5.67,7.51,11.16,1.89,3.08,3.93,6.4,5.93,10.48,1.59,3.23,4.62,9.94,6.63,18.56,2.16,9.29,2.09,16.37,2,26.05-.05,4.98-.42,10.55-1.15,21.7-.15,2.27-.37,5.43-.74,9.45-.12,1.35-.57,6.07-1.03,9.74-.54,4.26-1.67,12.75-4.87,22.91-1.22,3.87-3.05,8.94-5.8,14.72-1.09,2.57-3.66,7.61-9.09,11.68-4.42,3.31-8.66,4.44-10,4.75-3.58,.85-6.61,.63-12.52,.17-3.09-.25-7.32-.71-12.34-1.66Z"/><path class="cls-1" d="M2289.67,1176.44c70.12,3.32,140.23,6.86,210.33,10.59"/><path class="cls-1" d="M475.68,1181.6c171.73-12.04,343.47-24.08,515.2-36.13l6.83-556.4h405.07l2.83,556.4c173.98,3.94,347.91,9.15,521.78,15.62,35.25,1.31,70.51,2.68,105.76,4.1"/><path class="cls-1" d="M0,1214.95l222.17-15.58"/><g class="cls-6"><path class="cls-5" d="M1200.71,459.12c-2.01-1.45-2.89-2.89-3.3-3.94-.39-1-.49-2.79-.74-6.36-.04-.55-.12-1.94-.7-3.68-.11-.33-.21-.6-.29-.78-.79-1.14-2.59-3.35-6-4.75-4.99-2.04-9.79-.88-11.18-.48,.54,.13,1.86,.52,2.83,1.63,1.43,1.64,1.01,3.52,.94,3.86-.05,1.26-.02,2.65,.13,4.14,.23,2.34,.69,4.4,1.18,6.14,.33,.63,2.47,4.43,6.94,5.97,.03,0,3.9,1.37,8.36-.32,.64-.24,1.11-.63,1.11-.63,.34-.28,.57-.58,.71-.8Z"/></g><g class="cls-6"><path class="cls-5" d="M1197.32,471.05c-2.5-.5-4.19-.07-5.24,.41-.99,.45-2.36,1.68-4.94,4.16-.39,.38-1.39,1.36-2.89,2.33-.29,.19-.53,.33-.69,.42-1.27,.41-3.82,1.07-6.99,.54-4.61-.76-7.63-3.49-8.55-4.36,.48,.09,1.7,.24,3.03-.31,1.97-.81,2.69-2.57,2.81-2.89,.66-1.09,1.47-2.26,2.45-3.47,1.54-1.88,3.18-3.41,4.68-4.61,.63-.34,5-2.48,9.89-.7,0,0,4.32,1.6,6.25,6.14,.28,.65,.3,1.27,.3,1.27,.02,.44-.05,.82-.12,1.07Z"/></g><g class="cls-6"><path class="cls-5" d="M1180.45,455.66c-1.75-1.77-2.39-3.32-2.63-4.43-.22-1.05-.04-2.82,.38-6.39,.06-.55,.24-1.94,0-3.75-.05-.35-.1-.63-.13-.82-.57-1.25-1.93-3.72-5.1-5.61-4.64-2.76-9.8-2.22-11.3-1.99,.52,.19,1.8,.75,2.56,1.98,1.12,1.82,.33,3.63,.2,3.95-.29,1.24-.51,2.62-.63,4.12-.18,2.34-.05,4.43,.18,6.21,.23,.67,1.84,4.66,6.12,6.83,.04,0,3.72,1.91,8.34,1,.67-.13,1.19-.44,1.19-.44,.37-.22,.64-.47,.82-.67Z"/></g><g class="cls-6"><path class="cls-5" d="M1174.97,466.79c-2.34-.89-4.05-.72-5.15-.41-1.04,.29-2.58,1.29-5.49,3.34-.45,.32-1.57,1.12-3.2,1.84-.31,.14-.57,.24-.75,.31-1.32,.21-3.93,.46-7.01-.54-4.48-1.45-7.06-4.58-7.83-5.58,.47,.16,1.66,.49,3.08,.15,2.1-.51,3.11-2.13,3.29-2.43,.84-.98,1.85-2.01,3.04-3.05,1.86-1.63,3.75-2.88,5.45-3.84,.69-.24,5.37-1.69,9.79,.84,0-.01,3.9,2.25,4.98,7.04,.16,.68,.08,1.3,.08,1.3-.05,.44-.18,.8-.29,1.04Z"/></g><g class="cls-6"><path class="cls-5" d="M1203.24,458.68c1.94-1.43,2.75-2.84,3.11-3.88,.34-.98,.36-2.73,.4-6.22,0-.54,.02-1.9,.49-3.64,.09-.33,.18-.6,.24-.78,.73-1.17,2.4-3.47,5.74-5.14,4.9-2.46,9.83-1.72,11.26-1.42-.54,.18-1.85,.7-2.77,1.91-1.35,1.8-.81,3.69-.72,4.03,.12,1.29,.16,2.72,.09,4.27-.11,2.42-.47,4.56-.88,6.36-.3,.65-2.28,4.62-6.69,6.15-.03,.01-3.85,1.33-8.38-.28-.66-.23-1.14-.6-1.14-.6-.35-.27-.59-.55-.75-.76Z"/></g><g class="cls-6"><path class="cls-5" d="M1207.33,470.74c2.46-.61,4.15-.27,5.22,.15,1.01,.4,2.44,1.52,5.12,3.88,.41,.36,1.45,1.29,3,2.21,.3,.18,.54,.31,.71,.4,1.29,.38,3.86,.97,7.01,.36,4.58-.89,7.47-3.84,8.35-4.79-.48,.11-1.69,.33-3.05-.19-2.01-.76-2.82-2.52-2.96-2.84-.72-1.08-1.59-2.23-2.64-3.4-1.65-1.82-3.36-3.25-4.94-4.36-.65-.31-5.13-2.12-9.88-.02,0-.01-4.2,1.87-5.87,6.33-.24,.64-.24,1.23-.24,1.23,0,.43,.09,.78,.17,1.02Z"/></g><g class="cls-6"><path class="cls-5" d="M1223.29,454.13c1.67-1.7,2.24-3.22,2.42-4.3,.17-1.02-.1-2.75-.72-6.19-.09-.53-.35-1.87-.22-3.64,.03-.34,.06-.62,.08-.8,.5-1.26,1.71-3.76,4.78-5.9,4.5-3.15,9.79-3.14,11.34-3.03-.52,.25-1.78,.94-2.48,2.27-1.03,1.96-.11,3.75,.04,4.08,.36,1.26,.67,2.67,.87,4.21,.31,2.41,.28,4.59,.13,6.44-.2,.69-1.66,4.91-5.85,7.04-.04,.02-3.64,1.85-8.32,.9-.68-.13-1.21-.43-1.21-.43-.39-.21-.67-.46-.86-.64Z"/></g><g class="cls-6"><path class="cls-5" d="M1229.42,465.28c2.28-.96,3.99-.88,5.1-.62,1.05,.24,2.63,1.14,5.63,3.06,.46,.3,1.62,1.06,3.28,1.73,.32,.13,.58,.23,.76,.29,1.32,.17,3.95,.36,6.98-.75,4.41-1.61,6.85-4.99,7.57-6.07-.46,.19-1.64,.59-3.08,.31-2.13-.42-3.23-2.03-3.42-2.33-.9-.95-1.96-1.95-3.21-2.93-1.95-1.53-3.91-2.67-5.66-3.51-.7-.2-5.45-1.29-9.7,1.48,0,0-3.74,2.46-4.57,7.1-.12,.66-.02,1.25-.02,1.25,.08,.42,.22,.76,.34,.99Z"/></g><g class="cls-6"><path class="cls-5" d="M1199.19,456.85c-2.01-1.45-2.89-2.89-3.3-3.94-.39-1-.5-2.79-.74-6.36-.04-.55-.12-1.94-.7-3.68-.11-.33-.21-.6-.29-.78-.79-1.14-2.59-3.35-6-4.75-4.99-2.04-9.79-.88-11.18-.48,.54,.13,1.86,.52,2.83,1.63,1.43,1.64,1.01,3.52,.94,3.86-.05,1.26-.02,2.65,.13,4.14,.23,2.34,.69,4.4,1.18,6.14,.33,.63,2.47,4.43,6.94,5.97,.03,0,3.9,1.37,8.36-.32,.64-.24,1.11-.63,1.11-.63,.34-.28,.57-.58,.71-.8Z"/></g><g class="cls-6"><path class="cls-5" d="M1195.79,468.78c-2.5-.5-4.19-.07-5.24,.41-.99,.45-2.36,1.68-4.94,4.16-.39,.38-1.39,1.36-2.89,2.33-.29,.19-.53,.33-.69,.42-1.27,.41-3.82,1.07-6.99,.54-4.61-.76-7.63-3.49-8.55-4.36,.48,.09,1.7,.24,3.03-.31,1.97-.81,2.69-2.57,2.81-2.89,.66-1.09,1.47-2.26,2.45-3.47,1.54-1.88,3.18-3.41,4.68-4.61,.63-.34,5-2.48,9.89-.7,0,0,4.32,1.6,6.25,6.14,.28,.65,.3,1.27,.3,1.27,.02,.44-.05,.82-.12,1.07Z"/></g><g class="cls-6"><path class="cls-5" d="M1178.92,453.39c-1.75-1.77-2.39-3.32-2.63-4.43-.22-1.05-.04-2.82,.38-6.39,.06-.55,.24-1.94,0-3.75-.05-.35-.1-.63-.13-.82-.57-1.25-1.93-3.72-5.1-5.61-4.64-2.76-9.8-2.22-11.3-1.99,.52,.19,1.8,.75,2.56,1.98,1.12,1.82,.33,3.63,.2,3.95-.29,1.24-.51,2.62-.63,4.12-.18,2.34-.05,4.43,.18,6.21,.23,.67,1.84,4.66,6.12,6.83,.04,0,3.72,1.91,8.34,1,.67-.13,1.19-.44,1.19-.44,.37-.22,.64-.47,.82-.67Z"/></g><g class="cls-6"><path class="cls-5" d="M1173.44,464.52c-2.34-.89-4.05-.72-5.15-.41-1.04,.29-2.58,1.29-5.49,3.34-.45,.32-1.57,1.12-3.2,1.84-.31,.14-.57,.24-.75,.31-1.32,.21-3.93,.46-7.01-.54-4.48-1.45-7.06-4.58-7.83-5.58,.47,.16,1.66,.49,3.08,.15,2.1-.51,3.11-2.13,3.29-2.43,.84-.98,1.85-2.01,3.04-3.05,1.86-1.63,3.75-2.88,5.45-3.84,.69-.24,5.37-1.69,9.79,.84,0-.01,3.9,2.25,4.98,7.04,.16,.68,.08,1.3,.08,1.3-.05,.44-.18,.8-.29,1.04Z"/></g><g class="cls-6"><path class="cls-5" d="M1201.71,456.42c1.94-1.43,2.75-2.84,3.11-3.88,.34-.98,.36-2.73,.4-6.22,0-.54,.02-1.9,.49-3.64,.09-.33,.18-.6,.24-.78,.73-1.17,2.4-3.47,5.74-5.14,4.9-2.46,9.83-1.72,11.26-1.42-.54,.18-1.85,.7-2.77,1.91-1.35,1.8-.81,3.69-.72,4.03,.12,1.29,.16,2.72,.09,4.27-.11,2.42-.47,4.56-.88,6.36-.3,.65-2.28,4.62-6.69,6.15-.03,.01-3.85,1.33-8.38-.28-.66-.23-1.14-.6-1.14-.6-.35-.27-.59-.55-.75-.76Z"/></g><g class="cls-6"><path class="cls-5" d="M1205.81,468.48c2.46-.61,4.16-.27,5.22,.15,1.01,.4,2.44,1.52,5.12,3.88,.41,.36,1.45,1.29,3,2.21,.3,.18,.54,.31,.71,.4,1.29,.38,3.86,.97,7.01,.36,4.57-.89,7.47-3.84,8.35-4.79-.48,.11-1.69,.33-3.05-.19-2.01-.76-2.82-2.52-2.96-2.84-.72-1.08-1.59-2.23-2.64-3.4-1.65-1.82-3.36-3.25-4.94-4.36-.65-.31-5.13-2.12-9.88-.02,0-.01-4.2,1.87-5.87,6.33-.24,.64-.24,1.23-.24,1.23,0,.43,.09,.78,.17,1.02Z"/></g><g class="cls-6"><path class="cls-5" d="M1221.76,451.87c1.67-1.7,2.24-3.22,2.42-4.3,.17-1.02-.1-2.75-.72-6.19-.09-.53-.35-1.87-.22-3.64,.03-.34,.06-.62,.08-.8,.5-1.26,1.71-3.76,4.78-5.9,4.5-3.15,9.79-3.14,11.34-3.03-.52,.25-1.78,.94-2.48,2.27-1.03,1.96-.11,3.75,.04,4.08,.37,1.26,.67,2.67,.87,4.21,.31,2.41,.28,4.59,.13,6.44-.2,.69-1.66,4.91-5.85,7.04-.04,.02-3.64,1.85-8.32,.9-.68-.13-1.21-.43-1.21-.43-.39-.21-.67-.46-.86-.64Z"/></g><g class="cls-6"><path class="cls-5" d="M1227.9,463.02c2.28-.96,3.99-.88,5.1-.62,1.05,.24,2.63,1.14,5.63,3.06,.46,.3,1.62,1.06,3.28,1.73,.32,.13,.58,.23,.76,.29,1.32,.17,3.95,.36,6.98-.75,4.41-1.61,6.85-4.99,7.57-6.07-.46,.19-1.64,.59-3.08,.31-2.13-.42-3.23-2.03-3.42-2.33-.9-.95-1.96-1.95-3.21-2.93-1.95-1.53-3.91-2.67-5.66-3.51-.7-.2-5.45-1.29-9.7,1.48,0,0-3.74,2.45-4.57,7.1-.12,.66-.02,1.25-.02,1.25,.08,.42,.22,.76,.34,.99Z"/></g><path class="cls-3" d="M992.21,579.33h412.43"/><path class="cls-3" d="M2290.97,1168.93c69.68,2.38,139.35,4.75,209.03,7.13"/><path class="cls-3" d="M984.01,1141.04l1.32-561.71c1.41-83.18,1.36-131.2,1.03-160.03-.15-12.51-.74-55.27,.7-112.52,.08-3.07,.14-5.58,.19-7.18,.31-1.43,.82-3.6,1.58-6.2,7.87-27.01,26.09-43.76,41.53-57.62,11-9.87,26.91-21.98,48.07-32.02,2.84-1.35,12.41-5.81,30.1-11.48,8.54-2.73,41.38-12.92,69.99-15.7,71.24-6.91,135.64,30.22,138.85,32.12,18.48,10.94,58.73,34.84,81.31,81.56,2.46,5.09,4.22,9.44,5.36,12.42,.68,3.06,1.8,8.33,2.88,14.91,3.23,19.73,2.99,32.12,4.74,69.33,.59,12.5,.59,10.54,.85,16.84,1.56,37.65-.6,76.08-.6,76.08-1.05,19.05-1.88,49.71-.62,99.47l1.79,559.65c206.69,7.05,413.38,14.1,620.06,21.15"/><path class="cls-3" d="M993.47,395.3l94.92-.37c62.08,.24,124.16,.49,186.24,.73,43.02-.12,86.03-.24,129.05-.37"/><path class="cls-3" d="M1105.95,395.67l-.74-44.84c.49-29.33,.99-58.65,1.48-87.98-.25-20.32-.49-40.64-.74-60.96"/><path class="cls-3" d="M1285.2,395.67l-.74-45.19c-.6-36.57,1.25-53.37,1.48-88.66,.09-13.42,.05-33.83-.71-59.07"/><path class="cls-3" d="M991.99,579.33c1.36-81.46,1.32-128.49,1-156.72-.14-12.26-.71-54.13,.68-110.19,.07-3.01,.14-5.46,.18-7.03,.3-1.4,.79-3.53,1.52-6.07,7.61-26.45,25.23-42.86,40.17-56.43,10.64-9.67,26.03-21.52,46.49-31.36,2.75-1.32,12.01-5.69,29.12-11.24,8.26-2.68,40.02-12.65,67.7-15.37,68.91-6.77,131.2,29.59,134.31,31.46,17.87,10.71,56.81,34.12,78.65,79.87,2.38,4.99,4.08,9.24,5.18,12.16,.66,3,1.74,8.15,2.78,14.61,3.13,19.32,2.89,31.45,4.59,67.9,.57,12.24,.57,10.32,.82,16.49,1.47,36.13-.08,64.38-.58,74.51-1.06,21.49-1.86,53.25-.6,97.42h-412.02Z"/><path class="cls-3" d="M993.47,398.75l95.06-.71c62.17,.48,124.34,.95,186.51,1.43,43.08-.24,86.16-.47,129.24-.71"/><path class="cls-3" d="M1108.84,394.94l-.72-44.86c.48-29.34,.96-58.68,1.43-88.02-.24-20.33-.48-40.66-.72-60.99"/><path class="cls-3" d="M1284.38,394.81l-.72-45.35c-.58-36.7,1.21-53.57,1.43-88.98,.09-13.47,.05-33.95-.69-59.29"/><path class="cls-3" d="M207.02,379.79l90.48-.37c59.18,.24,118.36,.49,177.54,.73,41.01-.12,82.01-.24,123.02-.37"/><path class="cls-3" d="M308.86,702.82l-.74-116.24c.49-76.02,.99-152.05,1.48-228.07-.25-52.68-.49-105.35-.74-158.03"/><path class="cls-3" d="M488.11,702.82l-.74-118.9c-.6-96.22,1.25-140.43,1.48-233.29,.09-35.32,.05-89-.71-155.43"/><path class="cls-3" d="M207.02,383.23l90.62-.71c59.27,.48,118.53,.95,177.8,1.43,41.07-.24,82.13-.47,123.2-.71"/><path class="cls-3" d="M208.65,536.29l90.18-.37c58.98,.24,117.96,.49,176.94,.73,40.87-.12,81.73-.24,122.6-.37"/><path class="cls-3" d="M208.65,539.73l90.01-.71c58.87,.48,117.74,.95,176.62,1.43,40.79-.24,81.59-.47,122.38-.71"/><path class="cls-3" d="M311.75,700.92l-.72-116.29c.48-76.06,.96-152.12,1.43-228.18-.24-52.7-.48-105.4-.72-158.1"/><path class="cls-3" d="M491.87,700.59l-.72-117.57c-.58-95.14,1.21-138.86,1.43-230.67,.09-34.93,.05-88.01-.69-153.69"/><g class="cls-6"><g><path class="cls-7" d="M1140.81,514.46c-.47,.03-.93,.06-1.4,.09-4.8-5.87-9.72-11.69-14.73-17.44,.63,6.12,1.27,12.25,1.9,18.37-.47,.04-.93,.07-1.4,.11-.72-6.83-1.44-13.67-2.16-20.5,.48-.04,.96-.08,1.44-.12,5.03,5.73,9.95,11.52,14.77,17.37-.52-6.13-1.05-12.27-1.57-18.4,.48-.03,.96-.07,1.44-.1,.57,6.87,1.15,13.75,1.72,20.62Z"/><path class="cls-7" d="M1162.59,495.46c.98,.89,1.76,1.96,2.32,3.21,.56,1.25,.87,2.62,.94,4.11,.1,2.04-.28,3.89-1.12,5.54-.84,1.66-2.05,2.97-3.62,3.94-1.58,.97-3.37,1.5-5.38,1.6-1.39,.07-2.71-.08-3.96-.45-1.25-.37-2.37-.94-3.37-1.71-.7,.81-1.39,1.62-2.08,2.43-.44,.03-.87,.05-1.31,.08,.88-1.04,1.76-2.08,2.65-3.12-.97-.89-1.74-1.94-2.33-3.16-.59-1.22-.94-2.56-1.05-4.03-.16-2.04,.17-3.89,.98-5.55,.81-1.66,2.02-2.99,3.62-3.98,1.6-.99,3.45-1.55,5.52-1.66,1.43-.08,2.78,.07,4.05,.44,1.26,.37,2.41,.94,3.43,1.71,.73-.82,1.46-1.63,2.19-2.45,.45-.02,.9-.04,1.35-.06-.95,1.04-1.89,2.08-2.83,3.13Zm-14.08,14.63c4.08-4.77,8.25-9.54,12.5-14.29-.87-.71-1.87-1.23-2.99-1.56-1.12-.33-2.3-.46-3.54-.39-1.77,.1-3.35,.57-4.72,1.42-1.38,.85-2.43,2.01-3.15,3.48-.72,1.47-1.01,3.15-.87,5.06,.2,2.59,1.12,4.69,2.77,6.29Zm13.24-13.67c-4.26,4.76-8.44,9.53-12.53,14.31,.87,.68,1.85,1.19,2.95,1.53,1.1,.34,2.26,.47,3.49,.41,1.73-.09,3.26-.54,4.62-1.37,1.35-.83,2.4-1.98,3.13-3.43,.73-1.46,1.06-3.13,.96-5.03-.13-2.61-1-4.75-2.62-6.42Z"/><path class="cls-7" d="M1182.41,512.68c-1.95-2.93-3.92-5.85-5.91-8.76h-.13c-1.58,.05-3.16,.1-4.74,.16l.35,8.89c-.47,.01-.94,.03-1.4,.05-.29-6.95-.58-13.9-.87-20.85,2.06-.08,4.13-.15,6.19-.22,2.5-.08,4.4,.41,5.68,1.47,1.28,1.06,1.93,2.5,1.97,4.31,.04,1.61-.41,2.95-1.35,4.01-.93,1.07-2.31,1.74-4.14,2.03,2.03,2.95,4.04,5.92,6.02,8.89-.56,.01-1.12,.02-1.68,.03Zm-10.82-9.74c1.58-.05,3.16-.11,4.74-.15,1.96-.06,3.41-.54,4.36-1.46,.95-.92,1.41-2.11,1.37-3.58-.08-3.2-2.12-4.75-6.11-4.62-1.58,.05-3.16,.11-4.74,.16,.13,3.22,.26,6.44,.38,9.66Z"/><path class="cls-7" d="M1199.92,512.47c-1.88-2.98-3.77-5.95-5.7-8.91h-.13c-1.58,.02-3.16,.04-4.74,.07,.05,2.98,.09,5.95,.14,8.93-.47,0-.94,.01-1.4,.02-.12-6.99-.24-13.97-.36-20.96,2.07-.04,4.13-.08,6.2-.11,2.5-.04,4.39,.49,5.64,1.58,1.25,1.09,1.87,2.54,1.87,4.36,0,1.62-.49,2.95-1.45,4.01-.96,1.05-2.35,1.71-4.19,1.96,1.96,3,3.89,6.02,5.8,9.04-.56,0-1.12,0-1.69,0Zm-10.58-9.98c1.58-.03,3.16-.05,4.75-.07,1.96-.02,3.42-.48,4.39-1.39,.97-.91,1.46-2.1,1.46-3.57,0-3.21-2-4.81-6-4.76-1.58,.02-3.16,.05-4.75,.08,.05,3.24,.1,6.47,.15,9.71Z"/><path class="cls-7" d="M1207.18,492.54c-.03,2.93-.05,5.86-.08,8.79,2.96,0,5.92,.02,8.87,.05,0,.38-.02,.76-.02,1.14-2.95-.03-5.91-.05-8.86-.05-.03,2.95-.05,5.9-.08,8.85,3.23,.01,6.46,.04,9.69,.09,0,.38-.02,.76-.03,1.14-3.69-.05-7.39-.08-11.08-.09,.05-7.02,.1-14.04,.14-21.06,3.8,0,7.6,0,11.4,.04,0,.38-.02,.76-.03,1.14-3.31-.03-6.63-.04-9.94-.04Z"/><path class="cls-7" d="M1233.99,503.8c.83,1.01,1.21,2.18,1.15,3.51-.05,1.09-.36,2.05-.94,2.89-.57,.84-1.39,1.49-2.47,1.95-1.07,.46-2.36,.67-3.85,.63-2.32-.06-4.64-.11-6.96-.15,.2-7.05,.39-14.09,.59-21.14,2.34,.03,4.69,.07,7.03,.12,2.25,.05,3.93,.58,5.03,1.58,1.1,1.01,1.61,2.29,1.54,3.84-.06,1.35-.5,2.43-1.29,3.24-.8,.81-1.8,1.36-2.99,1.63,1.28,.25,2.34,.89,3.16,1.9Zm-11.32-2.68c1.86,.03,3.72,.07,5.58,.11,1.67,.04,2.97-.31,3.9-1.04,.93-.73,1.43-1.76,1.49-3.09,.06-1.29-.34-2.32-1.21-3.08-.86-.77-2.21-1.17-4.02-1.21-1.83-.04-3.66-.07-5.48-.1-.08,2.8-.17,5.6-.25,8.4Zm9.39,9.38c1.05-.79,1.61-1.89,1.67-3.32,.06-1.41-.41-2.55-1.41-3.41-1.01-.86-2.42-1.32-4.23-1.36-1.81-.04-3.63-.08-5.44-.11-.09,3.06-.18,6.12-.27,9.19,1.82,.04,3.65,.08,5.47,.12,1.77,.04,3.18-.32,4.23-1.11Z"/><path class="cls-7" d="M1250.81,513.65c-1.66-3.11-3.35-6.22-5.06-9.31h-.13c-1.58-.07-3.16-.13-4.74-.19-.16,3.01-.33,6.03-.49,9.04-.47-.02-.94-.04-1.4-.05,.37-7.07,.74-14.15,1.12-21.22,2.07,.07,4.13,.14,6.2,.22,2.5,.1,4.35,.73,5.52,1.9,1.17,1.17,1.69,2.67,1.56,4.51-.12,1.64-.69,2.96-1.73,3.98-1.03,1.02-2.47,1.6-4.32,1.77,1.74,3.14,3.46,6.29,5.16,9.45-.56-.03-1.12-.06-1.68-.08Zm-9.86-10.65c1.58,.06,3.16,.12,4.74,.18,1.96,.08,3.45-.31,4.49-1.17,1.03-.87,1.6-2.04,1.71-3.54,.23-3.25-1.66-4.97-5.66-5.13-1.58-.06-3.16-.12-4.74-.17-.18,3.28-.36,6.55-.54,9.83Z"/><path class="cls-7" d="M1260.88,513.05c-1.55-1.02-2.72-2.38-3.51-4.09-.79-1.71-1.11-3.6-.96-5.69,.16-2.1,.76-3.95,1.83-5.55,1.06-1.6,2.46-2.82,4.21-3.65,1.74-.83,3.66-1.18,5.73-1.06,2.08,.13,3.9,.71,5.48,1.74,1.58,1.03,2.75,2.41,3.51,4.13,.76,1.72,1.03,3.64,.81,5.75-.22,2.09-.88,3.93-1.97,5.53-1.09,1.6-2.49,2.8-4.2,3.6-1.71,.81-3.57,1.14-5.59,1.01-2.01-.13-3.79-.71-5.34-1.72Zm10.24-.36c1.47-.69,2.68-1.74,3.64-3.14,.95-1.4,1.53-3.08,1.73-5.02,.2-1.97-.03-3.71-.7-5.23-.67-1.52-1.68-2.72-3.03-3.6-1.35-.88-2.92-1.38-4.69-1.49-1.77-.11-3.41,.2-4.91,.9-1.49,.71-2.71,1.77-3.66,3.18-.94,1.41-1.49,3.1-1.64,5.06-.15,1.94,.13,3.66,.83,5.16,.7,1.5,1.72,2.69,3.05,3.56,1.33,.87,2.86,1.37,4.58,1.48,1.73,.11,3.32-.18,4.79-.87Z"/><path class="cls-7" d="M1150.14,540.47c.9,.92,1.4,2.03,1.49,3.33,.08,1.06-.11,2.02-.56,2.88-.45,.86-1.15,1.55-2.11,2.08-.96,.53-2.15,.83-3.58,.91-2.2,.12-4.41,.24-6.61,.37-.62-6.87-1.25-13.74-1.87-20.61,2.23-.15,4.46-.29,6.69-.42,2.14-.13,3.79,.26,4.95,1.16,1.16,.9,1.79,2.1,1.9,3.62,.09,1.32-.19,2.4-.86,3.25-.66,.85-1.55,1.46-2.65,1.81,1.24,.15,2.31,.69,3.21,1.61Zm-11.03-1.75c1.77-.11,3.53-.21,5.3-.31,1.59-.09,2.78-.52,3.58-1.3,.8-.78,1.15-1.82,1.06-3.12-.09-1.26-.59-2.23-1.5-2.91-.91-.68-2.23-.97-3.95-.87-1.74,.1-3.47,.21-5.21,.32,.24,2.73,.48,5.46,.73,8.19Zm9.97,8.42c.9-.84,1.3-1.96,1.2-3.36-.1-1.38-.67-2.45-1.73-3.21-1.05-.76-2.44-1.1-4.17-1-1.72,.1-3.45,.2-5.17,.3,.26,2.99,.53,5.97,.8,8.96,1.73-.1,3.46-.2,5.2-.29,1.68-.09,2.97-.55,3.87-1.4Z"/><path class="cls-7" d="M1167.18,548.78c-1.92-2.9-3.87-5.8-5.84-8.68h-.12c-1.5,.06-3,.12-4.51,.18,.19,2.95,.37,5.89,.56,8.84-.44,.02-.89,.04-1.33,.05-.45-6.91-.9-13.83-1.35-20.74,1.97-.09,3.93-.18,5.9-.26,2.38-.1,4.2,.38,5.44,1.43,1.24,1.05,1.9,2.47,1.99,4.27,.07,1.6-.32,2.94-1.19,4-.86,1.07-2.16,1.75-3.89,2.05,2.01,2.93,3.99,5.86,5.95,8.81-.53,.01-1.07,.03-1.6,.05Zm-10.54-9.62c1.5-.06,3.01-.12,4.51-.18,1.87-.07,3.24-.56,4.11-1.48,.88-.92,1.29-2.11,1.21-3.57-.15-3.18-2.13-4.71-5.94-4.56-1.5,.06-3.01,.13-4.51,.19,.2,3.2,.41,6.4,.61,9.61Z"/><path class="cls-7" d="M1184.96,527.49c-2.16,4.19-4.28,8.38-6.36,12.57,.09,2.82,.18,5.64,.27,8.45-.45,0-.89,.01-1.34,.02-.09-2.82-.19-5.63-.28-8.45-2.37-4.1-4.78-8.18-7.23-12.25,.52-.02,1.04-.03,1.56-.05,2.13,3.67,4.23,7.34,6.29,11.04,1.81-3.77,3.66-7.54,5.53-11.31,.52,0,1.04-.02,1.56-.02Z"/><path class="cls-7" d="M1205.85,533.62c-.59-1.59-1.59-2.85-3-3.8-1.41-.95-3.08-1.42-5.02-1.42-1.69,0-3.21,.4-4.57,1.18-1.35,.78-2.41,1.9-3.18,3.34-.77,1.44-1.13,3.12-1.1,5.03,.03,1.91,.45,3.58,1.25,5.01,.8,1.43,1.87,2.53,3.2,3.29,1.34,.77,2.82,1.15,4.47,1.16,1.58,0,3.02-.34,4.31-1.05,1.29-.71,2.33-1.72,3.11-3.04,.79-1.32,1.23-2.87,1.33-4.65-3.14-.03-6.28-.05-9.42-.06,0-.38,0-.76,0-1.14,3.61,0,7.21,.03,10.82,.07,0,.3,0,.6,0,.9-.08,1.96-.57,3.72-1.46,5.26-.89,1.55-2.09,2.76-3.6,3.62-1.51,.87-3.2,1.29-5.08,1.28-1.92,0-3.65-.46-5.21-1.37-1.56-.9-2.79-2.16-3.69-3.78-.9-1.62-1.38-3.45-1.42-5.5-.04-2.07,.37-3.92,1.23-5.55,.86-1.63,2.08-2.91,3.66-3.82,1.58-.92,3.36-1.38,5.34-1.38,2.3,0,4.3,.57,5.97,1.7,1.67,1.14,2.88,2.72,3.63,4.72-.53,0-1.05-.01-1.58-.02Z"/><path class="cls-7" d="M1227.6,527.81l-.8,21.17c-.44-.02-.89-.03-1.33-.05,.12-3.42,.25-6.83,.37-10.25-4.11-.13-8.23-.23-12.34-.31l-.19,10.22c-.44,0-.89-.02-1.33-.03,.12-7.03,.23-14.06,.35-21.1,.46,0,.92,.01,1.38,.02-.06,3.25-.12,6.49-.18,9.74,4.12,.07,8.24,.18,12.36,.3,.12-3.26,.23-6.51,.35-9.77,.46,.01,.92,.03,1.37,.04Z"/><path class="cls-7" d="M1233.89,528.02c-.21,4.42-.41,8.84-.62,13.26-.11,2.4,.35,4.17,1.36,5.34,1.02,1.16,2.44,1.79,4.28,1.88,1.82,.09,3.28-.39,4.4-1.44,1.12-1.05,1.76-2.79,1.91-5.21,.28-4.43,.56-8.86,.85-13.29,.46,.02,.92,.05,1.37,.07-.29,4.42-.58,8.84-.87,13.27-.18,2.77-.97,4.79-2.37,6.07-1.39,1.28-3.18,1.86-5.37,1.76-2.19-.11-3.92-.87-5.19-2.28-1.27-1.42-1.85-3.49-1.73-6.23,.2-4.41,.39-8.82,.59-13.23,.46,.02,.92,.03,1.38,.05Z"/><path class="cls-7" d="M1253.33,549.8c-.97-.55-1.71-1.26-2.21-2.12-.5-.86-.76-1.8-.77-2.82,.47,.03,.94,.06,1.4,.08,.08,1.12,.52,2.14,1.31,3.07,.8,.92,2.07,1.44,3.83,1.56,1.03,.07,1.94-.06,2.73-.39,.79-.33,1.43-.81,1.9-1.45,.47-.64,.75-1.36,.82-2.17,.09-1.03-.08-1.87-.52-2.51-.44-.64-1.01-1.14-1.71-1.49-.7-.35-1.66-.74-2.88-1.17-1.33-.45-2.4-.89-3.21-1.3-.81-.42-1.47-1.02-1.98-1.81-.52-.79-.73-1.84-.64-3.16,.07-1.01,.41-1.92,1.01-2.73,.6-.81,1.41-1.43,2.45-1.85,1.03-.43,2.2-.6,3.51-.52,1.89,.12,3.38,.68,4.46,1.69,1.08,1.01,1.66,2.2,1.76,3.58-.48-.03-.97-.07-1.45-.1-.07-.56-.29-1.13-.66-1.73-.37-.59-.91-1.11-1.64-1.53-.73-.42-1.62-.67-2.68-.74-1.42-.09-2.65,.23-3.69,.95-1.03,.72-1.59,1.73-1.69,3.02-.08,1.03,.12,1.87,.57,2.52,.46,.65,1.04,1.15,1.75,1.51,.71,.36,1.67,.74,2.89,1.15,1.35,.48,2.42,.92,3.2,1.33,.78,.41,1.42,1.02,1.92,1.82,.5,.8,.69,1.85,.58,3.15-.09,.95-.42,1.83-.99,2.65-.57,.81-1.36,1.45-2.36,1.92-1.01,.47-2.19,.65-3.55,.56-1.34-.09-2.5-.41-3.47-.96Z"/></g></g><g class="cls-6"><g><path class="cls-7" d="M1143.59,516.79c-.47,.03-.93,.06-1.4,.09-4.8-5.87-9.72-11.69-14.73-17.44,.63,6.12,1.27,12.25,1.9,18.37-.47,.04-.93,.07-1.4,.11-.72-6.83-1.44-13.67-2.16-20.5,.48-.04,.96-.08,1.44-.12,5.03,5.73,9.95,11.52,14.77,17.37-.52-6.13-1.05-12.27-1.57-18.4,.48-.03,.96-.07,1.44-.1,.57,6.87,1.15,13.75,1.72,20.62Z"/><path class="cls-7" d="M1165.37,497.78c.99,.89,1.76,1.96,2.32,3.21,.56,1.25,.87,2.62,.94,4.11,.1,2.04-.28,3.89-1.12,5.54-.84,1.66-2.05,2.97-3.62,3.94-1.58,.97-3.37,1.5-5.38,1.6-1.39,.07-2.71-.08-3.96-.45-1.25-.37-2.37-.94-3.37-1.71-.7,.81-1.39,1.62-2.08,2.43-.44,.03-.87,.05-1.31,.08,.88-1.04,1.76-2.08,2.65-3.12-.97-.89-1.74-1.94-2.33-3.16-.59-1.22-.94-2.56-1.05-4.03-.16-2.04,.17-3.89,.98-5.55,.81-1.66,2.02-2.99,3.62-3.98,1.6-.99,3.44-1.55,5.52-1.66,1.43-.08,2.78,.07,4.05,.44,1.26,.37,2.41,.94,3.43,1.71,.73-.82,1.46-1.63,2.19-2.45,.45-.02,.9-.04,1.35-.06-.95,1.04-1.89,2.08-2.83,3.13Zm-14.08,14.63c4.08-4.77,8.25-9.54,12.5-14.29-.87-.71-1.87-1.23-2.99-1.56s-2.3-.46-3.54-.39c-1.77,.1-3.35,.57-4.72,1.42-1.38,.85-2.43,2.01-3.15,3.48-.72,1.47-1.01,3.15-.87,5.06,.2,2.59,1.12,4.69,2.77,6.29Zm13.24-13.67c-4.26,4.76-8.44,9.53-12.53,14.31,.87,.68,1.85,1.19,2.95,1.53,1.1,.34,2.26,.47,3.49,.41,1.73-.08,3.27-.54,4.62-1.37,1.35-.83,2.4-1.97,3.13-3.43,.73-1.46,1.06-3.13,.96-5.03-.13-2.61-1-4.75-2.62-6.42Z"/><path class="cls-7" d="M1185.19,515c-1.95-2.93-3.92-5.85-5.91-8.76h-.13c-1.58,.05-3.16,.1-4.74,.16,.12,2.96,.23,5.92,.35,8.89-.47,.01-.94,.03-1.4,.05-.29-6.95-.58-13.9-.87-20.85,2.06-.08,4.13-.15,6.19-.22,2.5-.08,4.4,.41,5.68,1.47,1.28,1.06,1.93,2.5,1.97,4.31,.04,1.61-.41,2.95-1.35,4.01-.94,1.07-2.31,1.74-4.14,2.03,2.03,2.95,4.04,5.92,6.02,8.89-.56,.01-1.12,.02-1.68,.03Zm-10.82-9.74c1.58-.05,3.16-.11,4.74-.15,1.96-.06,3.41-.54,4.36-1.46,.95-.92,1.41-2.11,1.37-3.58-.08-3.2-2.12-4.75-6.11-4.62-1.58,.05-3.16,.11-4.74,.16,.13,3.22,.26,6.44,.38,9.66Z"/><path class="cls-7" d="M1202.7,514.79c-1.88-2.98-3.77-5.95-5.7-8.91h-.13c-1.58,.02-3.16,.04-4.74,.07,.05,2.98,.09,5.95,.14,8.93-.47,0-.94,.01-1.4,.02-.12-6.99-.24-13.97-.36-20.96,2.07-.04,4.13-.08,6.2-.11,2.51-.04,4.39,.49,5.64,1.58,1.25,1.09,1.87,2.54,1.87,4.36,0,1.62-.49,2.95-1.45,4.01-.96,1.05-2.35,1.71-4.19,1.96,1.96,3,3.89,6.02,5.8,9.04-.56,0-1.12,0-1.69,0Zm-10.58-9.98c1.58-.03,3.16-.05,4.75-.07,1.96-.02,3.42-.48,4.39-1.39,.97-.91,1.46-2.1,1.46-3.57,0-3.21-2-4.81-6-4.76-1.58,.02-3.16,.05-4.75,.08,.05,3.24,.1,6.47,.15,9.71Z"/><path class="cls-7" d="M1209.96,494.87c-.03,2.93-.05,5.86-.08,8.79,2.96,0,5.92,.02,8.87,.05,0,.38-.02,.76-.02,1.14-2.95-.03-5.91-.05-8.86-.05-.03,2.95-.05,5.9-.08,8.85,3.23,.01,6.46,.04,9.69,.09,0,.38-.02,.76-.03,1.14-3.69-.05-7.39-.08-11.08-.09,.05-7.02,.1-14.04,.14-21.06,3.8,0,7.6,0,11.4,.04,0,.38-.02,.76-.03,1.14-3.31-.03-6.63-.04-9.94-.04Z"/><path class="cls-7" d="M1236.77,506.12c.83,1.01,1.21,2.18,1.15,3.51-.05,1.09-.36,2.05-.94,2.89-.57,.84-1.39,1.49-2.47,1.95-1.07,.46-2.36,.67-3.85,.63-2.32-.06-4.64-.11-6.96-.15,.2-7.05,.39-14.09,.59-21.14,2.34,.03,4.69,.07,7.03,.12,2.25,.05,3.93,.58,5.03,1.58,1.1,1.01,1.61,2.29,1.54,3.84-.06,1.35-.49,2.43-1.29,3.24-.8,.81-1.8,1.36-2.99,1.63,1.28,.25,2.33,.89,3.16,1.9Zm-11.32-2.68c1.86,.03,3.72,.07,5.58,.11,1.67,.04,2.97-.31,3.9-1.04,.93-.73,1.43-1.76,1.49-3.09,.06-1.29-.35-2.32-1.21-3.08-.86-.77-2.21-1.17-4.02-1.21-1.83-.04-3.66-.07-5.48-.1-.08,2.8-.17,5.6-.25,8.4Zm9.39,9.38c1.05-.79,1.61-1.89,1.67-3.32,.06-1.41-.41-2.55-1.41-3.41-1.01-.86-2.42-1.32-4.23-1.36-1.81-.04-3.63-.08-5.44-.11-.09,3.06-.18,6.12-.27,9.19,1.82,.04,3.65,.08,5.47,.12,1.77,.05,3.18-.32,4.23-1.11Z"/><path class="cls-7" d="M1253.59,515.97c-1.66-3.11-3.35-6.22-5.06-9.31h-.13c-1.58-.07-3.16-.13-4.74-.19-.16,3.01-.33,6.03-.49,9.04-.47-.02-.94-.04-1.4-.05,.37-7.07,.74-14.15,1.12-21.22,2.07,.07,4.13,.14,6.2,.22,2.5,.1,4.35,.73,5.52,1.9,1.17,1.17,1.69,2.67,1.56,4.51-.12,1.64-.69,2.96-1.73,3.98-1.03,1.02-2.47,1.6-4.32,1.77,1.74,3.14,3.46,6.29,5.16,9.45-.56-.03-1.12-.06-1.68-.08Zm-9.86-10.65c1.58,.06,3.16,.12,4.74,.18,1.96,.08,3.46-.31,4.49-1.17,1.03-.86,1.6-2.04,1.71-3.54,.23-3.25-1.66-4.97-5.66-5.13-1.58-.06-3.16-.12-4.74-.17-.18,3.28-.36,6.55-.54,9.83Z"/><path class="cls-7" d="M1263.66,515.38c-1.55-1.02-2.72-2.38-3.51-4.09-.79-1.71-1.12-3.6-.96-5.69,.16-2.1,.76-3.95,1.83-5.55,1.06-1.6,2.46-2.82,4.21-3.65,1.74-.83,3.66-1.18,5.73-1.06,2.08,.12,3.9,.71,5.48,1.74,1.58,1.03,2.75,2.41,3.51,4.13,.77,1.72,1.03,3.64,.81,5.75-.22,2.09-.88,3.93-1.97,5.53-1.09,1.6-2.49,2.8-4.2,3.6-1.71,.81-3.57,1.14-5.59,1.01-2.01-.13-3.79-.71-5.34-1.72Zm10.24-.36c1.47-.69,2.68-1.74,3.64-3.14,.95-1.4,1.53-3.08,1.73-5.02,.2-1.97-.03-3.71-.7-5.23-.67-1.52-1.68-2.72-3.03-3.6-1.35-.88-2.92-1.38-4.69-1.49-1.77-.11-3.41,.2-4.91,.9-1.49,.71-2.71,1.77-3.66,3.18-.94,1.41-1.49,3.1-1.64,5.06-.15,1.94,.13,3.66,.83,5.16,.7,1.5,1.72,2.69,3.05,3.56,1.33,.87,2.86,1.37,4.58,1.48,1.73,.11,3.32-.18,4.79-.87Z"/><path class="cls-7" d="M1152.92,542.79c.9,.92,1.4,2.03,1.49,3.33,.08,1.06-.11,2.02-.56,2.88-.45,.86-1.15,1.55-2.11,2.08-.96,.53-2.15,.83-3.58,.91-2.2,.12-4.41,.24-6.61,.37-.62-6.87-1.25-13.74-1.87-20.61,2.23-.15,4.46-.29,6.69-.42,2.14-.13,3.79,.26,4.95,1.16,1.16,.9,1.79,2.1,1.9,3.62,.09,1.32-.19,2.4-.86,3.25-.66,.85-1.55,1.46-2.65,1.81,1.24,.15,2.31,.69,3.21,1.61Zm-11.03-1.75c1.77-.11,3.53-.21,5.3-.31,1.59-.09,2.78-.52,3.58-1.3,.8-.78,1.15-1.82,1.06-3.12-.09-1.26-.59-2.23-1.5-2.91-.91-.68-2.23-.97-3.95-.87-1.74,.1-3.47,.21-5.21,.32,.24,2.73,.48,5.46,.73,8.19Zm9.97,8.42c.9-.84,1.3-1.96,1.2-3.36-.1-1.38-.67-2.45-1.73-3.21-1.05-.76-2.44-1.1-4.17-1-1.72,.1-3.45,.2-5.17,.3,.26,2.99,.53,5.97,.8,8.96,1.73-.1,3.46-.2,5.2-.29,1.68-.09,2.97-.55,3.87-1.4Z"/><path class="cls-7" d="M1169.95,551.1c-1.92-2.9-3.87-5.8-5.84-8.68h-.12c-1.5,.06-3,.12-4.51,.18,.19,2.95,.37,5.89,.56,8.84-.44,.02-.89,.04-1.33,.05-.45-6.91-.9-13.83-1.35-20.74,1.97-.09,3.93-.18,5.9-.26,2.38-.1,4.2,.38,5.44,1.43,1.24,1.05,1.9,2.47,1.99,4.27,.07,1.6-.32,2.94-1.19,4-.86,1.07-2.16,1.75-3.89,2.05,2.01,2.93,3.99,5.86,5.95,8.81-.53,.01-1.07,.03-1.6,.05Zm-10.54-9.62c1.5-.06,3.01-.12,4.51-.18,1.87-.07,3.24-.56,4.11-1.48,.88-.92,1.29-2.11,1.21-3.57-.15-3.18-2.13-4.71-5.94-4.56-1.5,.06-3.01,.13-4.51,.19,.2,3.2,.41,6.4,.61,9.61Z"/><path class="cls-7" d="M1187.74,529.81c-2.16,4.19-4.28,8.38-6.36,12.57,.09,2.82,.18,5.64,.27,8.45-.45,0-.89,.01-1.34,.02-.09-2.82-.19-5.63-.28-8.45-2.37-4.1-4.78-8.18-7.23-12.25,.52-.02,1.04-.03,1.56-.05,2.13,3.67,4.23,7.34,6.29,11.04,1.81-3.77,3.66-7.54,5.53-11.31,.52,0,1.04-.02,1.56-.02Z"/><path class="cls-7" d="M1208.63,535.94c-.59-1.59-1.59-2.85-3-3.8-1.41-.95-3.08-1.42-5.02-1.42-1.69,0-3.21,.4-4.57,1.18-1.35,.78-2.41,1.9-3.18,3.34-.77,1.44-1.13,3.12-1.1,5.03,.03,1.91,.45,3.58,1.25,5.01,.8,1.43,1.87,2.53,3.2,3.29,1.34,.77,2.82,1.15,4.47,1.16,1.58,0,3.02-.34,4.31-1.05,1.29-.71,2.33-1.72,3.11-3.04,.79-1.32,1.23-2.87,1.33-4.65-3.14-.03-6.28-.05-9.42-.06,0-.38,0-.76,0-1.14,3.61,0,7.21,.03,10.82,.07,0,.3,0,.6,0,.9-.08,1.96-.57,3.72-1.46,5.26-.89,1.55-2.09,2.76-3.6,3.62-1.51,.87-3.2,1.29-5.08,1.28-1.92,0-3.65-.46-5.21-1.37-1.56-.9-2.79-2.16-3.69-3.78-.9-1.62-1.38-3.45-1.42-5.5-.04-2.07,.37-3.92,1.23-5.55,.86-1.63,2.08-2.91,3.66-3.82,1.58-.92,3.36-1.38,5.34-1.38,2.3,0,4.3,.57,5.97,1.7,1.67,1.14,2.88,2.72,3.63,4.72-.53,0-1.05-.01-1.58-.02Z"/><path class="cls-7" d="M1230.37,530.13c-.27,7.06-.53,14.12-.8,21.17-.44-.02-.89-.03-1.33-.05,.12-3.42,.25-6.83,.37-10.25-4.11-.13-8.23-.23-12.34-.31l-.19,10.22c-.44,0-.89-.02-1.33-.03,.12-7.03,.23-14.06,.35-21.1,.46,0,.92,.01,1.38,.02-.06,3.25-.12,6.49-.18,9.74,4.12,.07,8.24,.18,12.36,.3,.12-3.26,.23-6.51,.35-9.77,.46,.01,.92,.03,1.37,.04Z"/><path class="cls-7" d="M1236.67,530.34c-.21,4.42-.41,8.84-.62,13.26-.11,2.4,.34,4.17,1.36,5.34,1.02,1.16,2.44,1.79,4.28,1.88,1.82,.09,3.29-.39,4.4-1.44,1.12-1.05,1.76-2.79,1.91-5.21,.28-4.43,.56-8.86,.85-13.29,.46,.02,.92,.05,1.37,.07-.29,4.42-.58,8.84-.87,13.27-.18,2.77-.97,4.79-2.37,6.07-1.39,1.28-3.18,1.86-5.37,1.76-2.19-.11-3.92-.87-5.19-2.28-1.27-1.42-1.85-3.49-1.73-6.23,.2-4.41,.39-8.82,.59-13.23,.46,.02,.92,.03,1.38,.05Z"/><path class="cls-7" d="M1256.1,552.12c-.97-.55-1.71-1.26-2.21-2.12-.5-.86-.76-1.8-.77-2.82,.47,.03,.94,.06,1.4,.08,.08,1.12,.52,2.14,1.31,3.07,.8,.92,2.07,1.44,3.83,1.56,1.03,.07,1.94-.06,2.73-.39,.79-.33,1.43-.81,1.9-1.45,.47-.64,.75-1.36,.82-2.17,.09-1.03-.08-1.87-.52-2.51-.44-.64-1.01-1.14-1.71-1.49-.7-.35-1.66-.74-2.88-1.17-1.33-.45-2.4-.89-3.21-1.3-.81-.42-1.47-1.02-1.98-1.81-.52-.79-.73-1.84-.64-3.16,.07-1.01,.41-1.92,1-2.73,.6-.81,1.41-1.43,2.45-1.85,1.03-.43,2.2-.6,3.51-.52,1.89,.12,3.38,.68,4.46,1.69,1.08,1.01,1.66,2.2,1.76,3.58-.48-.03-.97-.07-1.45-.1-.07-.56-.29-1.13-.66-1.73-.37-.6-.91-1.11-1.64-1.53-.73-.42-1.62-.67-2.68-.74-1.42-.09-2.65,.23-3.69,.95-1.03,.72-1.59,1.73-1.69,3.02-.08,1.03,.12,1.87,.57,2.52,.46,.65,1.04,1.15,1.75,1.51,.71,.36,1.67,.74,2.89,1.15,1.35,.48,2.42,.92,3.2,1.33,.78,.41,1.42,1.02,1.92,1.82,.5,.8,.69,1.85,.58,3.15-.09,.95-.42,1.83-.99,2.65-.57,.81-1.36,1.45-2.36,1.92-1,.47-2.19,.65-3.55,.56-1.34-.09-2.5-.41-3.47-.96Z"/></g></g><path class="cls-1" d="M1137.85,184c-6.2-34.96-21.08-85.12-62.53-116.94-44.99-34.54-74.54-11.59-300.11-7.4,0,0-161.08,3-250.13,7.04-5.66,.26-11.25,.56-11.47,.57h0c-3.48,.19-6.13,2.45-8.17,5.98-7.02,14.81-14.01,30.34-20.86,46.58-7.88,18.67-14.97,36.83-21.35,54.34-14.51-3-31.92-5.49-51.68-6.12-23.08-.74-43.28,1.25-59.63,3.97-2.95-18.14-8.72-41.87-20.52-67.84-9.2-20.23-19.68-36.58-29.03-49.13-73.54-1.11-148.2-1.38-223.93-.73-26.28,.23-52.42,.56-78.43,1"/><path class="cls-1" d="M1256.2,184.08c11.08-36.89,33.64-90.14,83.33-122.49,13.26-8.64,27.26-13.19,27.26-13.19,26.42-9.32,48.91-7.99,56.81-7.55,0,0,4.86,.27,223.81,8.73,103.5,4,131.76-6.96,224.9,7.64,22.44,3.52,40.85,7.3,53.26,10.03h0c3.98,.2,7.26,.39,9.49,.52,1.16,1.33,2.33,2.67,3.49,4,8.91,17.19,17.78,35.79,26.28,55.8,6.66,15.68,12.52,30.87,17.68,45.44,15.03-2.61,32.49-4.6,51.96-4.98,26.6-.51,49.88,2.15,68.8,5.64,3.95-16.86,9-35.09,15.53-54.34,7.72-22.8,16.23-43.27,24.72-61.31,80.14-2.62,162.3-3.92,246.38-3.71,37.09,.09,73.8,.48,110.11,1.15"/><path class="cls-1" d="M1142.84,182.8c-4.41-31.01-17.69-87.7-64.73-121.57-1.74-1.25-9.79-7.96-21.58-12.6-38.16-14.99-89.56,1.69-278.53,5.2,0,0-161.08,3-250.13,7.04-5.77,.26-11.48,.57-11.48,.57-3.73,.2-6.8,.39-8.9,.52-1.09,1.33-2.18,2.67-3.28,4-6.9,15.02-13.78,30.32-20.61,45.91-8.11,18.51-15.89,36.8-23.36,54.84-13.4-2.29-28.82-4.05-45.92-4.49-22.79-.59-42.93,1.3-59.63,3.97-2.95-18.14-8.72-41.87-20.52-67.84-9.2-20.23-19.68-36.58-29.03-49.13-73.53-1.11-148.18-1.38-223.93-.73-27.22,.23-54.29,.58-81.22,1.05"/><path class="cls-1" d="M1251.7,180.47c5.82-20.36,23.92-74.77,69.87-111.12,7.95-6.29,23.91-18.69,48-26.78,26.24-8.82,48.33-8.08,56.81-7.55,0,0,4.86,.27,223.81,8.73,103.5,4,131.76-6.96,224.9,7.64,22.44,3.52,40.85,7.3,53.26,10.03h0c3.98,.2,7.26,.39,9.49,.52,1.16,1.33,2.33,2.67,3.49,4,8.91,17.19,17.78,35.79,26.28,55.8,6.66,15.68,12.52,30.87,17.68,45.44,14.98-2.52,32.44-4.5,51.96-4.98,24.38-.6,45.87,1.31,63.62,3.97,4.21-17.4,9.6-36.24,16.56-56.14,7.42-21.21,15.5-40.46,23.62-57.68,81.84-2.73,165.74-4.1,251.62-3.88,36.14,.09,71.91,.46,107.32,1.1"/><path class="cls-1" d="M220.89,1192.17c-73.63,4.93-147.26,9.87-220.89,14.8v192.16"/><path class="cls-1" d="M984.01,1141.04c-169.18,11.34-338.36,22.67-507.54,34.01"/><path class="cls-1" d="M196.26,710.82h411.07c-1.21-120.58-2.43-241.16-3.64-361.73-.15-3.79-.51-9.36-1.46-16.01-9.33-65.85-60.66-131.82-128.58-155.03-32.86-11.23-63.75-10.45-80.23-10.04-14.46,.36-37.47,.94-62.91,9.07-69.26,22.12-123.72,89.71-132.95,158.18-.84,6.26-1.16,11.4-1.29,14.56,3.26,67.63,4.84,138.56,4.21,212.53-.44,51.04-1.9,100.56-4.21,148.48Z"/><path class="cls-1" d="M204.48,702.82h395.56c-1.17-116.41-2.33-232.82-3.5-349.24-.15-3.66-.49-9.04-1.4-15.46-8.97-63.58-58.37-127.26-123.73-149.67-31.62-10.84-61.34-10.09-77.21-9.69-13.92,.35-36.06,.91-60.53,8.75-66.65,21.36-119.05,86.62-127.94,152.72-.81,6.04-1.12,11.01-1.25,14.05,3.13,65.29,4.65,133.77,4.05,205.18-.42,49.27-1.83,97.09-4.05,143.35Z"/><path class="cls-3" d="M1848.08,379.82l90.48-.37c59.18,.24,118.36,.49,177.54,.73,41.01-.12,82.01-.24,123.02-.37"/><path class="cls-3" d="M1949.92,702.85l-.74-116.24c.49-76.02,.99-152.05,1.48-228.07-.25-52.68-.49-105.35-.74-158.03"/><path class="cls-3" d="M2129.17,702.85l-.74-118.9c-.6-96.22,1.25-140.43,1.48-233.29,.09-35.32,.05-89-.71-155.43"/><path class="cls-3" d="M1848.08,383.26l90.62-.71c59.27,.48,118.53,.95,177.8,1.43,41.07-.24,82.13-.47,123.2-.71"/><path class="cls-3" d="M1849.71,536.32l90.18-.37c58.98,.24,117.96,.49,176.94,.73,40.87-.12,81.73-.24,122.6-.37"/><path class="cls-3" d="M1849.71,539.77l90.01-.71c58.87,.48,117.74,.95,176.62,1.43,40.79-.24,81.59-.47,122.38-.71"/><path class="cls-3" d="M1952.81,700.95l-.72-116.29c.48-76.06,.96-152.12,1.43-228.18-.24-52.7-.48-105.4-.72-158.1"/><path class="cls-3" d="M2132.93,700.63l-.72-117.57c-.58-95.14,1.21-138.86,1.43-230.67,.09-34.93,.05-88.01-.69-153.69"/><path class="cls-1" d="M1837.32,710.86h411.07c-1.21-120.58-2.43-241.16-3.64-361.73-.15-3.79-.51-9.36-1.46-16.01-9.33-65.85-60.66-131.82-128.58-155.03-32.86-11.23-63.75-10.45-80.23-10.04-14.46,.36-37.47,.94-62.91,9.07-69.26,22.12-123.72,89.71-132.95,158.18-.84,6.26-1.16,11.4-1.29,14.56,3.26,67.63,4.84,138.56,4.21,212.53-.44,51.04-1.9,100.56-4.21,148.48Z"/><path class="cls-1" d="M1845.54,702.85h395.56c-1.17-116.41-2.33-232.82-3.5-349.24-.15-3.66-.49-9.04-1.4-15.46-8.97-63.58-58.37-127.26-123.73-149.67-31.62-10.84-61.34-10.09-77.21-9.69-13.92,.35-36.06,.91-60.53,8.75-66.65,21.36-119.05,86.62-127.94,152.72-.81,6.04-1.12,11.01-1.25,14.05,3.13,65.29,4.65,133.77,4.05,205.18-.42,49.27-1.83,97.09-4.05,143.35Z"/><path class="cls-3" d="M196.26,710.82s-43.47,32.02-44.56,40.76c0,0,488.01,8.73,485.83,0-2.18-8.73-30.21-40.76-30.21-40.76H196.26Z"/><path class="cls-3" d="M204.57,715.54s-42.11,24.81-43.17,31.58c0,0,472.78,6.77,470.66,0-2.12-6.77-29.26-31.58-29.26-31.58H204.57Z"/><path class="cls-3" d="M1836.37,710.86s-43.47,32.02-44.56,40.76c0,0,488.01,8.73,485.83,0-2.18-8.73-30.21-40.76-30.21-40.76h-411.07Z"/><path class="cls-3" d="M1844.68,715.57s-42.11,24.81-43.17,31.58c0,0,472.78,6.77,470.66,0-2.12-6.77-29.26-31.58-29.26-31.58h-398.23Z"/><polygon class="cls-3" points="2.76 812.72 984.01 808.83 984.01 812.72 0 819.27 2.76 812.72"/><polygon class="cls-3" points="2.76 856.83 984.01 852.94 984.01 856.83 0 863.38 2.76 856.83"/><path class="cls-3" d="M593.53,298.51c131.1-.4,262.2-.8,393.31-1.19l-.02,3.89c-130.33,1.35-260.66,2.7-390.99,4.05-.76-2.25-1.53-4.49-2.29-6.74Z"/><path class="cls-3" d="M603.32,343.06c127.74-.55,255.49-1.09,383.23-1.64l-.02,3.89c-127.61,1.58-255.23,3.16-382.84,4.73l-.37-6.98Z"/><path class="cls-3" d="M1400.66,294.51c150.37-2.13,300.73-4.26,451.1-6.39-.45,1.3-.9,2.61-1.36,3.91-149.05,2.8-298.1,5.6-447.14,8.4-.87-1.98-1.73-3.95-2.6-5.93Z"/><path class="cls-3" d="M1408.95,336.17l430.01-3.95-.56,4.73c-142.87,2.45-285.75,4.91-428.62,7.36-.28-2.71-.55-5.43-.83-8.14Z"/><path class="cls-3" d="M2229.75,285.52l269.98-3.92v3.89l-267.62,6.51c-.79-2.16-1.58-4.32-2.36-6.47Z"/><path class="cls-3" d="M2242.95,329.62c85.69-1.3,171.37-2.61,257.06-3.91v3.89c-85.37,2.18-170.74,4.35-256.11,6.53-.31-2.17-.63-4.34-.94-6.5Z"/><path class="cls-3" d="M0,302.5l206.05-1.9c-.67,1.99-1.34,3.98-2.01,5.97-67.94,.88-135.89,1.76-203.83,2.64L0,302.5Z"/><path class="cls-3" d="M.28,346.77l195.76-1.34-.05,3.89L0,354.03l.28-7.26Z"/><polyline class="cls-3" points="1508.58 809.18 1412.11 808.83 1412.11 812.72 1508.58 813.3"/><polyline class="cls-3" points="1659.73 814.21 2500 819.27 2496.95 812.72 1659.73 809.72"/><polyline class="cls-3" points="1508.58 853.29 1412.11 852.94 1412.11 856.83 1508.58 857.41"/><polyline class="cls-3" points="1659.73 858.32 2500 863.38 2496.95 856.83 1660.11 853.83"/><path class="cls-2" d="M850.94,672.96c-1.35-.52-3.2-1.33-5.28-2.55-1.37-.8-4.33-2.57-6.74-5.28-2.72-3.06-3.86-6.35-4.55-8.73-5.45-18.7-6.38-43.31-6.38-43.31-.62-16.49-.93-24.74-.55-33.3,.36-8.05,.87-19.5,3.4-32.27,3.99-20.13,8.83-45.21,21.62-48.16,15.09-3.48,35.27,21.92,43.47,43.3,6.72,17.53,5.74,33.3,4.37,55.32-1.51,24.24-3.71,36.9-7.29,46.67-4.43,12.11-9.16,24.47-20.94,28.94-8.3,3.15-16.54,1.02-21.14-.64Z"/><path class="cls-2" d="M864.08,671.94c-4.19-.08-10.48-.89-15.77-4.99-4.37-3.39-7.32-8.31-11.01-26.02-2.55-12.25-3.83-18.38-4.48-26.2-1.91-22.98-3.43-41.25,.88-64.07,4.04-21.43,8.05-42.27,19.38-45,13.52-3.25,31.62,20.48,38.97,40.46,6.03,16.38,5.15,31.12,3.92,51.69-.62,10.47-1.21,25.71-6.53,43.61-4.39,14.78-9.51,23.78-18.46,28.21-2.71,1.34-5.19,1.98-6.89,2.3Z"/><line class="cls-3" x1="844.99" y1="499.36" x2="859.86" y2="499.38"/><path class="cls-2" d="M1139.32,727.14v273.18s10.19-3.64,13.46,0l-1.82-273.18s-7.64,5.22-11.65,0Z"/><path class="cls-2" d="M1138.98,725.63c.82-.55,2.61-1.58,5.07-1.71,3.8-.2,6.45,1.88,7.1,2.43"/><path class="cls-2" d="M1138.91,1000.77c1.34,.75,4.2,2.1,8.03,2.07,2.8-.02,4.99-.77,6.3-1.34"/><path class="cls-2" d="M1232.12,727.14v273.18s10.19-3.64,13.46,0l-1.82-273.18s-7.64,5.22-11.65,0Z"/><path class="cls-2" d="M1231.78,725.63c.82-.55,2.61-1.58,5.07-1.71,3.8-.2,6.45,1.88,7.1,2.43"/><path class="cls-2" d="M1231.71,1000.77c1.34,.75,4.2,2.1,8.03,2.07,2.8-.02,4.99-.77,6.3-1.34"/><g class="cls-6"><path class="cls-5" d="M865.07,569.11c-.86-.04-1.23-.37-1.42-.64-.18-.26-.27-.78-.44-1.88-.03-.17-.09-.6-.32-1.18-.04-.11-.08-.21-.11-.27-.29-.42-.93-1.28-2.03-2.27-1.6-1.49-3.12-1.91-3.59-1.91,.17,.17,.57,.61,.86,1.3,.42,1.02,.23,1.87,.2,2.04-.05,.62-.08,1.32-.08,2.08,.01,1.18,.11,2.22,.25,3.06,.11,.3,.81,2.09,2.64,1.88,0,.05,1.63-.27,3.38-1.56,.25-.18,.42-.35,.42-.35,.12-.12,.2-.23,.25-.3Z"/></g><g class="cls-6"><path class="cls-5" d="M857.12,567.47c-.77-.05-1.05-.42-1.17-.7-.11-.27-.08-.83-.03-1.89,0-.17,.03-.57-.09-1.12-.02-.11-.05-.19-.06-.25-.22-.41-.72-1.24-1.73-2.38-1.46-1.71-3-2.7-3.47-2.87,.15,.22,.52,.78,.73,1.52,.31,1.09,.01,1.85-.05,2.01-.13,.59-.25,1.28-.33,2.05-.14,1.21-.17,2.34-.15,3.28,.06,.33,.49,2.52,2.2,2.57,0,.06,1.52-.07,3.39-1.5,.27-.19,.46-.39,.46-.38,.14-.14,.24-.26,.3-.34Z"/></g><g class="cls-6"><path class="cls-5" d="M854.78,573.14c-.94-.12-1.58-.04-1.99,.1-.39,.14-.93,.47-2.06,1.37-.17,.14-.61,.5-1.27,.92-.13,.08-.23,.14-.3,.18-.53,.18-1.62,.55-2.84,.28-1.78-.39-2.59-2.14-2.81-2.71,.17,.1,.6,.3,1.16,.14,.82-.24,1.26-1,1.33-1.14,.35-.44,.74-.89,1.19-1.3,.71-.64,1.38-1.04,1.98-1.3,.26-.09,1.83-.17,3.44,.85,0,0,1.43,.88,2.12,2.01,.1,.17,.1,.32,.1,.32,0,.11-.02,.2-.05,.27Z"/></g><g class="cls-6"><path class="cls-5" d="M867.85,575.19c.95-.24,1.57-.02,1.96,.19,.37,.2,.86,.79,1.88,1.71,.16,.14,.55,.5,1.17,.75,.12,.05,.22,.08,.29,.11,.52,.05,1.59,0,2.85-.51,1.85-.77,2.82-1.71,3.09-1.97-.18,.05-.63,.17-1.18,.1-.81-.1-1.17-.63-1.23-.73-.3-.32-.66-.68-1.07-1.09-.64-.64-1.26-1.24-1.81-1.77-.25-.12-1.75-1.27-3.44-.78,0,0-1.5,.45-2.36,2.77-.12,.33-.16,.65-.16,.65-.02,.23-.01,.43,0,.56Z"/></g><g class="cls-6"><path class="cls-5" d="M873.85,570.25c.73-1.25,.99-2.07,1.08-2.63,.09-.53,.03-1.34-.1-3.06-.02-.26-.07-.95,.02-1.82,.02-.17,.03-.3,.05-.39,.2-.58,.65-1.68,1.62-2.11,1.41-.59,2.94,.48,3.42,.72-.15-.02-.5-.04-.69,.26-.27,.45,.06,1.08,.12,1.17,.15,.38,.3,.78,.41,1.18,.18,.63,.26,1.14,.27,1.6-.05,.2-.39,1.25-2.05,2.96,0-.06-1.48,1.64-3.37,2.29-.27,.08-.48,.03-.48,.03-.15-.04-.25-.12-.32-.19Z"/></g><g class="cls-6"><path class="cls-5" d="M862.82,574.24c-.95-.08-1.56,.06-1.94,.23-.36,.17-.82,.54-1.79,1.55-.15,.16-.52,.56-1.12,1.05-.12,.09-.21,.17-.28,.22-.51,.26-1.57,.79-2.85,.81-1.87,.04-2.91-1.38-3.21-1.88,.18,.05,.64,.13,1.18-.17,.8-.44,1.13-1.28,1.18-1.43,.28-.52,.62-1.05,1-1.56,.6-.79,1.2-1.34,1.73-1.73,.24-.14,1.71-.53,3.43,.38,0,0,1.52,.81,2.46,1.94,.13,.16,.18,.31,.18,.31,.03,.11,.03,.2,.01,.27Z"/></g><g class="cls-6"><path class="cls-5" d="M865.38,570.88c.83-1.01,1.18-1.77,1.35-2.32,.16-.51,.21-1.37,.31-3.05,.02-.26,.05-.92,.25-1.7,.04-.15,.07-.27,.1-.35,.27-.49,.87-1.37,1.94-1.6,1.56-.29,3.09,.71,3.56,.92-.16-.02-.56-.05-.82,.21-.39,.39-.16,1.01-.12,1.1,.08,.38,.14,.79,.16,1.22,.04,.68-.03,1.28-.13,1.83-.09,.2-.71,1.51-2.51,2.95,0-.05-1.6,1.38-3.39,1.27-.26-.03-.43-.17-.44-.17-.13-.1-.21-.23-.26-.33Z"/></g><g class="cls-6"><path class="cls-5" d="M875.8,572.47c.93-.49,1.57-.42,1.99-.31,.4,.1,.96,.57,2.13,1.25,.18,.1,.63,.36,1.31,.5,.13,.03,.24,.04,.31,.05,.54-.03,1.63-.25,2.82-.87,1.74-.91,2.47-1.83,2.67-2.11-.16,.05-.58,.2-1.14,.16-.83-.05-1.29-.53-1.37-.62-.36-.29-.78-.63-1.25-1-.73-.58-1.43-1.12-2.04-1.58-.26-.09-1.85-1.02-3.43-.08,0,0-1.4,.86-1.99,3.38-.08,.36-.08,.68-.08,.68,0,.23,.04,.42,.07,.54Z"/></g><g class="cls-6"><g><path class="cls-7" d="M842.6,591.86c-.18,0-.35-.01-.53-.02-1.45-3.24-2.87-6.63-4.26-10.17-.18,3.34-.37,6.67-.55,10.01l-.53-.02c.21-3.74,.42-7.48,.63-11.23,.17,.02,.34,.05,.51,.07,1.39,3.55,2.8,6.94,4.25,10.19,.15-3.18,.3-6.35,.46-9.53,.17,.02,.34,.05,.51,.07-.17,3.54-.33,7.07-.5,10.61Z"/><path class="cls-7" d="M851.37,583.8c.32,.48,.56,1.02,.73,1.63,.16,.61,.23,1.26,.21,1.94-.03,.94-.22,1.77-.59,2.51-.36,.73-.86,1.3-1.48,1.7-.62,.4-1.31,.6-2.07,.57-.52-.02-1.01-.14-1.45-.37-.45-.23-.84-.56-1.17-.98-.3,.37-.59,.74-.89,1.12l-.49-.02c.38-.48,.76-.96,1.14-1.44-.31-.49-.55-1.05-.7-1.69-.15-.64-.21-1.34-.18-2.08,.05-1.03,.26-1.94,.63-2.71,.37-.77,.86-1.33,1.48-1.69,.61-.36,1.29-.49,2.03-.38,.51,.07,.98,.25,1.42,.51,.43,.27,.82,.62,1.16,1.04,.29-.33,.57-.66,.86-.98l.48,.07c-.37,.41-.74,.83-1.11,1.25Zm-5.7,6.21c1.73-2.17,3.44-4.22,5.12-6.16-.29-.39-.62-.7-1.01-.94-.39-.24-.8-.39-1.24-.44-.63-.09-1.21,.02-1.74,.34-.53,.31-.95,.81-1.28,1.48-.33,.67-.52,1.5-.56,2.45-.06,1.3,.18,2.4,.71,3.28Zm5.36-5.82c-1.69,1.94-3.4,4-5.13,6.17,.29,.38,.63,.67,1.02,.88,.39,.21,.82,.32,1.28,.34,.65,.02,1.24-.14,1.77-.48,.53-.34,.96-.84,1.28-1.49,.32-.65,.49-1.41,.52-2.29,.04-1.21-.21-2.25-.73-3.13Z"/><path class="cls-7" d="M858.18,592.37c-.68-1.3-1.35-2.63-2.02-3.99h-.05l-1.74-.14c-.03,1.34-.07,2.67-.1,4.01-.18,0-.35-.01-.53-.02,.08-3.15,.17-6.31,.25-9.46l2.2,.31c.89,.13,1.55,.46,1.99,.99,.44,.53,.65,1.18,.64,1.95-.01,.69-.19,1.23-.55,1.65-.36,.42-.87,.65-1.55,.71,.68,1.37,1.37,2.71,2.07,4.02-.21,0-.42-.01-.63-.02Zm-3.79-4.64c.58,.05,1.16,.1,1.73,.15,.72,.06,1.26-.09,1.62-.44,.36-.36,.55-.84,.56-1.48,.02-1.37-.68-2.15-2.1-2.35-.56-.08-1.13-.15-1.69-.23-.04,1.45-.07,2.9-.11,4.35Z"/><path class="cls-7" d="M864.74,592.58c-.7-1.2-1.39-2.44-2.08-3.7h-.05c-.58-.05-1.16-.09-1.74-.14-.01,1.24-.03,2.48-.04,3.71-.18,0-.35-.01-.53-.02,.04-2.92,.07-5.85,.11-8.77,.73,.1,1.47,.21,2.2,.31,.89,.13,1.56,.44,2,.93,.45,.49,.67,1.09,.67,1.8,0,.63-.17,1.14-.52,1.52-.35,.38-.86,.6-1.53,.64,.7,1.27,1.41,2.52,2.13,3.73-.21,0-.42-.01-.63-.02Zm-3.86-4.31c.58,.05,1.16,.1,1.73,.15,.72,.06,1.25-.08,1.61-.4,.35-.33,.53-.78,.53-1.36,0-1.27-.71-2-2.14-2.19-.56-.08-1.13-.15-1.69-.23-.01,1.35-.03,2.69-.04,4.04Z"/><path class="cls-7" d="M867.34,585.08c0,1.12,.01,2.23,.02,3.35,1.08,.1,2.16,.19,3.23,.29v.42c-1.07-.09-2.15-.18-3.23-.27,0,1.12,.01,2.25,.02,3.37,1.21,.05,2.41,.09,3.62,.14v.41l-4.14-.14-.04-8.09c1.35,.19,2.7,.38,4.06,.57v.41c-1.17-.16-2.36-.32-3.54-.48Z"/><path class="cls-7" d="M877.22,589.98c.33,.35,.51,.74,.53,1.17,.01,.36-.07,.67-.26,.94-.19,.27-.47,.48-.86,.63-.39,.15-.86,.22-1.42,.2-.87-.03-1.74-.06-2.61-.09-.06-2.5-.11-4.99-.17-7.49,.83,.12,1.67,.23,2.5,.35,.8,.11,1.41,.36,1.83,.74,.42,.38,.64,.82,.66,1.33,.02,.44-.11,.79-.37,1.04-.27,.25-.61,.41-1.04,.47,.47,.12,.87,.35,1.21,.7Zm-4.19-1.18c.68,.06,1.35,.12,2.03,.19,.61,.06,1.07-.03,1.39-.25,.32-.22,.47-.55,.45-.99-.02-.43-.19-.78-.52-1.07-.33-.29-.82-.48-1.47-.57-.65-.09-1.3-.18-1.96-.26l.07,2.95Zm3.67,3.37c.37-.25,.54-.61,.52-1.09-.02-.46-.22-.85-.62-1.16-.39-.31-.92-.49-1.58-.55-.66-.06-1.33-.11-1.99-.17,.03,1.08,.05,2.15,.08,3.23l2.04,.08c.66,.03,1.18-.09,1.54-.35Z"/><path class="cls-7" d="M883.79,593.21c-.76-.92-1.51-1.87-2.26-2.85h-.05c-.58-.05-1.16-.09-1.74-.14,.05,.95,.09,1.91,.14,2.86l-.53-.02c-.11-2.26-.21-4.52-.32-6.78,.74,.1,1.47,.21,2.2,.31,.89,.13,1.57,.39,2.04,.78,.47,.39,.72,.85,.76,1.39,.03,.48-.11,.86-.44,1.14-.33,.28-.83,.44-1.5,.46,.76,.99,1.54,1.94,2.31,2.86-.21,0-.42-.01-.63-.02Zm-4.06-3.36c.58,.05,1.16,.1,1.73,.15,.72,.06,1.24-.03,1.58-.27,.34-.24,.49-.58,.46-1.02-.06-.96-.81-1.54-2.23-1.74-.56-.08-1.13-.15-1.69-.23,.05,1.04,.1,2.07,.15,3.11Z"/><path class="cls-7" d="M887.5,593.02c-.63-.28-1.13-.66-1.51-1.16-.38-.49-.59-1.04-.63-1.64-.05-.61,.09-1.13,.39-1.56,.3-.43,.74-.73,1.31-.91,.57-.18,1.23-.21,1.97-.1,.74,.1,1.42,.32,2.04,.64,.62,.32,1.12,.7,1.51,1.15,.38,.45,.61,.93,.67,1.46,.06,.52-.05,.97-.35,1.36-.29,.4-.73,.7-1.31,.92-.58,.21-1.25,.31-2.01,.29-.76-.02-1.45-.17-2.08-.45Zm3.76-.12c.5-.18,.88-.45,1.13-.8,.26-.35,.36-.77,.3-1.25-.06-.49-.25-.93-.59-1.34-.34-.4-.77-.74-1.3-1.01-.53-.27-1.11-.45-1.75-.54-.63-.09-1.19-.06-1.69,.09-.49,.15-.87,.42-1.14,.79-.27,.38-.38,.85-.34,1.41,.04,.55,.23,1.05,.56,1.48,.33,.43,.77,.77,1.31,1.01,.54,.24,1.13,.37,1.78,.39,.65,.02,1.22-.06,1.72-.24Z"/><path class="cls-7" d="M844.81,605.15c.31,.45,.46,.99,.43,1.64-.02,.53-.14,1.01-.37,1.45-.22,.44-.54,.81-.96,1.11-.42,.3-.92,.49-1.5,.57-.9,.13-1.8,.25-2.7,.38,.18-3.61,.36-7.22,.54-10.83,.87-.04,1.73-.07,2.6-.11,.83-.03,1.45,.18,1.85,.64,.4,.46,.59,1.06,.56,1.81-.03,.66-.19,1.2-.5,1.63-.3,.43-.68,.74-1.14,.93,.48,.07,.88,.33,1.19,.77Zm-4.27-.8c.7-.06,1.41-.12,2.11-.18,.63-.06,1.13-.28,1.48-.68,.36-.4,.55-.92,.57-1.57,.03-.63-.12-1.12-.44-1.46-.32-.35-.81-.51-1.48-.48-.68,.03-1.35,.06-2.03,.09-.07,1.43-.14,2.86-.21,4.28Zm3.5,4.18c.41-.45,.63-1.02,.66-1.72,.03-.69-.15-1.21-.53-1.58-.38-.37-.91-.53-1.6-.47-.69,.06-1.38,.13-2.06,.19-.08,1.56-.15,3.12-.23,4.68,.71-.1,1.41-.19,2.12-.29,.69-.09,1.23-.37,1.64-.82Z"/><path class="cls-7" d="M851.32,608.67c-.69-1.27-1.36-2.57-2.04-3.9h-.05c-.6,.06-1.2,.12-1.8,.18l-.16,4.29c-.18,.03-.36,.05-.55,.08,.13-3.37,.26-6.75,.39-10.12,.76-.03,1.53-.06,2.29-.09,.93-.04,1.61,.19,2.06,.67,.45,.48,.66,1.13,.64,1.96-.02,.74-.22,1.36-.6,1.87-.38,.51-.92,.86-1.62,1.04,.69,1.34,1.39,2.65,2.09,3.92l-.66,.09Zm-3.87-4.26c.6-.06,1.2-.11,1.8-.17,.74-.07,1.31-.33,1.69-.78,.38-.45,.58-1.01,.6-1.69,.04-1.47-.67-2.18-2.15-2.11-.59,.03-1.17,.05-1.76,.08-.06,1.55-.12,3.11-.18,4.66Z"/><path class="cls-7" d="M858.92,598.72c-.9,1.8-1.81,3.66-2.74,5.57-.03,1.24-.05,2.48-.08,3.71-.18,.03-.36,.05-.55,.08,.03-1.25,.06-2.49,.08-3.74-.85-1.74-1.69-3.54-2.52-5.39l.61-.02c.72,1.65,1.45,3.27,2.2,4.84,.81-1.72,1.61-3.39,2.4-5.02l.61-.02Z"/><path class="cls-7" d="M867.06,600.76c-.24-.59-.64-1.05-1.19-1.39-.55-.34-1.2-.49-1.96-.46-.66,.03-1.25,.21-1.79,.56-.53,.34-.96,.83-1.28,1.44-.32,.62-.48,1.33-.49,2.13,0,.8,.14,1.48,.45,2.04,.31,.56,.73,.96,1.27,1.2,.54,.24,1.14,.31,1.81,.22,.65-.09,1.23-.31,1.76-.66,.52-.35,.94-.8,1.25-1.35,.31-.55,.48-1.16,.51-1.84-1.25,.12-2.5,.24-3.76,.36v-.46c1.44-.13,2.87-.26,4.31-.38,0,.11,0,.23,0,.34-.02,.74-.2,1.43-.55,2.07-.35,.64-.83,1.17-1.45,1.59-.61,.42-1.3,.7-2.07,.81-.78,.11-1.49,.03-2.12-.26-.63-.29-1.11-.75-1.46-1.38-.35-.64-.51-1.39-.5-2.25,.01-.87,.2-1.66,.56-2.36,.36-.7,.85-1.25,1.47-1.65,.62-.4,1.31-.61,2.08-.64,.89-.04,1.67,.16,2.32,.56,.65,.41,1.14,.98,1.44,1.72l-.62,.04Z"/><path class="cls-7" d="M875.47,598.04c.08,2.4,.15,4.8,.23,7.2l-.55,.08c-.03-1.17-.07-2.34-.1-3.51-1.64,.15-3.28,.3-4.92,.46l.05,3.76-.55,.08c-.03-2.6-.06-5.21-.1-7.81l.53-.02c.02,1.19,.03,2.39,.05,3.58,1.64-.14,3.28-.29,4.91-.43-.03-1.12-.07-2.23-.1-3.35l.53-.02Z"/><path class="cls-7" d="M877.91,597.94c.06,1.45,.12,2.9,.17,4.35,.03,.79,.27,1.34,.72,1.64,.45,.31,1.05,.4,1.8,.3,.74-.1,1.32-.35,1.73-.75,.41-.4,.59-.96,.55-1.69-.08-1.35-.16-2.69-.24-4.04,.18,0,.36-.01,.53-.02,.08,1.33,.16,2.66,.25,4,.05,.83-.18,1.48-.68,1.97-.51,.48-1.21,.8-2.11,.92-.9,.13-1.63,.01-2.19-.36-.56-.37-.86-1.02-.89-1.92-.06-1.46-.11-2.91-.17-4.37,.18,0,.36-.01,.53-.02Z"/><path class="cls-7" d="M886.52,603.57c-.42-.08-.76-.23-1-.44-.25-.21-.4-.47-.45-.76l.57-.07c.09,.32,.32,.58,.68,.78,.37,.2,.91,.25,1.63,.16,.42-.06,.78-.16,1.08-.31,.3-.15,.53-.32,.68-.52,.15-.2,.22-.41,.2-.63-.03-.28-.14-.49-.36-.63-.21-.14-.47-.24-.77-.3-.3-.05-.7-.11-1.21-.16-.55-.05-1-.12-1.34-.19-.34-.07-.63-.21-.87-.42-.24-.2-.38-.5-.4-.88-.02-.3,.07-.57,.26-.83,.19-.26,.48-.46,.86-.62,.38-.16,.82-.24,1.33-.26,.74-.03,1.34,.08,1.81,.31,.47,.23,.77,.52,.9,.88l-.57,.04c-.06-.14-.18-.29-.36-.43-.18-.15-.42-.26-.72-.35-.31-.09-.66-.12-1.08-.11-.55,.03-1.01,.16-1.38,.4-.36,.24-.53,.56-.51,.93,.02,.3,.14,.53,.35,.69,.21,.16,.47,.28,.77,.34,.3,.07,.7,.12,1.2,.17,.56,.06,1.01,.12,1.34,.19,.33,.07,.62,.19,.87,.37,.25,.18,.39,.44,.42,.79,.02,.25-.05,.51-.23,.76-.18,.25-.46,.48-.84,.68-.38,.2-.85,.34-1.41,.42-.55,.08-1.04,.08-1.46,0Z"/></g></g><g class="cls-6"><g><path class="cls-7" d="M843.69,592.77l-.53-.02c-1.45-3.24-2.87-6.63-4.26-10.17-.18,3.34-.37,6.67-.55,10.01l-.53-.02c.21-3.74,.42-7.48,.63-11.23l.51,.07c1.39,3.55,2.8,6.94,4.25,10.19,.15-3.18,.3-6.35,.46-9.53l.51,.07c-.17,3.54-.33,7.07-.5,10.61Z"/><path class="cls-7" d="M852.46,584.71c.32,.48,.56,1.02,.73,1.63,.16,.61,.23,1.26,.21,1.94-.03,.94-.22,1.77-.59,2.51-.36,.73-.86,1.3-1.48,1.7-.62,.4-1.31,.6-2.07,.57-.52-.02-1.01-.14-1.45-.37-.45-.23-.84-.56-1.17-.98-.3,.37-.59,.74-.89,1.12l-.49-.02c.38-.48,.76-.96,1.14-1.44-.31-.49-.55-1.05-.7-1.69-.15-.64-.21-1.34-.18-2.08,.05-1.03,.26-1.94,.63-2.71,.37-.77,.86-1.33,1.48-1.69,.61-.36,1.29-.49,2.03-.38,.51,.07,.98,.25,1.42,.51,.43,.27,.82,.62,1.16,1.04,.29-.33,.57-.66,.86-.98l.48,.07c-.37,.41-.74,.83-1.11,1.25Zm-5.7,6.21c1.73-2.17,3.44-4.22,5.12-6.16-.29-.39-.62-.7-1.01-.94-.39-.24-.8-.38-1.24-.44-.63-.09-1.21,.02-1.74,.34-.53,.31-.95,.81-1.28,1.48-.33,.67-.52,1.5-.56,2.45-.06,1.3,.18,2.4,.71,3.28Zm5.36-5.82c-1.69,1.94-3.4,4-5.13,6.17,.29,.38,.63,.67,1.02,.88,.39,.21,.82,.32,1.28,.34,.65,.02,1.24-.14,1.77-.48,.53-.34,.96-.84,1.28-1.49,.32-.65,.49-1.41,.52-2.29,.04-1.21-.21-2.25-.73-3.13Z"/><path class="cls-7" d="M859.28,593.28c-.68-1.3-1.35-2.63-2.02-3.99h-.05l-1.74-.14c-.03,1.34-.07,2.67-.1,4.01-.18,0-.35-.01-.53-.02,.08-3.15,.17-6.31,.25-9.46,.73,.1,1.47,.21,2.2,.31,.89,.13,1.55,.46,1.99,.99,.44,.53,.65,1.18,.64,1.95-.01,.69-.19,1.23-.55,1.65-.36,.42-.87,.65-1.55,.71,.68,1.37,1.37,2.71,2.07,4.02l-.63-.02Zm-3.79-4.64c.58,.05,1.16,.1,1.73,.15,.72,.06,1.26-.09,1.62-.44,.36-.36,.55-.84,.56-1.48,.02-1.37-.68-2.15-2.1-2.35-.56-.08-1.13-.15-1.69-.23-.04,1.45-.07,2.9-.11,4.35Z"/><path class="cls-7" d="M865.83,593.5c-.7-1.2-1.39-2.44-2.08-3.7h-.05c-.58-.05-1.16-.09-1.74-.14-.01,1.24-.03,2.48-.04,3.71l-.53-.02c.04-2.92,.07-5.85,.11-8.77,.73,.1,1.47,.21,2.2,.31,.89,.13,1.56,.44,2,.93,.45,.49,.67,1.09,.67,1.8,0,.63-.17,1.14-.52,1.52-.35,.38-.86,.6-1.53,.64,.7,1.27,1.41,2.52,2.13,3.73-.21,0-.42-.01-.63-.02Zm-3.86-4.31c.58,.05,1.16,.1,1.73,.15,.72,.06,1.25-.08,1.61-.4,.36-.33,.53-.78,.53-1.36,0-1.27-.71-2-2.14-2.19-.56-.08-1.13-.15-1.69-.23-.01,1.35-.03,2.69-.04,4.04Z"/><path class="cls-7" d="M868.43,585.99c0,1.12,.01,2.23,.02,3.35,1.08,.1,2.16,.19,3.23,.29v.42c-1.07-.09-2.15-.18-3.23-.27,0,1.12,.01,2.25,.02,3.37,1.21,.05,2.41,.09,3.62,.14v.41l-4.14-.14-.04-8.09c1.35,.19,2.7,.38,4.06,.57v.41c-1.17-.16-2.36-.32-3.54-.48Z"/><path class="cls-7" d="M878.31,590.9c.33,.35,.51,.74,.53,1.17,.02,.36-.07,.67-.26,.94-.19,.27-.47,.48-.86,.63-.39,.15-.86,.22-1.42,.2-.87-.03-1.74-.06-2.61-.09-.06-2.5-.11-4.99-.17-7.49,.83,.12,1.67,.23,2.5,.35,.8,.11,1.41,.36,1.83,.74,.42,.38,.64,.82,.66,1.33,.02,.44-.11,.79-.37,1.04-.27,.25-.61,.41-1.04,.47,.47,.12,.87,.35,1.21,.7Zm-4.19-1.18c.68,.06,1.35,.12,2.03,.19,.61,.06,1.07-.03,1.39-.25,.32-.22,.47-.55,.45-.99-.02-.43-.19-.78-.52-1.07-.33-.29-.82-.48-1.47-.57-.65-.09-1.3-.18-1.96-.26l.07,2.95Zm3.67,3.37c.37-.25,.54-.61,.52-1.09-.02-.46-.22-.85-.62-1.16-.39-.31-.92-.49-1.58-.55-.66-.06-1.33-.11-1.99-.17,.03,1.08,.05,2.15,.08,3.23l2.04,.08c.66,.03,1.18-.09,1.54-.35Z"/><path class="cls-7" d="M884.88,594.13c-.76-.92-1.51-1.87-2.26-2.85h-.05c-.58-.05-1.16-.09-1.74-.14,.05,.95,.09,1.91,.14,2.86-.18,0-.35-.01-.53-.02-.11-2.26-.21-4.52-.32-6.78,.74,.1,1.47,.21,2.2,.31,.89,.13,1.57,.39,2.04,.78,.47,.39,.72,.85,.76,1.39,.03,.48-.11,.86-.44,1.14-.33,.28-.83,.44-1.5,.46,.76,.99,1.54,1.94,2.31,2.86l-.63-.02Zm-4.06-3.36c.58,.05,1.16,.1,1.73,.15,.72,.06,1.24-.03,1.58-.27,.34-.24,.49-.58,.46-1.02-.06-.96-.81-1.54-2.23-1.74-.56-.08-1.13-.15-1.69-.23,.05,1.04,.1,2.07,.15,3.11Z"/><path class="cls-7" d="M888.6,593.93c-.63-.28-1.13-.66-1.51-1.16-.38-.49-.59-1.04-.63-1.64-.04-.61,.08-1.13,.39-1.56,.3-.43,.74-.73,1.31-.91,.57-.18,1.23-.21,1.97-.1,.74,.1,1.42,.32,2.04,.64,.62,.32,1.12,.7,1.51,1.15,.38,.45,.61,.93,.67,1.46,.06,.52-.05,.97-.35,1.36-.29,.4-.73,.7-1.31,.92-.58,.21-1.25,.31-2.01,.29-.76-.02-1.45-.17-2.08-.45Zm3.76-.12c.5-.18,.88-.45,1.13-.8,.26-.35,.36-.77,.3-1.25-.06-.49-.25-.93-.59-1.34-.34-.4-.77-.74-1.3-1.01-.53-.27-1.12-.45-1.75-.54-.63-.09-1.19-.06-1.69,.09-.49,.15-.87,.42-1.14,.79-.27,.38-.38,.85-.34,1.41,.04,.55,.23,1.05,.56,1.48,.33,.43,.77,.77,1.31,1.01,.54,.24,1.13,.37,1.78,.39,.65,.02,1.22-.06,1.72-.24Z"/><path class="cls-7" d="M845.91,606.07c.31,.45,.46,.99,.43,1.64-.02,.53-.14,1.01-.37,1.45-.22,.44-.54,.81-.96,1.11-.42,.3-.92,.49-1.5,.57-.9,.13-1.8,.25-2.7,.38,.18-3.61,.36-7.22,.54-10.83,.87-.04,1.73-.07,2.6-.11,.83-.03,1.45,.18,1.85,.64,.4,.46,.59,1.06,.56,1.81-.03,.66-.19,1.2-.5,1.63-.3,.43-.68,.74-1.14,.93,.48,.07,.88,.32,1.19,.77Zm-4.27-.8c.7-.06,1.41-.12,2.11-.18,.63-.05,1.13-.28,1.48-.68,.36-.4,.55-.92,.57-1.57,.03-.63-.12-1.12-.44-1.46-.32-.35-.81-.51-1.48-.48-.68,.03-1.35,.06-2.03,.09-.07,1.43-.14,2.86-.21,4.28Zm3.5,4.18c.41-.45,.63-1.02,.66-1.72,.03-.69-.15-1.21-.53-1.58-.38-.37-.91-.53-1.6-.47-.69,.06-1.38,.13-2.06,.19-.08,1.56-.15,3.12-.23,4.68,.71-.1,1.41-.19,2.12-.29,.69-.09,1.23-.37,1.64-.82Z"/><path class="cls-7" d="M852.42,609.59c-.69-1.27-1.36-2.57-2.04-3.9h-.05c-.6,.06-1.2,.12-1.8,.18l-.16,4.29-.55,.08c.13-3.37,.26-6.75,.39-10.12,.76-.03,1.53-.06,2.29-.09,.93-.04,1.61,.19,2.06,.67,.45,.48,.66,1.13,.64,1.96-.02,.74-.22,1.36-.6,1.87-.38,.51-.92,.86-1.62,1.04,.69,1.34,1.39,2.65,2.09,3.92l-.66,.09Zm-3.87-4.26c.6-.06,1.2-.11,1.8-.17,.74-.07,1.31-.33,1.69-.78,.38-.45,.58-1.01,.6-1.69,.04-1.47-.67-2.18-2.15-2.11-.59,.03-1.17,.05-1.76,.08-.06,1.55-.12,3.11-.18,4.66Z"/><path class="cls-7" d="M860.01,599.63c-.9,1.8-1.81,3.66-2.74,5.57-.03,1.24-.05,2.48-.08,3.71l-.55,.08c.03-1.25,.06-2.49,.08-3.74-.85-1.74-1.69-3.54-2.52-5.39l.61-.02c.72,1.65,1.45,3.27,2.2,4.84,.81-1.72,1.61-3.39,2.4-5.02l.61-.02Z"/><path class="cls-7" d="M868.15,601.68c-.24-.59-.64-1.05-1.19-1.39-.55-.34-1.2-.49-1.96-.46-.66,.03-1.25,.21-1.79,.56-.53,.34-.96,.83-1.28,1.44-.32,.62-.48,1.33-.49,2.13,0,.8,.14,1.48,.45,2.04,.31,.56,.73,.96,1.27,1.2,.54,.24,1.14,.31,1.81,.22,.65-.09,1.23-.31,1.76-.66,.52-.35,.94-.8,1.25-1.35,.31-.55,.48-1.16,.51-1.84-1.25,.12-2.5,.24-3.76,.36v-.46c1.44-.13,2.87-.26,4.31-.38,0,.11,0,.23,0,.34-.02,.75-.2,1.43-.55,2.07-.35,.64-.83,1.17-1.45,1.59-.61,.42-1.3,.7-2.07,.81-.78,.11-1.49,.03-2.12-.26-.63-.29-1.11-.75-1.46-1.38-.35-.64-.51-1.39-.5-2.25,.01-.87,.2-1.66,.56-2.36,.36-.7,.85-1.25,1.47-1.65,.62-.4,1.31-.61,2.08-.64,.89-.04,1.67,.16,2.32,.56,.65,.41,1.14,.98,1.44,1.72l-.62,.04Z"/><path class="cls-7" d="M876.56,598.95c.08,2.4,.15,4.8,.23,7.2l-.55,.08c-.03-1.17-.07-2.34-.1-3.51-1.64,.15-3.28,.3-4.92,.46l.05,3.76-.55,.08c-.03-2.6-.06-5.21-.1-7.81l.53-.02c.02,1.19,.03,2.39,.05,3.58,1.64-.14,3.28-.29,4.91-.43-.03-1.12-.07-2.23-.1-3.35l.53-.02Z"/><path class="cls-7" d="M879.01,598.85c.06,1.45,.12,2.9,.17,4.35,.03,.79,.27,1.34,.72,1.64,.45,.31,1.05,.4,1.8,.3,.74-.1,1.32-.35,1.73-.75,.41-.4,.59-.96,.55-1.69-.08-1.35-.16-2.69-.24-4.04,.18,0,.36-.01,.53-.02,.08,1.33,.16,2.66,.25,4,.05,.83-.18,1.48-.68,1.97-.51,.48-1.21,.8-2.11,.92-.9,.13-1.63,.01-2.19-.36-.56-.37-.86-1.02-.89-1.92-.06-1.46-.11-2.91-.17-4.37,.18,0,.36-.01,.53-.02Z"/><path class="cls-7" d="M887.61,604.48c-.42-.08-.76-.23-1-.44-.25-.21-.4-.47-.45-.76l.57-.07c.09,.32,.32,.58,.68,.78,.37,.2,.91,.25,1.63,.16,.42-.06,.78-.16,1.08-.31,.3-.15,.53-.32,.68-.52,.15-.2,.22-.41,.2-.63-.03-.28-.14-.49-.36-.63-.21-.14-.47-.24-.77-.3-.3-.05-.7-.11-1.21-.16-.55-.05-1-.12-1.34-.19-.34-.07-.63-.21-.87-.42-.24-.2-.38-.5-.4-.88-.02-.3,.07-.57,.26-.83,.19-.26,.48-.46,.86-.62,.38-.16,.82-.24,1.33-.26,.74-.03,1.34,.08,1.81,.31,.47,.23,.77,.52,.9,.88l-.57,.04c-.06-.14-.18-.29-.36-.43-.18-.14-.42-.26-.72-.35-.31-.09-.66-.13-1.08-.11-.55,.02-1.01,.16-1.38,.4-.36,.24-.53,.56-.51,.93,.02,.3,.14,.53,.35,.69,.21,.16,.47,.28,.77,.34,.3,.07,.7,.12,1.2,.17,.56,.06,1.01,.12,1.34,.19,.33,.07,.62,.19,.87,.37,.25,.18,.39,.44,.42,.79,.02,.25-.05,.51-.23,.76-.18,.25-.46,.48-.84,.68-.38,.2-.85,.34-1.41,.42-.55,.08-1.04,.08-1.46,0Z"/></g></g><polyline class="cls-3" points="990.22 1139.27 1189.02 1139.27 1193.68 589.07 1198.9 589.07 1195.01 1139.27 1405.78 1138.77"/><polyline class="cls-1" points="1508.47 852.94 1508.47 685.01 1659.73 681.41 1659.73 946.7 1508.47 946.7 1508.47 852.94"/><polygon class="cls-1" points="1516.62 696.67 1651.12 693.37 1651.12 936.03 1516.62 936.03 1516.62 696.67"/><line class="cls-3" x1="990.88" y1="1145.47" x2="1405.61" y2="1145.47"/><path class="cls-4" d="M1524.79,723.91c58.07-19.48,79.34-23.47,79.34-23.47"/><path class="cls-4" d="M1552.16,722.59c58.07-19.48,79.34-23.47,79.34-23.47"/><path class="cls-4" d="M1526.74,738.87c58.07-19.48,79.34-23.47,79.34-23.47"/><path class="cls-4" d="M1560.74,738.87c58.07-19.48,79.34-23.47,79.34-23.47"/><path class="cls-4" d="M1524.79,759.39c58.07-19.48,79.34-23.47,79.34-23.47"/><path class="cls-4" d="M1530.4,774.95c58.07-19.48,79.34-23.47,79.34-23.47"/><path class="cls-4" d="M1557.77,773.63c58.07-19.48,79.34-23.47,79.34-23.47"/><path class="cls-4" d="M1532.35,789.91c58.07-19.48,79.34-23.47,79.34-23.47"/><path class="cls-4" d="M1566.35,789.91c58.07-19.48,79.34-23.47,79.34-23.47"/><path class="cls-4" d="M1530.4,810.43c58.07-19.48,79.34-23.47,79.34-23.47"/><path class="cls-4" d="M1640.44,889.03c-58.07,19.48-79.34,23.47-79.34,23.47"/><path class="cls-4" d="M1613.08,890.34c-58.07,19.48-79.34,23.47-79.34,23.47"/><path class="cls-4" d="M1638.5,874.06c-58.07,19.48-79.34,23.47-79.34,23.47"/><path class="cls-4" d="M1604.5,874.06c-58.07,19.48-79.34,23.47-79.34,23.47"/><path class="cls-4" d="M1640.44,853.54c-58.07,19.48-79.34,23.47-79.34,23.47"/><path class="cls-4" d="M1634.84,837.99c-58.07,19.48-79.34,23.47-79.34,23.47"/><path class="cls-4" d="M1607.47,839.3c-58.07,19.48-79.34,23.47-79.34,23.47"/><path class="cls-4" d="M1632.89,823.02c-58.07,19.48-79.34,23.47-79.34,23.47"/><path class="cls-4" d="M1598.89,823.02c-58.07,19.48-79.34,23.47-79.34,23.47"/><path class="cls-4" d="M1634.84,802.5c-58.07,19.48-79.34,23.47-79.34,23.47"/><path class="cls-1" d="M245.83,1326.88s-45.53-235.46-43.37-261.38c0,0,264.98,12.96,287.3,0,0,0-29.52,244.1-30.24,246.98-.72,2.88-92.55,38.88-213.69,14.4Z"/><path class="cls-1" d="M248.78,1323.6s-44.14-229.15-42.05-254.38c0,0,256.88,12.61,278.52,0,0,0-28.62,237.56-29.32,240.36-.7,2.8-89.72,37.84-207.15,14.02Z"/><path class="cls-1" d="M2033.15,1160.13c-6.54-53.35-11.84-103.13-10.36-114.16,0,0,263.99,26.35,286.94,14.54,0,0-9.01,52.2-18.76,108.42"/><path class="cls-1" d="M2290.97,1168.93c-11.25,64.91-23.48,135.19-23.94,136.71-.86,2.84-94.4,34.15-214.14,3.57,0,0-10.99-77.73-19.74-149.08"/><path class="cls-1" d="M2056,1306.08s-32.49-231.09-29.12-256.18c0,0,255.91,25.59,278.16,14.09,0,0-40.6,235.81-41.44,238.57s-91.52,33.25-207.6,3.52Z"/><path class="cls-1" d="M202.38,1078.93s-59.81-25.53-36.32-48.34,24.17-13.28,24.17-13.28c0,0-38.47-24.85-10.21-34.72,0,0-12.26-28.26,13.96-21.79,0,0,21.45-49.02,49.02-19.74,0,0,1.92-18.43,27.91-17.02,12.6,.68,26.55-4.43,26.55-4.43,0,0,28.22-22.47,48.49,0s35.93-1.7,35.93-1.7c0,0,11.57-19.74,44.26,4.09,0,0,26.55-29.62,38.47,2.38,0,0,43.57,2.72,28.94,30.64,0,0,50.72,22.81,16.68,48.34,0,0,37.81,10.89,11.76,28.94,0,0,19.22,42.55-4.27,44.94,0,0,8,20.15-11.57,17.36s-16.38-20.09-16.38-20.09"/><path class="cls-1" d="M2022.65,1066.47s-59.81-25.53-36.32-48.34,24.17-13.28,24.17-13.28c0,0-38.47-24.85-10.21-34.72,0,0-12.26-28.26,13.96-21.79,0,0,21.45-49.02,49.02-19.74,0,0,1.92-18.43,27.91-17.02,12.6,.68,26.55-4.43,26.55-4.43,0,0,28.22-22.47,48.49,0s35.93-1.7,35.93-1.7c0,0,11.57-19.74,44.26,4.09,0,0,26.55-29.62,38.47,2.38,0,0,43.57,2.72,28.94,30.64,0,0,50.72,22.81,16.68,48.34,0,0,37.81,10.89,11.76,28.94,0,0,19.22,42.55-4.27,44.94,0,0,8,20.15-11.57,17.36s-16.38-20.09-16.38-20.09"/></svg>