<svg width="1427" height="1319" viewBox="0 0 1427 1319" fill="none" xmlns="http://www.w3.org/2000/svg">
<path d="M895.451 635.87C895.451 736.468 811.988 818.116 708.909 818.116C605.83 818.116 522.366 736.468 522.366 635.87C522.366 535.272 605.83 453.624 708.909 453.624C811.988 453.624 895.451 535.272 895.451 635.87Z" stroke="black" stroke-opacity="0.01" stroke-width="5"/>
<path d="M442.392 419.284C420.072 404.338 390.229 387.894 353.011 375.798C274.908 350.385 206.35 357.755 169.203 364.751C124.096 289.951 141.753 192.622 209.777 138.778L209.777 138.778C276.603 85.8708 373.843 89.2991 437.357 147.205C426.952 188.597 417.379 247.773 423.408 318.185C426.736 357.129 434.134 391.161 442.392 419.284Z" stroke="black" stroke-opacity="0.01" stroke-width="5"/>
<path d="M385.248 906.302C423.79 900.231 455.786 888.719 480.143 877.49C467.524 904.007 454.814 936.49 445.295 974.507L445.295 974.508C428.099 1043.23 428.067 1103.34 431.697 1145.96C359.923 1193.18 263.708 1181.1 206.403 1118.14C148.079 1054.04 146.237 954.891 202.6 888.016C238.038 900.847 304.333 919.03 385.248 906.302L385.248 906.302Z" stroke="black" stroke-opacity="0.01" stroke-width="5"/>
<path d="M701.951 357.872C694.926 332.601 683.209 301.421 663.034 268.746L661.083 269.95L663.034 268.745C620.73 200.239 563.984 161.958 531.231 143.437C546.585 59.6031 624.29 -0.977745 711.44 2.65504C797.05 6.23071 868.311 70.7293 878.111 153.849C842.868 177.765 796.477 215.31 754.478 271.116C731.224 301.996 714.308 331.837 701.951 357.872Z" stroke="black" stroke-opacity="0.01" stroke-width="5"/>
<path d="M647.395 1047.66L647.396 1047.66C668.696 1015.07 683.742 983.912 694.485 956.87C703.04 982.002 716.658 1012.83 738.813 1044.69L738.813 1044.69C785.247 1111.46 844.25 1146.83 878.083 1163.62C867.916 1249.3 794.079 1315.03 706.864 1316.48C621.211 1317.88 546.071 1256.85 531.18 1173.39C564.894 1147.19 608.902 1106.5 647.395 1047.66Z" stroke="black" stroke-opacity="0.01" stroke-width="5"/>
<path d="M280.713 585.685C311.258 609.621 341.392 625.159 366.166 635.36C338.07 643.876 305.5 656.309 271.037 674.723L271.037 674.723C208.671 708.063 164.288 748.116 135.293 779.173C51.7939 758.532 -4.47106 680.571 3.1984 596.998L0.708862 596.769L3.1984 596.998C11.0057 511.912 82.9036 444.452 170.482 440.796C185.025 475.104 216.52 535.396 280.713 585.685Z" stroke="black" stroke-opacity="0.01" stroke-width="5"/>
<path d="M1046.28 375.802C1009.62 387.885 980.224 404.306 958.225 419.239C966.362 391.124 973.651 357.107 976.93 318.183C982.874 247.766 973.434 188.588 963.174 147.197C1025.78 89.3011 1121.61 85.875 1187.48 138.767L1187.48 138.767C1254.54 192.601 1271.96 289.933 1227.49 364.745C1190.85 357.75 1123.27 350.392 1046.28 375.802ZM1046.28 375.802L1047.06 378.176L1046.28 375.802Z" stroke="black" stroke-opacity="0.01" stroke-width="5"/>
<path d="M959.139 974.515C949.747 936.507 937.208 904.029 924.758 877.516C948.789 888.737 980.345 900.235 1018.35 906.301L1018.35 906.301C1098.19 919.027 1163.6 900.858 1198.59 888.026C1254.2 954.906 1252.37 1054.05 1194.82 1118.15C1138.28 1181.11 1043.36 1193.18 972.556 1145.96C976.14 1103.35 976.11 1043.24 959.139 974.515L959.139 974.515Z" stroke="black" stroke-opacity="0.01" stroke-width="5"/>
<path d="M1064.46 635.36C1088.96 625.158 1118.75 609.617 1148.95 585.676C1212.4 535.39 1243.54 475.104 1257.91 440.798C1344.44 444.465 1415.5 511.898 1423.22 596.995C1430.8 680.582 1375.18 758.523 1292.69 779.167C1264.03 748.112 1220.16 708.065 1158.51 674.729L1158.51 674.728C1124.44 656.312 1092.24 643.878 1064.46 635.36Z" stroke="black" stroke-opacity="0.01" stroke-width="5"/>
</svg>
