<svg width="134" height="123" viewBox="0 0 134 123" fill="none" xmlns="http://www.w3.org/2000/svg">
<path d="M67.6501 103.65L67.0001 104.3L66.2501 103.65C34.6001 74.9 13.6501 55.9 13.6501 36.65C13.6501 23.3 23.6501 13.3 37.0001 13.3C47.2501 13.3 57.2501 19.95 60.8001 29.05H73.2001C76.7501 20 86.7501 13.3 97.0001 13.3C110.35 13.3 120.35 23.3 120.35 36.65C120.35 55.9 99.4001 74.9 67.7001 103.65H67.6501ZM97.0001 0C85.4001 0 74.2501 5.4 67.0001 13.85C59.7501 5.4 48.6001 0 37.0001 0C16.4501 0 0.350098 16.05 0.350098 36.65C0.350098 61.8 23.0001 82.4 57.3501 113.5L67.0001 122.3L76.6501 113.5C111 82.35 133.65 61.75 133.65 36.65C133.65 16.05 117.5 0 97.0001 0Z" fill="#BA0930"/>
</svg>
