<svg width="311" height="287" viewBox="0 0 311 287" fill="none" xmlns="http://www.w3.org/2000/svg">
<path d="M154.285 179.777C177.008 179.777 195.428 162.111 195.428 140.318C195.428 118.525 177.008 100.858 154.285 100.858C131.563 100.858 113.143 118.525 113.143 140.318C113.143 162.111 131.563 179.777 154.285 179.777Z" fill="#DD9023"/>
<path d="M105.662 95.3525C103.699 89.1089 101.887 81.3749 101.107 72.4191C99.7861 57.2778 101.924 44.5802 104.208 35.7676C90.1948 23.0164 68.5719 22.1973 53.7331 33.7267C38.6145 45.4709 34.766 66.7573 44.972 83.0041C52.9166 81.5002 67.9343 79.804 85.0757 85.2777C93.846 88.075 100.722 91.9689 105.662 95.3525Z" fill="#396E27"/>
<path d="M105.662 190.789C102.713 196.663 99.672 204.031 97.4407 212.776C93.6729 227.552 93.7095 240.458 94.5234 249.535C78.6523 259.972 57.2438 257.406 44.5186 243.684C31.5556 229.702 31.2309 208.033 43.9241 193.544C51.4962 196.272 66.0002 200.293 83.7598 197.551C92.8453 196.147 100.248 193.369 105.662 190.794V190.789Z" fill="#396E27"/>
<path d="M154.864 78.0011C157.586 72.1641 161.427 65.3252 166.873 58.2281C176.077 46.226 186.256 38.1969 193.923 33.1213C191.909 14.941 176.095 0.812424 157.094 0.0335807C137.735 -0.758389 120.472 12.5432 117.248 30.916C124.276 34.7753 136.787 42.9225 146.074 57.6811C150.825 65.2333 153.405 72.4092 154.868 77.9967L154.864 78.0011Z" fill="#EFEDB7"/>
<path d="M151.186 207.307C148.831 213.362 145.428 220.493 140.442 227.978C132.007 240.633 122.349 249.337 115.013 254.9C118.163 273.154 134.836 286.526 153.849 286.22C173.226 285.906 189.618 271.479 191.688 252.725C184.43 249.231 171.433 241.714 161.24 227.332C156.025 219.97 152.998 212.87 151.191 207.307H151.186Z" fill="#EFEDB7"/>
<path d="M81.346 140.286C74.9331 142.1 67.3292 144.848 59.2444 149.087C45.5804 156.256 35.9015 164.885 29.6261 171.518C11.0287 167.164 -1.54972 150.189 0.154275 131.967C1.89033 113.399 17.9638 98.7206 37.4589 98.1055C40.5371 105.323 47.3394 118.346 61.4294 129.179C68.6393 134.723 75.7439 138.144 81.3506 140.286H81.346Z" fill="#EFEDB7"/>
<path d="M204.506 99.7279C206.661 93.5536 208.718 85.8848 209.802 76.9603C211.636 61.8723 209.977 49.1109 208.036 40.2271C222.293 27.9518 243.627 27.8558 257.842 39.8742C272.326 52.1166 275.369 73.5189 264.741 89.4149C256.965 87.6465 242.228 85.4494 225.145 90.3471C216.405 92.8496 209.493 96.5114 204.506 99.7279Z" fill="#396E27"/>
<path d="M200.104 190.789C203.014 196.663 206.015 204.031 208.217 212.776C211.935 227.552 211.899 240.458 211.096 249.535C226.758 259.972 247.885 257.406 260.443 243.684C273.235 229.702 273.556 208.033 261.03 193.544C253.557 196.272 239.244 200.293 221.718 197.551C212.752 196.147 205.447 193.369 200.104 190.794V190.789Z" fill="#396E27"/>
<path d="M230.03 140.286C236.369 142.1 243.886 144.848 251.877 149.087C265.384 156.256 274.952 164.885 281.155 171.518C299.539 167.164 311.973 150.189 310.288 131.966C308.572 113.399 292.684 98.7206 273.412 98.1055C270.37 105.323 263.646 118.346 249.718 129.179C242.591 134.723 235.568 138.144 230.025 140.286H230.03Z" fill="#EFEDB7"/>
</svg>
