<?xml version="1.0" encoding="UTF-8"?><svg id="a" xmlns="http://www.w3.org/2000/svg" width="1068.21" height="1061.63" viewBox="0 0 1068.21 1061.63"><defs><style>.b{fill:#0c0c0c;}.c{fill:none;stroke:#0c0c0c;stroke-miterlimit:10;stroke-width:87px;}</style></defs><path class="b" d="M527.16,365.05c-7.33-4.32-10.56-9.08-12.15-12.63-1.5-3.35-2.17-9.5-3.51-21.79-.21-1.88-.71-6.69-2.71-12.65-.38-1.14-.74-2.06-.98-2.68-2.58-3.91-8.29-11.36-18.35-16.5-14.68-7.5-28.66-5-32.91-4.07,1.54,.64,5.31,2.46,7.98,6.65,3.94,6.19,2.37,12.72,2.07,13.89-.38,4.44-.57,9.37-.41,14.7,.26,8.33,1.32,15.71,2.62,21.94,.97,2.22,7.37,16.2,23.19,21.27,0,0,14.02,4.49,29.25-2.66,2.18-1.02,3.69-2.51,3.69-2.51,1.09-1.07,1.78-2.16,2.22-2.95Z"/><path class="b" d="M513.33,407.35c-8.44-1.06-13.91,.74-17.34,2.58-3.24,1.74-7.52,6.19-16.09,15.11-1.31,1.37-4.64,4.86-9.88,8.35-1,.67-1.84,1.18-2.41,1.52-4.43,1.51-13.5,3.93-24.61,1.85-16.21-3.03-25.74-13.55-28.54-16.88,1.61,.43,5.71,1.3,10.38-.39,6.9-2.49,9.65-8.62,10.12-9.73,2.41-3.75,5.27-7.76,8.66-11.88,5.29-6.44,10.64-11.63,15.48-15.76,2.12-1.16,15.73-8.33,31.36-2.67,0,0,13.84,5.01,21.53,19.98,1.1,2.14,1.39,4.24,1.39,4.24,.21,1.51,.09,2.8-.05,3.69Z"/><path class="b" d="M456.55,352.84c-6.55-5.44-8.96-10.66-9.96-14.42-.95-3.55-.62-9.72,.04-22.07,.1-1.89,.38-6.71-.65-12.92-.2-1.19-.4-2.16-.54-2.8-1.92-4.27-6.36-12.54-15.47-19.24-13.28-9.76-27.48-9.54-31.83-9.3,1.42,.88,4.85,3.28,6.81,7.84,2.9,6.74,.3,12.93-.19,14.04-1.09,4.32-2.07,9.15-2.76,14.44-1.08,8.26-1.22,15.72-.94,22.07,.6,2.35,4.67,17.18,19.48,24.72,0,0,13.11,6.68,29.3,2.07,2.32-.66,4.05-1.89,4.05-1.89,1.24-.88,2.11-1.84,2.66-2.56Z"/><path class="b" d="M436.1,392.36c-8.16-2.41-13.85-1.5-17.52-.24-3.47,1.19-8.42,4.9-18.31,12.33-1.52,1.14-5.36,4.05-11.09,6.66-1.09,.5-2.01,.87-2.63,1.12-4.62,.78-13.96,1.71-24.59-2.13-15.51-5.59-23.23-17.51-25.45-21.25,1.52,.69,5.43,2.2,10.3,1.28,7.21-1.35,10.91-6.96,11.55-7.98,2.98-3.31,6.45-6.82,10.46-10.34,6.26-5.5,12.37-9.77,17.81-13.07,2.28-.81,16.86-5.69,31.38,2.4,0,0,12.85,7.17,18.04,23.17,.74,2.29,.69,4.41,.69,4.41-.04,1.52-.36,2.78-.64,3.64Z"/><path class="b" d="M536.88,364.79c7.11-4.68,10.09-9.61,11.49-13.23,1.33-3.42,1.69-9.6,2.4-21.94,.11-1.89,.37-6.71,2.07-12.77,.33-1.16,.63-2.1,.84-2.73,2.38-4.03,7.7-11.76,17.49-17.41,14.28-8.24,28.37-6.45,32.66-5.73-1.5,.72-5.18,2.73-7.63,7.04-3.62,6.38-1.72,12.82-1.36,13.97,.61,4.42,1.05,9.33,1.15,14.66,.16,8.33-.52,15.76-1.51,22.04-.86,2.27-6.54,16.56-22.09,22.42,0,0-13.77,5.19-29.35-1.17-2.23-.91-3.82-2.32-3.82-2.32-1.14-1.01-1.89-2.06-2.36-2.84Z"/><path class="b" d="M552.84,406.33c8.38-1.49,13.93,.03,17.44,1.69,3.32,1.57,7.83,5.8,16.84,14.27,1.38,1.3,4.88,4.62,10.29,7.84,1.03,.62,1.9,1.09,2.49,1.4,4.5,1.29,13.68,3.24,24.68,.6,16.03-3.85,25.02-14.84,27.64-18.31-1.59,.51-5.64,1.59-10.38,.14-7.02-2.14-10.07-8.12-10.6-9.2-2.6-3.62-5.66-7.49-9.25-11.43-5.61-6.16-11.22-11.08-16.26-14.96-2.18-1.05-16.13-7.52-31.45-1.08,0,0-13.57,5.7-20.49,21.04-.99,2.2-1.17,4.31-1.17,4.31-.13,1.52,.05,2.8,.24,3.69Z"/><path class="b" d="M606.78,349.01c6.26-5.76,8.41-11.1,9.22-14.9,.76-3.59,.12-9.74-1.15-22.04-.2-1.89-.72-6.69,0-12.94,.14-1.19,.29-2.17,.39-2.83,1.7-4.36,5.71-12.85,14.47-20,12.77-10.42,26.96-10.92,31.31-10.9-1.37,.95-4.68,3.52-6.4,8.18-2.55,6.88,.36,12.93,.9,14.01,1.31,4.26,2.53,9.04,3.49,14.28,1.5,8.2,2.02,15.64,2.05,22-.48,2.37-3.79,17.39-18.2,25.68,0,0-12.76,7.34-29.15,3.56-2.35-.54-4.14-1.68-4.14-1.68-1.29-.82-2.2-1.73-2.79-2.42Z"/><path class="b" d="M629.21,387.45c8.03-2.82,13.75-2.2,17.49-1.13,3.53,1.02,8.66,4.47,18.91,11.38,1.57,1.06,5.56,3.78,11.41,6.09,1.12,.44,2.05,.77,2.68,.98,4.65,.55,14.03,1,24.45-3.37,15.21-6.37,22.31-18.66,24.35-22.51-1.48,.76-5.31,2.47-10.23,1.8-7.27-.99-11.25-6.4-11.94-7.38-3.15-3.16-6.79-6.48-10.97-9.8-6.53-5.18-12.85-9.13-18.45-12.15-2.32-.69-17.13-4.83-31.22,3.99,0,0-12.47,7.81-16.85,24.06-.63,2.33-.47,4.44-.47,4.44,.12,1.52,.5,2.75,.83,3.6Z"/><ellipse class="c" cx="534.11" cy="530.82" rx="490.61" ry="487.32"/><g><path d="M165.33,586.95v-91.12h17.9l37.29,60.85v-60.85h17.09v91.12h-18.46l-36.73-59.42v59.42h-17.09Z"/><path d="M324.82,502.48l9.82-11,8.64,7.58-10.38,11.69c2.78,3.73,4.93,8.32,6.46,13.77,1.53,5.45,2.3,11.24,2.3,17.37,0,14.46-4,25.85-12,34.15-8,8.31-18.56,12.46-31.7,12.46-11.4,0-20.51-2.59-27.35-7.77l-10.07,11.31-8.83-7.71,10.63-11.93c-6.05-8.08-9.07-18.6-9.07-31.57,0-14.38,4-25.73,12-34.06,8-8.33,18.67-12.49,32.01-12.49,11.06,0,20.24,2.73,27.53,8.2Zm-11.44,12.8c-4.19-3.56-9.49-5.35-15.91-5.35-7.54,0-13.63,2.6-18.27,7.8-4.64,5.2-6.96,13.04-6.96,23.53,0,6.59,.95,12.22,2.86,16.91l38.29-42.89Zm6.77,9.76l-38.23,42.95c4.27,3.73,9.41,5.59,15.41,5.59,7.38,0,13.44-2.67,18.18-8.02,4.74-5.35,7.12-13.32,7.12-23.93,0-6.71-.83-12.24-2.49-16.6Z"/><path d="M356.14,586.95v-91.12h38.72c9.74,0,16.81,.82,21.23,2.46,4.41,1.64,7.94,4.55,10.6,8.73,2.65,4.19,3.98,8.97,3.98,14.36,0,6.84-2.01,12.48-6.03,16.94-4.02,4.46-10.03,7.26-18.02,8.42,3.98,2.32,7.26,4.87,9.85,7.65,2.59,2.78,6.08,7.71,10.47,14.79l11.13,17.78h-22l-13.3-19.83c-4.72-7.09-7.96-11.55-9.7-13.39-1.74-1.84-3.58-3.11-5.53-3.79-1.95-.68-5.03-1.03-9.26-1.03h-3.73v38.04h-18.4Zm18.4-52.58h13.61c8.83,0,14.34-.37,16.53-1.12,2.2-.75,3.92-2.03,5.16-3.85,1.24-1.82,1.86-4.1,1.86-6.84,0-3.07-.82-5.54-2.46-7.43-1.64-1.88-3.95-3.08-6.93-3.57-1.49-.21-5.97-.31-13.43-.31h-14.36v23.12Z"/><path d="M448.07,586.95v-91.12h38.72c9.74,0,16.81,.82,21.23,2.46,4.41,1.64,7.95,4.55,10.6,8.73,2.65,4.19,3.98,8.97,3.98,14.36,0,6.84-2.01,12.48-6.03,16.94-4.02,4.46-10.03,7.26-18.02,8.42,3.98,2.32,7.26,4.87,9.85,7.65,2.59,2.78,6.08,7.71,10.47,14.79l11.13,17.78h-22l-13.3-19.83c-4.72-7.09-7.96-11.55-9.7-13.39-1.74-1.84-3.58-3.11-5.53-3.79-1.95-.68-5.03-1.03-9.26-1.03h-3.73v38.04h-18.4Zm18.4-52.58h13.61c8.83,0,14.34-.37,16.53-1.12,2.2-.75,3.92-2.03,5.16-3.85,1.24-1.82,1.87-4.1,1.87-6.84,0-3.07-.82-5.54-2.46-7.43-1.64-1.88-3.95-3.08-6.93-3.57-1.49-.21-5.97-.31-13.42-.31h-14.36v23.12Z"/><path d="M539.94,586.95v-91.12h67.56v15.41h-49.16v20.2h45.75v15.35h-45.75v24.8h50.9v15.35h-69.3Z"/><path d="M624.9,495.83h36.42c7.21,0,12.59,.3,16.13,.9,3.54,.6,6.71,1.85,9.51,3.76,2.8,1.91,5.13,4.44,6.99,7.61s2.8,6.72,2.8,10.66c0,4.27-1.15,8.18-3.45,11.75-2.3,3.56-5.42,6.24-9.35,8.02,5.55,1.62,9.82,4.37,12.8,8.27,2.98,3.9,4.48,8.47,4.48,13.74,0,4.14-.96,8.17-2.89,12.09-1.93,3.92-4.56,7.04-7.89,9.38-3.34,2.34-7.45,3.78-12.34,4.32-3.07,.33-10.46,.54-22.19,.62h-31.01v-91.12Zm18.4,15.17v21.07h12.06c7.17,0,11.62-.1,13.36-.31,3.15-.37,5.62-1.46,7.43-3.26,1.8-1.8,2.7-4.17,2.7-7.12s-.78-5.11-2.33-6.87c-1.55-1.76-3.86-2.83-6.93-3.2-1.82-.21-7.07-.31-15.73-.31h-10.57Zm0,36.24v24.37h17.03c6.63,0,10.84-.19,12.62-.56,2.73-.5,4.96-1.71,6.68-3.64,1.72-1.93,2.58-4.51,2.58-7.74,0-2.73-.66-5.05-1.99-6.96-1.33-1.91-3.24-3.29-5.75-4.16-2.51-.87-7.95-1.31-16.32-1.31h-14.86Z"/><path d="M716.83,586.95v-91.12h38.72c9.74,0,16.81,.82,21.23,2.46,4.41,1.64,7.95,4.55,10.6,8.73,2.65,4.19,3.98,8.97,3.98,14.36,0,6.84-2.01,12.48-6.03,16.94-4.02,4.46-10.03,7.26-18.02,8.42,3.98,2.32,7.26,4.87,9.85,7.65,2.59,2.78,6.08,7.71,10.47,14.79l11.13,17.78h-22l-13.3-19.83c-4.72-7.09-7.96-11.55-9.7-13.39-1.74-1.84-3.58-3.11-5.53-3.79-1.95-.68-5.03-1.03-9.26-1.03h-3.73v38.04h-18.4Zm18.4-52.58h13.61c8.83,0,14.34-.37,16.53-1.12,2.2-.75,3.92-2.03,5.16-3.85,1.24-1.82,1.87-4.1,1.87-6.84,0-3.07-.82-5.54-2.46-7.43-1.64-1.88-3.95-3.08-6.93-3.57-1.49-.21-5.97-.31-13.42-.31h-14.36v23.12Z"/><path d="M804.96,541.95c0-9.28,1.39-17.07,4.16-23.37,2.07-4.64,4.9-8.8,8.48-12.49,3.58-3.69,7.51-6.42,11.78-8.2,5.68-2.4,12.22-3.6,19.64-3.6,13.42,0,24.17,4.16,32.23,12.49,8.06,8.33,12.09,19.91,12.09,34.75s-4,26.22-12,34.53c-8,8.31-18.69,12.46-32.07,12.46s-24.32-4.13-32.32-12.4-12-19.65-12-34.15Zm18.96-.62c0,10.32,2.38,18.14,7.15,23.46,4.76,5.33,10.81,7.99,18.15,7.99s13.35-2.64,18.06-7.92c4.7-5.28,7.05-13.21,7.05-23.77s-2.29-18.23-6.87-23.37c-4.58-5.14-10.66-7.71-18.24-7.71s-13.7,2.6-18.34,7.8c-4.64,5.2-6.96,13.04-6.96,23.53Z"/><path d="M220.59,621.97h36.42c7.21,0,12.59,.3,16.13,.9,3.54,.6,6.71,1.86,9.51,3.76,2.8,1.91,5.13,4.44,6.99,7.61s2.8,6.72,2.8,10.66c0,4.27-1.15,8.18-3.45,11.75-2.3,3.56-5.42,6.24-9.35,8.02,5.55,1.62,9.82,4.37,12.8,8.27,2.98,3.9,4.48,8.47,4.48,13.74,0,4.14-.96,8.17-2.89,12.09-1.93,3.92-4.56,7.04-7.89,9.38-3.34,2.34-7.45,3.78-12.34,4.32-3.07,.33-10.46,.54-22.19,.62h-31.02v-91.12Zm18.4,15.17v21.07h12.06c7.17,0,11.62-.1,13.36-.31,3.15-.37,5.62-1.46,7.43-3.26,1.8-1.8,2.7-4.17,2.7-7.12s-.78-5.11-2.33-6.87c-1.55-1.76-3.86-2.83-6.93-3.2-1.82-.21-7.06-.31-15.73-.31h-10.57Zm0,36.24v24.36h17.03c6.63,0,10.84-.19,12.62-.56,2.73-.5,4.96-1.71,6.68-3.64,1.72-1.93,2.58-4.51,2.58-7.74,0-2.73-.66-5.05-1.99-6.96-1.33-1.91-3.24-3.29-5.75-4.16-2.51-.87-7.95-1.31-16.32-1.31h-14.85Z"/><path d="M312.51,713.09v-91.12h38.72c9.74,0,16.81,.82,21.23,2.46,4.41,1.64,7.94,4.55,10.6,8.73,2.65,4.19,3.98,8.97,3.98,14.36,0,6.84-2.01,12.48-6.03,16.94-4.02,4.45-10.03,7.26-18.02,8.42,3.98,2.32,7.26,4.87,9.85,7.64,2.59,2.78,6.08,7.71,10.47,14.79l11.13,17.78h-22l-13.3-19.83c-4.72-7.09-7.96-11.55-9.7-13.39-1.74-1.84-3.58-3.11-5.53-3.79-1.95-.68-5.03-1.03-9.26-1.03h-3.73v38.04h-18.4Zm18.4-52.58h13.61c8.83,0,14.34-.37,16.53-1.12,2.2-.75,3.92-2.03,5.16-3.85,1.24-1.82,1.86-4.1,1.86-6.84,0-3.07-.82-5.54-2.46-7.43-1.64-1.89-3.95-3.08-6.93-3.57-1.49-.21-5.97-.31-13.43-.31h-14.36v23.12Z"/><path d="M423.58,713.09v-38.35l-33.38-52.77h21.57l21.44,36.05,21.01-36.05h21.19l-33.5,52.89v38.23h-18.34Z"/><path d="M526.94,679.59v-15.35h39.66v36.3c-3.86,3.73-9.44,7.01-16.75,9.85-7.31,2.84-14.72,4.26-22.22,4.26-9.53,0-17.84-2-24.92-6-7.09-4-12.41-9.72-15.97-17.15-3.56-7.44-5.35-15.53-5.35-24.27,0-9.49,1.99-17.92,5.97-25.3,3.98-7.38,9.8-13.03,17.46-16.97,5.84-3.02,13.12-4.54,21.82-4.54,11.31,0,20.15,2.37,26.51,7.12,6.36,4.75,10.45,11.3,12.28,19.67l-18.27,3.42c-1.29-4.47-3.7-8.01-7.24-10.6-3.54-2.59-7.96-3.88-13.27-3.88-8.04,0-14.43,2.55-19.17,7.64-4.75,5.1-7.12,12.66-7.12,22.69,0,10.82,2.4,18.93,7.21,24.33s11.11,8.11,18.9,8.11c3.85,0,7.72-.76,11.59-2.27,3.87-1.51,7.2-3.35,9.97-5.5v-11.56h-21.07Z"/><path d="M583.63,713.09v-91.12h18.4v35.86h36.05v-35.86h18.4v91.12h-18.4v-39.84h-36.05v39.84h-18.4Z"/><path d="M675.37,621.97h18.4v49.35c0,7.83,.23,12.91,.68,15.23,.79,3.73,2.66,6.72,5.62,8.98,2.96,2.26,7.01,3.39,12.15,3.39s9.16-1.07,11.81-3.2c2.65-2.13,4.25-4.75,4.79-7.86,.54-3.11,.81-8.27,.81-15.48v-50.41h18.4v47.86c0,10.94-.5,18.67-1.49,23.18-.99,4.52-2.83,8.33-5.5,11.44-2.67,3.11-6.25,5.58-10.72,7.43-4.47,1.84-10.32,2.77-17.53,2.77-8.7,0-15.3-1-19.8-3.01-4.5-2.01-8.05-4.62-10.66-7.83-2.61-3.21-4.33-6.58-5.16-10.1-1.2-5.22-1.8-12.93-1.8-23.12v-48.61Z"/><path d="M762.76,683.44l17.9-1.74c1.08,6.01,3.26,10.42,6.56,13.24,3.29,2.82,7.74,4.23,13.33,4.23,5.92,0,10.39-1.25,13.39-3.76,3-2.51,4.51-5.44,4.51-8.79,0-2.15-.63-3.99-1.9-5.5-1.26-1.51-3.47-2.83-6.62-3.95-2.15-.75-7.06-2.07-14.73-3.98-9.86-2.44-16.78-5.45-20.76-9.01-5.59-5.01-8.39-11.12-8.39-18.33,0-4.64,1.32-8.98,3.95-13.02,2.63-4.04,6.42-7.12,11.37-9.23,4.95-2.11,10.93-3.17,17.93-3.17,11.44,0,20.04,2.51,25.83,7.52,5.78,5.01,8.82,11.71,9.11,20.08l-18.4,.81c-.79-4.68-2.48-8.05-5.07-10.1-2.59-2.05-6.48-3.08-11.65-3.08s-9.53,1.1-12.56,3.29c-1.95,1.41-2.92,3.29-2.92,5.66,0,2.15,.91,4,2.73,5.53,2.32,1.95,7.96,3.98,16.91,6.09s15.57,4.3,19.86,6.56c4.29,2.26,7.65,5.35,10.07,9.26,2.42,3.92,3.64,8.75,3.64,14.51,0,5.22-1.45,10.11-4.35,14.67s-7,7.95-12.31,10.16c-5.3,2.22-11.91,3.33-19.83,3.33-11.52,0-20.37-2.66-26.54-7.99-6.17-5.32-9.86-13.08-11.06-23.28Z"/></g></svg>