<svg width="1919" height="836" viewBox="0 0 1919 836" fill="none" xmlns="http://www.w3.org/2000/svg">
<path d="M1371.87 714.788C1371.31 714.788 1370.92 714.532 1370.72 714.02C1370.39 713.156 1369.99 712.196 1369.52 711.14C1369.05 710.084 1368.55 708.98 1368.02 707.828H1353.89C1353.43 708.98 1352.98 710.084 1352.54 711.14C1352.14 712.164 1351.77 713.108 1351.44 713.972C1351.34 714.228 1351.17 714.436 1350.94 714.596C1350.71 714.724 1350.46 714.788 1350.19 714.788C1349.89 714.788 1349.6 714.676 1349.34 714.452C1349.1 714.196 1348.99 713.892 1348.99 713.54C1348.99 713.444 1349 713.316 1349.04 713.156C1349.1 712.964 1349.25 712.596 1349.49 712.052C1350.05 710.612 1350.72 708.964 1351.49 707.108C1352.29 705.252 1353.14 703.316 1354.04 701.3C1354.95 699.284 1355.86 697.252 1356.8 695.204C1357.73 693.156 1358.64 691.22 1359.5 689.396C1359.74 688.916 1360.14 688.676 1360.71 688.676H1360.91C1361.51 688.676 1361.91 688.9 1362.11 689.348C1363.01 691.204 1363.96 693.204 1364.96 695.348C1366 697.492 1367 699.62 1367.97 701.732C1368.94 703.812 1369.82 705.764 1370.62 707.588C1371.42 709.38 1372.08 710.868 1372.58 712.052C1372.84 712.628 1372.99 713.012 1373.03 713.204C1373.09 713.396 1373.13 713.524 1373.13 713.588C1373.13 713.908 1372.99 714.196 1372.73 714.452C1372.49 714.676 1372.21 714.788 1371.87 714.788ZM1366.97 705.428C1366 703.284 1364.98 701.092 1363.91 698.852C1362.84 696.612 1361.81 694.484 1360.81 692.468C1359.87 694.516 1358.89 696.66 1357.85 698.9C1356.85 701.108 1355.88 703.284 1354.95 705.428H1366.97Z" fill="white"/>
<path d="M1381.8 714.788C1381.46 714.788 1381.16 714.676 1380.89 714.452C1380.66 714.196 1380.54 713.908 1380.54 713.588V690.308C1380.54 689.956 1380.66 689.668 1380.89 689.444C1381.16 689.22 1381.46 689.108 1381.8 689.108H1396.07C1396.44 689.108 1396.74 689.22 1396.97 689.444C1397.2 689.668 1397.32 689.956 1397.32 690.308C1397.32 690.628 1397.2 690.916 1396.97 691.172C1396.74 691.396 1396.44 691.508 1396.07 691.508H1383.05V700.772H1393.51C1393.88 700.772 1394.18 700.884 1394.42 701.108C1394.65 701.332 1394.77 701.62 1394.77 701.972C1394.77 702.292 1394.65 702.58 1394.42 702.836C1394.18 703.06 1393.88 703.172 1393.51 703.172H1383.05V713.588C1383.05 713.908 1382.93 714.196 1382.7 714.452C1382.46 714.676 1382.16 714.788 1381.8 714.788Z" fill="white"/>
<path d="M1412.98 714.788C1412.64 714.788 1412.34 714.676 1412.08 714.452C1411.84 714.196 1411.73 713.908 1411.73 713.588V691.508H1402.36C1402.03 691.508 1401.73 691.396 1401.46 691.172C1401.22 690.916 1401.11 690.628 1401.11 690.308C1401.11 689.956 1401.22 689.668 1401.46 689.444C1401.73 689.22 1402.03 689.108 1402.36 689.108H1423.8C1424.16 689.108 1424.46 689.22 1424.7 689.444C1424.93 689.668 1425.05 689.956 1425.05 690.308C1425.05 690.628 1424.93 690.916 1424.7 691.172C1424.46 691.396 1424.16 691.508 1423.8 691.508H1414.23V713.588C1414.23 713.908 1414.11 714.196 1413.88 714.452C1413.65 714.676 1413.35 714.788 1412.98 714.788Z" fill="white"/>
<path d="M1432.91 714.788C1432.57 714.788 1432.27 714.676 1432 714.452C1431.77 714.196 1431.65 713.908 1431.65 713.588V690.308C1431.65 689.988 1431.75 689.716 1431.95 689.492C1432.19 689.236 1432.46 689.108 1432.76 689.108H1446.78C1447.15 689.108 1447.45 689.22 1447.68 689.444C1447.91 689.668 1448.03 689.956 1448.03 690.308C1448.03 690.628 1447.91 690.916 1447.68 691.172C1447.45 691.396 1447.15 691.508 1446.78 691.508H1434.16V699.86H1444.63C1444.99 699.86 1445.29 699.972 1445.53 700.196C1445.76 700.42 1445.88 700.708 1445.88 701.06C1445.88 701.38 1445.76 701.668 1445.53 701.924C1445.29 702.148 1444.99 702.26 1444.63 702.26H1434.16V712.388H1446.88C1447.25 712.388 1447.55 712.5 1447.78 712.724C1448.02 712.948 1448.13 713.236 1448.13 713.588C1448.13 713.908 1448.02 714.196 1447.78 714.452C1447.55 714.676 1447.25 714.788 1446.88 714.788H1432.91Z" fill="white"/>
<path d="M1475.49 714.308C1474.36 712.836 1473.04 711.188 1471.54 709.364C1470.07 707.54 1468.55 705.684 1466.98 703.796C1465.41 701.876 1463.89 700.02 1462.42 698.228C1460.99 696.436 1459.7 694.852 1458.56 693.476V713.588C1458.56 713.908 1458.45 714.196 1458.21 714.452C1457.98 714.676 1457.68 714.788 1457.31 714.788C1456.98 714.788 1456.68 714.676 1456.41 714.452C1456.18 714.196 1456.06 713.908 1456.06 713.588V690.308C1456.06 689.956 1456.18 689.668 1456.41 689.444C1456.68 689.22 1456.96 689.108 1457.26 689.108C1457.93 689.108 1458.38 689.268 1458.61 689.588C1459.45 690.644 1460.53 692.004 1461.87 693.668C1463.21 695.3 1464.66 697.092 1466.23 699.044C1467.83 700.964 1469.43 702.916 1471.04 704.9C1472.67 706.852 1474.17 708.692 1475.54 710.42V690.308C1475.54 689.956 1475.66 689.668 1475.89 689.444C1476.16 689.22 1476.46 689.108 1476.8 689.108C1477.16 689.108 1477.46 689.22 1477.7 689.444C1477.93 689.668 1478.05 689.956 1478.05 690.308V713.588C1478.05 713.908 1477.93 714.196 1477.7 714.452C1477.46 714.676 1477.18 714.788 1476.85 714.788C1476.18 714.788 1475.73 714.628 1475.49 714.308Z" fill="white"/>
<path d="M225.08 713.512C224.746 713.512 224.446 713.4 224.179 713.176C223.945 712.92 223.828 712.632 223.828 712.312V689.032C223.828 688.68 223.945 688.392 224.179 688.168C224.446 687.944 224.746 687.832 225.08 687.832H239.354C239.721 687.832 240.022 687.944 240.256 688.168C240.489 688.392 240.606 688.68 240.606 689.032C240.606 689.352 240.489 689.64 240.256 689.896C240.022 690.12 239.721 690.232 239.354 690.232H226.332V699.496H236.8C237.167 699.496 237.468 699.608 237.701 699.832C237.935 700.056 238.052 700.344 238.052 700.696C238.052 701.016 237.935 701.304 237.701 701.56C237.468 701.784 237.167 701.896 236.8 701.896H226.332V712.312C226.332 712.632 226.215 712.92 225.982 713.176C225.748 713.4 225.448 713.512 225.08 713.512Z" fill="white"/>
<path d="M265.929 713.512C265.562 713.512 265.245 713.368 264.978 713.08L256.814 703.96H250.103V712.312C250.103 712.632 249.986 712.92 249.752 713.176C249.518 713.4 249.218 713.512 248.851 713.512C248.517 713.512 248.216 713.4 247.949 713.176C247.715 712.92 247.598 712.632 247.598 712.312V689.032C247.598 688.68 247.715 688.392 247.949 688.168C248.216 687.944 248.517 687.832 248.851 687.832H256.213C258.183 687.832 259.869 688.184 261.271 688.888C262.707 689.592 263.809 690.552 264.577 691.768C265.378 692.952 265.779 694.328 265.779 695.896C265.779 697.624 265.278 699.192 264.276 700.6C263.308 702.008 261.789 702.984 259.719 703.528L266.881 711.544C267.081 711.736 267.181 711.992 267.181 712.312C267.181 712.6 267.064 712.872 266.831 713.128C266.597 713.384 266.296 713.512 265.929 713.512ZM250.103 690.232V701.56H256.213C258.517 701.56 260.27 701.016 261.472 699.928C262.674 698.808 263.275 697.464 263.275 695.896C263.275 694.2 262.607 692.84 261.271 691.816C259.969 690.76 258.283 690.232 256.213 690.232H250.103Z" fill="white"/>
<path d="M286.158 687.4C288.529 687.4 290.682 687.96 292.619 689.08C294.589 690.2 296.141 691.768 297.277 693.784C298.445 695.768 299.03 698.072 299.03 700.696C299.03 703.192 298.512 705.448 297.477 707.464C296.475 709.448 295.006 711.032 293.07 712.216C291.166 713.368 288.863 713.944 286.158 713.944C283.62 713.944 281.367 713.368 279.397 712.216C277.427 711.032 275.874 709.448 274.739 707.464C273.637 705.48 273.086 703.272 273.086 700.84C273.086 698.152 273.637 695.8 274.739 693.784C275.841 691.768 277.36 690.2 279.297 689.08C281.267 687.96 283.554 687.4 286.158 687.4ZM286.158 689.8C284.055 689.8 282.201 690.28 280.599 691.24C279.029 692.168 277.794 693.464 276.893 695.128C276.024 696.76 275.59 698.664 275.59 700.84C275.59 702.792 276.024 704.584 276.893 706.216C277.794 707.848 279.046 709.144 280.649 710.104C282.251 711.064 284.088 711.544 286.158 711.544C288.362 711.544 290.232 711.064 291.767 710.104C293.337 709.144 294.522 707.848 295.323 706.216C296.125 704.552 296.525 702.712 296.525 700.696C296.525 698.584 296.058 696.712 295.123 695.08C294.222 693.448 292.986 692.168 291.417 691.24C289.848 690.28 288.095 689.8 286.158 689.8Z" fill="white"/>
<path d="M326.057 713.512C325.69 713.512 325.373 713.368 325.106 713.08C324.471 712.376 323.687 711.512 322.752 710.488C321.85 709.432 320.882 708.312 319.847 707.128C318.845 705.944 317.844 704.792 316.842 703.672C315.874 702.52 315.006 701.496 314.238 700.6C313.236 701.496 312.318 702.312 311.483 703.048C310.648 703.752 309.98 704.328 309.48 704.776V712.312C309.48 712.632 309.363 712.92 309.129 713.176C308.895 713.4 308.595 713.512 308.227 713.512C307.894 713.512 307.593 713.4 307.326 713.176C307.092 712.92 306.975 712.632 306.975 712.312V689.032C306.975 688.68 307.092 688.392 307.326 688.168C307.593 687.944 307.894 687.832 308.227 687.832C308.595 687.832 308.895 687.944 309.129 688.168C309.363 688.392 309.48 688.68 309.48 689.032V701.56C310.414 700.728 311.5 699.768 312.735 698.68C314.004 697.56 315.323 696.392 316.692 695.176C318.061 693.928 319.396 692.712 320.698 691.528C322.001 690.312 323.153 689.208 324.154 688.216C324.421 687.96 324.722 687.832 325.056 687.832C325.39 687.832 325.673 687.96 325.907 688.216C326.174 688.44 326.308 688.712 326.308 689.032C326.308 689.288 326.191 689.56 325.957 689.848C324.655 691.16 323.102 692.648 321.299 694.312C319.53 695.944 317.794 697.512 316.091 699.016C316.859 699.88 317.727 700.888 318.695 702.04C319.697 703.192 320.715 704.36 321.75 705.544C322.785 706.728 323.754 707.848 324.655 708.904C325.59 709.96 326.375 710.84 327.009 711.544C327.209 711.736 327.309 711.992 327.309 712.312C327.309 712.6 327.193 712.872 326.959 713.128C326.725 713.384 326.425 713.512 326.057 713.512Z" fill="white"/>
<path d="M345.828 687.4C348.199 687.4 350.353 687.96 352.289 689.08C354.259 690.2 355.812 691.768 356.947 693.784C358.116 695.768 358.7 698.072 358.7 700.696C358.7 703.192 358.182 705.448 357.147 707.464C356.146 709.448 354.677 711.032 352.74 712.216C350.837 713.368 348.533 713.944 345.828 713.944C343.291 713.944 341.037 713.368 339.067 712.216C337.097 711.032 335.545 709.448 334.409 707.464C333.307 705.48 332.757 703.272 332.757 700.84C332.757 698.152 333.307 695.8 334.409 693.784C335.511 691.768 337.03 690.2 338.967 689.08C340.937 687.96 343.224 687.4 345.828 687.4ZM345.828 689.8C343.725 689.8 341.872 690.28 340.269 691.24C338.7 692.168 337.464 693.464 336.563 695.128C335.695 696.76 335.261 698.664 335.261 700.84C335.261 702.792 335.695 704.584 336.563 706.216C337.464 707.848 338.716 709.144 340.319 710.104C341.922 711.064 343.758 711.544 345.828 711.544C348.032 711.544 349.902 711.064 351.438 710.104C353.007 709.144 354.192 707.848 354.994 706.216C355.795 704.552 356.196 702.712 356.196 700.696C356.196 698.584 355.728 696.712 354.793 695.08C353.892 693.448 352.657 692.168 351.087 691.24C349.518 690.28 347.765 689.8 345.828 689.8Z" fill="white"/>
<path d="M380.269 691C379.467 690.68 378.582 690.424 377.614 690.232C376.679 690.04 375.444 689.944 373.908 689.944C372.205 689.944 370.853 690.36 369.851 691.192C368.849 691.992 368.349 692.904 368.349 693.928C368.349 694.952 368.816 695.88 369.751 696.712C370.686 697.544 372.506 698.264 375.21 698.872C377.614 699.384 379.467 700.04 380.769 700.84C382.105 701.64 383.04 702.552 383.574 703.576C384.108 704.568 384.376 705.672 384.376 706.888C384.376 708.072 384.058 709.208 383.424 710.296C382.823 711.352 381.821 712.232 380.419 712.936C379.05 713.608 377.213 713.944 374.91 713.944C371.637 713.944 368.616 713.208 365.844 711.736C365.41 711.48 365.193 711.128 365.193 710.68C365.193 710.392 365.31 710.12 365.544 709.864C365.778 709.608 366.078 709.48 366.445 709.48C366.646 709.48 366.846 709.528 367.046 709.624C369.417 710.904 372.038 711.544 374.91 711.544C377.18 711.544 378.9 711.096 380.068 710.2C381.27 709.272 381.871 708.168 381.871 706.888C381.871 705.544 381.304 704.424 380.168 703.528C379.067 702.632 377.247 701.88 374.709 701.272C372.339 700.696 370.502 700.04 369.2 699.304C367.931 698.568 367.046 697.736 366.546 696.808C366.078 695.88 365.844 694.856 365.844 693.736C365.844 692.712 366.145 691.736 366.746 690.808C367.38 689.848 368.299 689.064 369.501 688.456C370.703 687.848 372.172 687.544 373.908 687.544C375.744 687.544 377.213 687.688 378.315 687.976C379.451 688.232 380.636 688.6 381.871 689.08C382.406 689.272 382.673 689.64 382.673 690.184C382.673 690.504 382.539 690.792 382.272 691.048C382.038 691.272 381.754 691.384 381.421 691.384C381.354 691.384 381.254 691.368 381.12 691.336C380.986 691.272 380.703 691.16 380.269 691Z" fill="white"/>
<path d="M400.646 713.512C400.312 713.512 400.011 713.4 399.744 713.176C399.511 712.92 399.394 712.632 399.394 712.312V690.232H390.028C389.694 690.232 389.394 690.12 389.126 689.896C388.893 689.64 388.776 689.352 388.776 689.032C388.776 688.68 388.893 688.392 389.126 688.168C389.394 687.944 389.694 687.832 390.028 687.832H411.464C411.831 687.832 412.132 687.944 412.365 688.168C412.599 688.392 412.716 688.68 412.716 689.032C412.716 689.352 412.599 689.64 412.365 689.896C412.132 690.12 411.831 690.232 411.464 690.232H401.898V712.312C401.898 712.632 401.781 712.92 401.547 713.176C401.314 713.4 401.013 713.512 400.646 713.512Z" fill="white"/>
<path d="M560.666 0H1920V836H768.411L560.666 0Z" fill="#6E0B20"/>
<path d="M0 0H627.707L1243.94 836H0V0Z" fill="#A30024"/>
<path d="M971.285 498.777C994.008 498.777 1012.43 481.111 1012.43 459.318C1012.43 437.525 994.008 419.858 971.285 419.858C948.563 419.858 930.143 437.525 930.143 459.318C930.143 481.111 948.563 498.777 971.285 498.777Z" fill="#DD9023"/>
<path d="M922.662 414.352C920.699 408.109 918.887 400.375 918.107 391.419C916.786 376.278 918.924 363.58 921.208 354.768C907.195 342.016 885.572 341.197 870.733 352.727C855.614 364.471 851.766 385.757 861.972 402.004C869.917 400.5 884.934 398.804 902.076 404.278C910.846 407.075 917.722 410.969 922.662 414.352Z" fill="#396E27"/>
<path d="M922.662 509.789C919.713 515.663 916.673 523.031 914.441 531.776C910.673 546.552 910.71 559.458 911.524 568.535C895.653 578.972 874.244 576.406 861.519 562.684C848.556 548.702 848.231 527.033 860.925 512.544C868.497 515.272 883.001 519.293 900.76 516.551C909.846 515.147 917.249 512.369 922.662 509.794V509.789Z" fill="#396E27"/>
<path d="M971.864 397.001C974.586 391.164 978.427 384.325 983.873 377.228C993.077 365.226 1003.26 357.197 1010.92 352.121C1008.91 333.941 993.095 319.812 974.094 319.034C954.735 318.242 937.472 331.543 934.248 349.916C941.276 353.775 953.787 361.922 963.074 376.681C967.825 384.233 970.405 391.409 971.868 396.997L971.864 397.001Z" fill="#EFEDB7"/>
<path d="M968.186 526.307C965.831 532.362 962.428 539.493 957.442 546.978C949.007 559.633 939.349 568.337 932.013 573.9C935.163 592.154 951.836 605.526 970.849 605.22C990.226 604.906 1006.62 590.479 1008.69 571.725C1001.43 568.231 988.433 560.714 978.24 546.332C973.025 538.97 969.998 531.87 968.191 526.307H968.186Z" fill="#EFEDB7"/>
<path d="M898.346 459.286C891.933 461.1 884.329 463.848 876.244 468.087C862.58 475.256 852.902 483.885 846.626 490.518C828.029 486.164 815.45 469.189 817.154 450.967C818.89 432.399 834.964 417.721 854.459 417.105C857.537 424.323 864.339 437.346 878.429 448.179C885.639 453.723 892.744 457.144 898.351 459.286H898.346Z" fill="#EFEDB7"/>
<path d="M1021.51 418.728C1023.66 412.554 1025.72 404.885 1026.8 395.96C1028.64 380.872 1026.98 368.111 1025.04 359.227C1039.29 346.952 1060.63 346.856 1074.84 358.874C1089.33 371.117 1092.37 392.519 1081.74 408.415C1073.97 406.647 1059.23 404.449 1042.15 409.347C1033.41 411.85 1026.49 415.511 1021.51 418.728Z" fill="#396E27"/>
<path d="M1017.1 509.789C1020.01 515.663 1023.01 523.031 1025.22 531.776C1028.93 546.552 1028.9 559.458 1028.1 568.535C1043.76 578.972 1064.88 576.406 1077.44 562.684C1090.23 548.702 1090.56 527.033 1078.03 512.544C1070.56 515.272 1056.24 519.293 1038.72 516.551C1029.75 515.147 1022.45 512.369 1017.1 509.794V509.789Z" fill="#396E27"/>
<path d="M1047.03 459.286C1053.37 461.1 1060.89 463.848 1068.88 468.087C1082.38 475.256 1091.95 483.885 1098.16 490.518C1116.54 486.164 1128.97 469.189 1127.29 450.966C1125.57 432.399 1109.68 417.721 1090.41 417.105C1087.37 424.323 1080.65 437.346 1066.72 448.179C1059.59 453.723 1052.57 457.144 1047.03 459.286H1047.03Z" fill="#EFEDB7"/>
</svg>
