<svg width="836" height="956" viewBox="0 0 836 956" fill="none" xmlns="http://www.w3.org/2000/svg">
<path d="M417.285 524.777C440.008 524.777 458.428 507.111 458.428 485.318C458.428 463.525 440.008 445.858 417.285 445.858C394.563 445.858 376.143 463.525 376.143 485.318C376.143 507.111 394.563 524.777 417.285 524.777Z" fill="#DD9023"/>
<path d="M368.663 440.352C366.7 434.109 364.888 426.375 364.108 417.419C362.787 402.278 364.925 389.58 367.209 380.768C353.196 368.016 331.573 367.197 316.734 378.727C301.615 390.471 297.767 411.757 307.973 428.004C315.918 426.5 330.935 424.804 348.077 430.278C356.847 433.075 363.723 436.969 368.663 440.352Z" fill="#396E27"/>
<path d="M368.662 535.789C365.713 541.663 362.673 549.031 360.441 557.776C356.673 572.552 356.71 585.458 357.524 594.535C341.653 604.972 320.244 602.406 307.519 588.684C294.556 574.702 294.231 553.033 306.925 538.544C314.497 541.272 329.001 545.293 346.76 542.551C355.846 541.147 363.249 538.369 368.662 535.794V535.789Z" fill="#396E27"/>
<path d="M417.864 423.001C420.586 417.164 424.427 410.325 429.873 403.228C439.077 391.226 449.256 383.197 456.923 378.121C454.909 359.941 439.095 345.812 420.094 345.034C400.735 344.242 383.472 357.543 380.248 375.916C387.276 379.775 399.787 387.922 409.074 402.681C413.825 410.233 416.405 417.409 417.868 422.997L417.864 423.001Z" fill="#EFEDB7"/>
<path d="M414.187 552.307C411.832 558.362 408.429 565.493 403.443 572.978C395.008 585.633 385.35 594.337 378.014 599.9C381.164 618.154 397.837 631.526 416.85 631.22C436.227 630.906 452.619 616.479 454.689 597.725C447.431 594.231 434.433 586.714 424.241 572.332C419.026 564.97 415.999 557.87 414.192 552.307H414.187Z" fill="#EFEDB7"/>
<path d="M344.346 485.286C337.933 487.1 330.329 489.848 322.244 494.087C308.58 501.256 298.902 509.885 292.626 516.518C274.029 512.164 261.45 495.189 263.154 476.967C264.89 458.399 280.964 443.721 300.459 443.105C303.537 450.323 310.339 463.346 324.429 474.179C331.639 479.723 338.744 483.144 344.351 485.286H344.346Z" fill="#EFEDB7"/>
<path d="M467.506 444.728C469.661 438.554 471.718 430.885 472.802 421.96C474.636 406.872 472.977 394.111 471.036 385.227C485.293 372.952 506.627 372.856 520.842 384.874C535.326 397.117 538.369 418.519 527.741 434.415C519.965 432.647 505.228 430.449 488.145 435.347C479.405 437.85 472.493 441.511 467.506 444.728Z" fill="#396E27"/>
<path d="M463.104 535.789C466.014 541.663 469.015 549.031 471.217 557.776C474.935 572.552 474.899 585.458 474.096 594.535C489.758 604.972 510.885 602.406 523.442 588.684C536.235 574.702 536.555 553.033 524.029 538.544C516.557 541.272 502.243 545.293 484.718 542.551C475.752 541.147 468.446 538.369 463.104 535.794V535.789Z" fill="#396E27"/>
<path d="M493.03 485.286C499.369 487.1 506.886 489.848 514.877 494.087C528.384 501.256 537.952 509.885 544.155 516.518C562.539 512.164 574.973 495.189 573.288 476.966C571.572 458.399 555.684 443.721 536.412 443.105C533.37 450.323 526.646 463.346 512.718 474.179C505.591 479.723 498.568 483.144 493.025 485.286H493.03Z" fill="#EFEDB7"/>
<path d="M714.788 129.125C714.788 129.692 714.532 130.076 714.02 130.277C713.156 130.611 712.196 131.011 711.14 131.479C710.084 131.946 708.98 132.447 707.828 132.981V147.105C708.98 147.572 710.084 148.023 711.14 148.457C712.164 148.858 713.108 149.225 713.972 149.559C714.228 149.659 714.436 149.826 714.596 150.06C714.724 150.294 714.788 150.544 714.788 150.811C714.788 151.112 714.676 151.395 714.452 151.663C714.196 151.896 713.892 152.013 713.54 152.013C713.444 152.013 713.316 151.996 713.156 151.963C712.964 151.896 712.596 151.746 712.052 151.512C710.612 150.945 708.964 150.277 707.108 149.509C705.252 148.708 703.316 147.856 701.3 146.955C699.284 146.053 697.252 145.135 695.204 144.2C693.156 143.265 691.22 142.364 689.396 141.496C688.916 141.262 688.676 140.861 688.676 140.294V140.093C688.676 139.492 688.9 139.092 689.348 138.891C691.204 137.99 693.204 137.038 695.348 136.036C697.492 135.001 699.62 134 701.732 133.031C703.812 132.063 705.764 131.178 707.588 130.377C709.38 129.576 710.868 128.924 712.052 128.424C712.628 128.157 713.012 128.006 713.204 127.973C713.396 127.906 713.524 127.873 713.588 127.873C713.908 127.873 714.196 128.006 714.452 128.273C714.676 128.507 714.788 128.791 714.788 129.125ZM705.428 134.033C703.284 135.001 701.092 136.02 698.852 137.088C696.612 138.157 694.484 139.192 692.468 140.193C694.516 141.128 696.66 142.113 698.9 143.148C701.108 144.15 703.284 145.118 705.428 146.053V134.033Z" fill="white"/>
<path d="M714.788 119.204C714.788 119.538 714.676 119.839 714.452 120.106C714.196 120.339 713.908 120.456 713.588 120.456H690.308C689.956 120.456 689.668 120.339 689.444 120.106C689.22 119.839 689.108 119.538 689.108 119.204V104.93C689.108 104.563 689.22 104.263 689.444 104.029C689.668 103.795 689.956 103.678 690.308 103.678C690.628 103.678 690.916 103.795 691.172 104.029C691.396 104.263 691.508 104.563 691.508 104.93V117.952H700.772V107.485C700.772 107.117 700.884 106.817 701.108 106.583C701.332 106.349 701.62 106.232 701.972 106.232C702.292 106.232 702.58 106.349 702.836 106.583C703.06 106.817 703.172 107.117 703.172 107.485V117.952H713.588C713.908 117.952 714.196 118.069 714.452 118.303C714.676 118.536 714.788 118.837 714.788 119.204Z" fill="white"/>
<path d="M714.788 88.0215C714.788 88.3554 714.676 88.6559 714.452 88.923C714.196 89.1567 713.908 89.2736 713.588 89.2736H691.508V98.6393C691.508 98.9732 691.396 99.2737 691.172 99.5408C690.916 99.7745 690.628 99.8914 690.308 99.8914C689.956 99.8914 689.668 99.7745 689.444 99.5408C689.22 99.2737 689.108 98.9732 689.108 98.6393V77.2033C689.108 76.8361 689.22 76.5356 689.444 76.3018C689.668 76.0681 689.956 75.9512 690.308 75.9512C690.628 75.9512 690.916 76.0681 691.172 76.3018C691.396 76.5356 691.508 76.8361 691.508 77.2033V86.7694H713.588C713.908 86.7694 714.196 86.8862 714.452 87.12C714.676 87.3537 714.788 87.6542 714.788 88.0215Z" fill="white"/>
<path d="M714.788 68.0931C714.788 68.427 714.676 68.7275 714.452 68.9947C714.196 69.2284 713.908 69.3452 713.588 69.3452H690.308C689.988 69.3452 689.716 69.2451 689.492 69.0447C689.236 68.811 689.108 68.5439 689.108 68.2434V54.2199C689.108 53.8526 689.22 53.5521 689.444 53.3184C689.668 53.0846 689.956 52.9678 690.308 52.9678C690.628 52.9678 690.916 53.0846 691.172 53.3184C691.396 53.5521 691.508 53.8526 691.508 54.2199V66.841H699.86V56.3735C699.86 56.0062 699.972 55.7057 700.196 55.472C700.42 55.2382 700.708 55.1214 701.06 55.1214C701.38 55.1214 701.668 55.2382 701.924 55.472C702.148 55.7057 702.26 56.0062 702.26 56.3735V66.841H712.388V54.1197C712.388 53.7524 712.5 53.4519 712.724 53.2182C712.948 52.9845 713.236 52.8676 713.588 52.8676C713.908 52.8676 714.196 52.9845 714.452 53.2182C714.676 53.4519 714.788 53.7524 714.788 54.1197V68.0931Z" fill="white"/>
<path d="M714.308 25.5065C712.836 26.6417 711.188 27.9606 709.364 29.4631C707.54 30.9322 705.684 32.4515 703.796 34.0208C701.876 35.5901 700.02 37.1093 698.228 38.5784C696.436 40.0141 694.852 41.2996 693.476 42.4349H713.588C713.908 42.4349 714.196 42.5517 714.452 42.7855C714.676 43.0192 714.788 43.3197 714.788 43.687C714.788 44.0209 714.676 44.3214 714.452 44.5885C714.196 44.8222 713.908 44.9391 713.588 44.9391H690.308C689.956 44.9391 689.668 44.8222 689.444 44.5885C689.22 44.3214 689.108 44.0376 689.108 43.7371C689.108 43.0693 689.268 42.6185 689.588 42.3848C690.644 41.5501 692.004 40.4649 693.668 39.1293C695.3 37.7938 697.092 36.3413 699.044 34.772C700.964 33.1693 702.916 31.5666 704.9 29.964C706.852 28.3279 708.692 26.8254 710.42 25.4564H690.308C689.956 25.4564 689.668 25.3395 689.444 25.1058C689.22 24.8387 689.108 24.5382 689.108 24.2043C689.108 23.837 689.22 23.5365 689.444 23.3028C689.668 23.0691 689.956 22.9522 690.308 22.9522H713.588C713.908 22.9522 714.196 23.0691 714.452 23.3028C714.676 23.5365 714.788 23.8203 714.788 24.1542C714.788 24.822 714.628 25.2728 714.308 25.5065Z" fill="white"/>
<path d="M0 940L0 0H836L836 796.342L0 940Z" fill="#6E0B20"/>
<path d="M0 956L0 641.604L836 332.953V956H0Z" fill="#A20024"/>
</svg>
