<svg width="1104" height="1111" viewBox="0 0 1104 1111" fill="none" xmlns="http://www.w3.org/2000/svg">
<g opacity="0.045">
<path d="M797.698 351.24C842.269 351.24 878.401 315.929 878.401 272.372C878.401 228.814 842.269 193.504 797.698 193.504C753.128 193.504 716.996 228.814 716.996 272.372C716.996 315.929 753.128 351.24 797.698 351.24Z" fill="#585858"/>
<path d="M685.816 182.499C681.965 170.02 678.411 154.562 676.881 136.662C674.29 106.398 678.483 81.0197 682.964 63.4057C655.477 37.9196 613.063 36.2826 583.956 59.3265C554.301 82.7999 546.752 125.345 566.772 157.818C582.355 154.812 611.812 151.422 645.436 162.362C662.639 167.953 676.126 175.736 685.816 182.499Z" fill="#585858"/>
<path d="M702.323 373.25C696.538 384.989 690.574 399.716 686.197 417.196C678.806 446.729 678.878 472.523 680.474 490.666C649.343 511.527 607.35 506.397 582.389 478.971C556.962 451.025 556.325 407.716 581.223 378.756C596.076 384.209 624.526 392.245 659.361 386.765C677.183 383.958 691.704 378.406 702.323 373.258V373.25Z" fill="#585858"/>
<path d="M794.448 156.821C799.789 145.154 807.322 131.485 818.005 117.3C836.058 93.3115 856.024 77.2636 871.064 67.1189C867.112 30.7816 836.094 2.54263 798.824 0.985942C760.849 -0.596982 726.989 25.9891 720.665 62.7112C734.45 70.4247 758.991 86.7087 777.207 116.207C786.526 131.302 791.588 145.644 794.457 156.812L794.448 156.821Z" fill="#585858"/>
<path d="M791.62 406.264C787.001 418.366 780.325 432.619 770.545 447.581C753.999 472.874 735.054 490.271 720.665 501.39C726.844 537.873 759.548 564.601 796.843 563.99C834.851 563.361 867.004 534.527 871.064 497.043C856.828 490.058 831.333 475.034 811.341 446.289C801.11 431.575 795.174 417.383 791.629 406.264H791.62Z" fill="#585858"/>
<path d="M654.626 272.308C642.047 275.934 627.132 281.426 611.274 289.899C584.472 304.228 565.486 321.475 553.177 334.733C516.698 326.029 492.025 292.102 495.368 255.68C498.773 218.568 530.301 189.231 568.541 188.001C574.579 202.427 587.922 228.456 615.56 250.108C629.702 261.19 643.638 268.027 654.635 272.308H654.626Z" fill="#585858"/>
<path d="M902.245 182.499C906.041 170.02 909.545 154.562 911.053 136.662C913.608 106.398 909.474 81.0197 905.057 63.4057C932.157 37.9196 973.973 36.2826 1002.67 59.3265C1031.91 82.7999 1039.35 125.345 1019.61 157.818C1004.25 154.812 975.206 151.422 942.056 162.362C925.095 167.953 911.798 175.736 902.245 182.499Z" fill="#585858"/>
<path d="M887.571 373.25C893.28 384.989 899.166 399.716 903.485 417.196C910.779 446.729 910.708 472.523 909.132 490.666C939.854 511.527 981.295 506.397 1005.93 478.971C1031.02 451.025 1031.65 407.716 1007.08 378.756C992.42 384.209 964.345 392.245 929.968 386.765C912.381 383.958 898.051 378.406 887.571 373.258V373.25Z" fill="#585858"/>
<path d="M946.273 272.308C958.707 275.934 973.451 281.426 989.127 289.899C1015.62 304.228 1034.39 321.475 1046.56 334.733C1082.62 326.029 1107 292.102 1103.7 255.68C1100.33 218.568 1069.17 189.231 1031.37 188.001C1025.4 202.427 1012.21 228.456 984.89 250.108C970.91 261.19 957.135 268.027 946.264 272.308H946.273Z" fill="#585858"/>
</g>
<g opacity="0.045">
<path d="M225.136 952.612C258.293 952.612 285.172 926.343 285.172 893.94C285.172 861.537 258.293 835.268 225.136 835.268C191.979 835.268 165.1 861.537 165.1 893.94C165.1 926.343 191.979 952.612 225.136 952.612Z" fill="#585858"/>
<path d="M141.904 827.081C139.039 817.798 136.395 806.298 135.257 792.982C133.33 770.469 136.449 751.589 139.782 738.485C119.334 719.526 87.7814 718.308 66.1285 735.451C44.0672 752.913 38.4515 784.564 53.3442 808.721C64.9371 806.485 86.8511 803.962 111.864 812.101C124.662 816.261 134.695 822.05 141.904 827.081Z" fill="#585858"/>
<path d="M154.184 968.985C149.88 977.718 145.443 988.674 142.187 1001.68C136.689 1023.65 136.742 1042.84 137.93 1056.33C114.771 1071.85 83.5312 1068.04 64.9623 1047.63C46.0465 1026.84 45.5727 994.625 64.0949 973.081C75.1442 977.138 96.3086 983.116 122.224 979.039C135.481 976.951 146.284 972.821 154.184 968.992V968.985Z" fill="#585858"/>
<path d="M222.718 807.979C226.691 799.3 232.295 789.131 240.242 778.579C253.672 760.733 268.526 748.795 279.714 741.248C276.774 714.216 253.699 693.208 225.973 692.05C197.723 690.872 172.534 710.65 167.829 737.969C178.084 743.707 196.34 755.821 209.891 777.765C216.825 788.995 220.59 799.664 222.724 807.972L222.718 807.979Z" fill="#585858"/>
<path d="M220.614 993.545C217.177 1002.55 212.211 1013.15 204.936 1024.28C192.627 1043.1 178.533 1056.04 167.829 1064.31C172.426 1091.45 196.755 1111.34 224.5 1110.88C252.775 1110.41 276.694 1088.96 279.714 1061.08C269.124 1055.88 250.157 1044.71 235.285 1023.32C227.674 1012.37 223.258 1001.82 220.62 993.545H220.614Z" fill="#585858"/>
<path d="M118.701 893.892C109.343 896.59 98.2478 900.676 86.4503 906.979C66.5116 917.638 52.388 930.469 43.2308 940.331C16.0932 933.857 -2.26137 908.617 0.225121 881.522C2.7584 853.914 26.213 832.089 54.6606 831.175C59.1523 841.906 69.0783 861.27 89.6386 877.377C100.159 885.622 110.526 890.708 118.708 893.892H118.701Z" fill="#585858"/>
<path d="M302.91 827.081C305.735 817.798 308.341 806.298 309.463 792.982C311.364 770.469 308.288 751.589 305.002 738.485C325.162 719.526 356.27 718.308 377.618 735.451C399.369 752.913 404.906 784.564 390.223 808.721C378.793 806.485 357.188 803.962 332.527 812.101C319.909 816.261 310.017 822.05 302.91 827.081Z" fill="#585858"/>
<path d="M291.994 968.985C296.241 977.718 300.62 988.674 303.833 1001.68C309.259 1023.65 309.206 1042.84 308.034 1056.33C330.889 1071.85 361.717 1068.04 380.042 1047.63C398.709 1026.84 399.176 994.625 380.898 973.081C369.994 977.138 349.108 983.116 323.534 979.039C310.45 976.951 299.79 972.821 291.994 968.992V968.985Z" fill="#585858"/>
<path d="M335.663 893.892C344.914 896.59 355.882 900.676 367.544 906.979C387.253 917.638 401.214 930.469 410.266 940.331C437.092 933.857 455.236 908.617 452.778 881.522C450.273 853.914 427.088 832.089 398.968 831.175C394.528 841.906 384.716 861.27 364.392 877.377C353.992 885.622 343.744 890.708 335.657 893.892H335.663Z" fill="#585858"/>
</g>
</svg>
