<?xml version="1.0" encoding="UTF-8"?><svg id="Layer_1" xmlns="http://www.w3.org/2000/svg" width="196" height="181" viewBox="0 0 196 181"><defs><style>.cls-1{fill:#efedb7;}.cls-2{fill:#dd9023;}.cls-3{fill:#ab4c51;}</style></defs><path class="cls-3" d="M97.43,115.21c14.29,0,25.88-11.28,25.88-25.2s-11.58-25.2-25.88-25.2-25.88,11.28-25.88,25.2,11.59,25.2,25.88,25.2Z"/><path class="cls-2" d="M67.57,62.89c-1.58-3.86-3.15-8.68-4.14-14.34-1.68-9.56-1.05-17.75-.12-23.49-9.5-7.34-23.09-6.66-31.74,1.49-8.81,8.31-10.03,22.06-2.72,31.83,4.89-1.4,14.21-3.31,25.25-.77,5.65,1.29,10.18,3.39,13.46,5.27Z"/><path class="cls-2" d="M67.21,119.07c-1.85,3.75-3.77,8.46-5.17,14.04-2.37,9.44-2.35,17.68-1.83,23.47-9.98,6.66-23.45,5.03-31.45-3.74-8.15-8.93-8.36-22.77-.37-32.02,4.76,1.74,13.88,4.31,25.05,2.56,5.71-.9,10.37-2.67,13.78-4.32h0Z"/><path class="cls-1" d="M97.4,49.92c1.56-3.79,3.79-8.26,7.03-12.93,5.47-7.9,11.66-13.28,16.34-16.72C119.03,8.73,108.73,.12,96.76,.11c-12.19,0-22.69,8.93-24.23,20.73,4.52,2.28,12.59,7.16,18.82,16.33,3.18,4.7,4.99,9.21,6.06,12.74h0Z"/><path class="cls-1" d="M98.5,127.54c-1.69,3.78-4.09,8.21-7.48,12.8-5.75,7.77-12.12,12.98-16.93,16.27,1.33,11.75,11.32,20.86,23.27,21.33,12.18,.48,22.99-8.14,24.96-20.02-4.43-2.48-12.33-7.73-18.21-17.26-3.01-4.88-4.66-9.51-5.6-13.12h0Z"/><path class="cls-1" d="M54.96,92.09c-4.03,1.16-8.82,2.91-13.9,5.62-8.59,4.58-14.68,10.09-18.63,14.32-11.7-2.78-19.61-13.62-18.54-25.26,1.09-11.86,11.2-21.23,23.46-21.62,1.94,4.61,6.21,12.93,15.08,19.84,4.53,3.54,9,5.72,12.53,7.09h0Z"/><path class="cls-2" d="M131.78,60.32c1.61-3.84,3.23-8.65,4.28-14.29,1.79-9.54,1.28-17.74,.44-23.48,9.46-7.23,22.86-6.4,31.27,1.85,8.57,8.4,9.58,22.17,2.24,31.85-4.8-1.45-13.96-3.46-24.89-1.06-5.59,1.23-10.08,3.28-13.35,5.12Z"/><path class="cls-2" d="M129.19,119.07c1.83,3.75,3.72,8.46,5.1,14.04,2.34,9.44,2.32,17.68,1.81,23.47,9.85,6.66,23.14,5.03,31.04-3.74,8.04-8.93,8.25-22.77,.37-32.02-4.7,1.74-13.7,4.31-24.72,2.56-5.64-.9-10.23-2.67-13.59-4.32h0Z"/><path class="cls-1" d="M142,91.75c3.99,1.16,8.71,2.91,13.74,5.62,8.49,4.58,14.51,10.09,18.41,14.32,11.56-2.78,19.38-13.62,18.32-25.26-1.08-11.86-11.07-21.23-23.19-21.62-1.91,4.61-6.14,12.93-14.9,19.84-4.48,3.54-8.9,5.72-12.39,7.09h0Z"/></svg>